<svg height="512" viewBox="0 0 128 128" width="512" xmlns="http://www.w3.org/2000/svg"><g><circle cx="13.375" cy="13.375" fill="#5360d9" r="11.625"/><path d="m19.125 47.15v21.519c26.781 0 26.781 4 53.563 4s26.781-4 53.562-4v-21.519c-26.781 0-26.781 4-53.562 4s-26.782-4-53.563-4z" fill="#f0f0fb"/><path d="m19.125 68.669v21.518c26.781 0 26.781 4 53.563 4s26.781-4 53.562-4v-21.518c-26.781 0-26.781 4-53.562 4s-26.782-4-53.563-4z" fill="#c7e554"/><path d="m72.688 29.632c-26.782 0-26.782-4-53.563-4v21.518c26.781 0 26.781 4 53.563 4s26.781-4 53.562-4v-21.518c-26.781 0-26.781 4-53.562 4z" fill="#f3d232"/><circle cx="72.145" cy="61.91" fill="#5360d9" r="10.759"/><path d="m77.9 61.91a1.744 1.744 0 0 0 -1.57-1.732 1.74 1.74 0 0 0 -2.448-2.449 1.74 1.74 0 0 0 -3.464 0 1.74 1.74 0 0 0 -2.449 2.449 1.74 1.74 0 0 0 0 3.463 1.74 1.74 0 0 0 2.449 2.449 1.74 1.74 0 0 0 3.464 0 1.74 1.74 0 0 0 2.449-2.449 1.743 1.743 0 0 0 1.569-1.731z" fill="#79d5dd"/><path d="m13.375 25a11.555 11.555 0 0 1 -5.75-1.53v102.78h11.5v-102.78a11.555 11.555 0 0 1 -5.75 1.53z" fill="#6aa8fb"/></g></svg>