<?xml version="1.0" encoding="utf-8"?>
<!-- Generator: Adobe Illustrator 16.0.0, SVG Export Plug-In . SVG Version: 6.00 Build 0)  -->
<!DOCTYPE svg PUBLIC "-//W3C//DTD SVG 1.1//EN" "http://www.w3.org/Graphics/SVG/1.1/DTD/svg11.dtd">
<svg version="1.1" id="Layer_1" xmlns="http://www.w3.org/2000/svg" xmlns:xlink="http://www.w3.org/1999/xlink" x="0px" y="0px"
	 width="24px" height="24px" viewBox="0 0 24 24" enable-background="new 0 0 24 24" xml:space="preserve">
<path fill="#273992" stroke="#273992" stroke-miterlimit="10" d="M17.049,7.138l-7.25,7.249l-3.949-3.938L4.299,12l5.5,5.5l8.8-8.8
	L17.049,7.138z M12,1C5.928,1,1,5.928,1,12c0,6.071,4.929,11,11,11c6.071,0,11-4.929,11-11C23,5.928,18.07,1,12,1z M12,20.8
	c-4.862,0-8.8-3.938-8.8-8.8c0-4.862,3.938-8.8,8.8-8.8s8.799,3.938,8.799,8.8C20.799,16.862,16.861,20.8,12,20.8z"/>
<polygon fill="#89DBD4" stroke="#89DBD4" stroke-miterlimit="10" points="17.598,7.455 10.35,14.704 6.401,10.766 4.85,12.317 
	10.35,17.817 19.15,9.017 "/>
</svg>
