<?xml version="1.0" encoding="utf-8"?>
<!-- Generator: Adobe Illustrator 24.1.2, SVG Export Plug-In . SVG Version: 6.00 Build 0)  -->
<svg version="1.1" id="Layer_1" xmlns="http://www.w3.org/2000/svg" xmlns:xlink="http://www.w3.org/1999/xlink" x="0px" y="0px"
	 viewBox="0 0 41 63" style="enable-background:new 0 0 41 63;" xml:space="preserve">
<style type="text/css">
	.st0{fill:#2196F3;}
	.st1{clip-path:url(#SVGID_2_);}
	.st2{fill:#0E86D8;}
</style>
<g>
	<g>
		<g>
			<path class="st0" d="M2.33,39.63h9.33h17.22h9.33c1.89,0,2.87,2.28,1.55,3.65L21.82,61.94c-0.41,0.42-0.97,0.66-1.55,0.66
				s-1.15-0.24-1.55-0.66L0.77,43.28C-0.54,41.91,0.43,39.63,2.33,39.63z"/>
		</g>
		<g>
			<defs>
				
					<rect id="SVGID_1_" x="15.45" y="37.32" transform="matrix(-1.836970e-16 1 -1 -1.836970e-16 79.3551 17.0535)" width="31.4" height="21.76"/>
			</defs>
			<clipPath id="SVGID_2_">
				<use xlink:href="#SVGID_1_"  style="overflow:visible;"/>
			</clipPath>
			<g class="st1">
				<path class="st2" d="M2.33,39.69h9.33h17.22h9.33c1.89,0,2.87,2.28,1.55,3.65L21.82,61.99c-0.41,0.42-0.97,0.66-1.55,0.66
					s-1.15-0.24-1.55-0.66L0.77,43.33C-0.54,41.97,0.43,39.69,2.33,39.69z"/>
			</g>
		</g>
	</g>
	
		<rect x="2.73" y="17.5" transform="matrix(-1.836970e-16 1 -1 -1.836970e-16 42.4034 -2.7718)" class="st2" width="39.71" height="4.64"/>
	
		<rect x="-1.91" y="17.5" transform="matrix(-1.836970e-16 1 -1 -1.836970e-16 37.7653 1.8662)" class="st0" width="39.71" height="4.64"/>
</g>
</svg>
