<?xml version="1.0" encoding="utf-8"?>
<!-- Generator: Adobe Illustrator 16.0.0, SVG Export Plug-In . SVG Version: 6.00 Build 0)  -->
<!DOCTYPE svg PUBLIC "-//W3C//DTD SVG 1.1//EN" "http://www.w3.org/Graphics/SVG/1.1/DTD/svg11.dtd">
<svg version="1.1" id="Layer_1" xmlns="http://www.w3.org/2000/svg" xmlns:xlink="http://www.w3.org/1999/xlink" x="0px" y="0px"
	 width="24px" height="24px" viewBox="0 0 24 24" enable-background="new 0 0 24 24" xml:space="preserve">
<g>
	<path fill-rule="evenodd" clip-rule="evenodd" fill="#273992" stroke="#273992" stroke-miterlimit="10" d="M7.515,12.923
		c0,0.818,0,1.581,0,2.282C6.401,14.087,5.3,12.98,4.226,11.901c0.988-0.974,2.092-2.061,3.243-3.196c0,0.733,0,1.506,0,2.337
		c3.024,0,5.92,0,8.934,0c0-0.771,0-1.558,0-2.313c1.144,1.15,2.243,2.258,3.302,3.323c-0.98,0.977-2.078,2.07-3.229,3.217
		c0-0.744,0-1.516,0-2.347C13.45,12.923,10.554,12.923,7.515,12.923z"/>
	<path fill-rule="evenodd" clip-rule="evenodd" fill="#89DBD4" stroke="#89DBD4" stroke-miterlimit="10" d="M2.15,19.056
		c-0.575,0-1.089,0-1.668,0c0-4.698,0-9.375,0-14.111c0.537,0,1.068,0,1.668,0C2.15,9.611,2.15,14.287,2.15,19.056z"/>
	<path fill-rule="evenodd" clip-rule="evenodd" fill="#89DBD4" stroke="#89DBD4" stroke-miterlimit="10" d="M23.482,19.05
		c-0.579,0-1.091,0-1.68,0c0-4.684,0-9.356,0-14.098c0.534,0,1.085,0,1.68,0C23.482,9.637,23.482,14.291,23.482,19.05z"/>
</g>
</svg>
