<?xml version="1.0" encoding="utf-8"?>
<!-- Generator: Adobe Illustrator 16.0.0, SVG Export Plug-In . SVG Version: 6.00 Build 0)  -->
<!DOCTYPE svg PUBLIC "-//W3C//DTD SVG 1.1//EN" "http://www.w3.org/Graphics/SVG/1.1/DTD/svg11.dtd">
<svg version="1.1" id="Layer_1" xmlns="http://www.w3.org/2000/svg" xmlns:xlink="http://www.w3.org/1999/xlink" x="0px" y="0px"
	 width="24px" height="24px" viewBox="0 0 24 24" enable-background="new 0 0 24 24" xml:space="preserve">
<g>
	<g>
		<path fill="#4252A0" stroke="#89DBD4" stroke-miterlimit="10" d="M19.883,17.166c-1.304,0-2.365,1.061-2.365,2.363
			c0,1.305,1.062,2.365,2.365,2.365c1.303,0,2.363-1.061,2.363-2.365C22.246,18.227,21.186,17.166,19.883,17.166z"/>
	</g>
</g>
<g>
	<g>
		<path fill="#4252A0" stroke="#89DBD4" stroke-miterlimit="10" d="M5.234,0.699c-1.304,0-2.365,1.061-2.365,2.363
			c0,1.305,1.062,2.365,2.365,2.365c1.303,0,2.363-1.061,2.363-2.365C7.598,1.76,6.537,0.699,5.234,0.699z"/>
	</g>
</g>
<g>
	<g>
		<path fill="#4252A0" stroke="#89DBD4" stroke-miterlimit="10" d="M20.034,0.699c-1.304,0-2.364,1.061-2.364,2.364
			c0,1.304,1.061,2.365,2.364,2.365c1.302,0,2.362-1.061,2.362-2.365C22.396,1.759,21.336,0.699,20.034,0.699z"/>
	</g>
</g>
<g>
	<g>
		<path fill="#4252A0" stroke="#89DBD4" stroke-miterlimit="10" d="M2.829,17.166c-1.304,0-2.365,1.061-2.365,2.363
			c0,1.305,1.062,2.365,2.365,2.365c1.302,0,2.362-1.061,2.362-2.365C5.191,18.227,4.13,17.166,2.829,17.166z"/>
	</g>
</g>
<image overflow="visible" width="1366" height="768" xlink:href="E30B96D6.jpg"  transform="matrix(1 0 0 1 214.957 -229.0068)">
</image>
<g>
	<path fill="#4252A0" stroke="#4252A0" stroke-miterlimit="10" d="M4.192,13.063l-0.597,1.809H2.827L4.781,9.12h0.896l1.962,5.751
		H6.846l-0.615-1.809H4.192z M6.078,12.482l-0.563-1.656c-0.127-0.375-0.213-0.716-0.298-1.049H5.199
		c-0.085,0.342-0.179,0.691-0.29,1.042l-0.563,1.664H6.078z"/>
	<path fill="#4252A0" stroke="#4252A0" stroke-miterlimit="10" d="M9.298,14.871L7.42,9.12h0.802l0.896,2.833
		c0.248,0.775,0.461,1.477,0.615,2.15H9.75c0.162-0.666,0.401-1.391,0.657-2.143l0.973-2.841h0.794l-2.057,5.751H9.298z"/>
	<path fill="#4252A0" stroke="#89DBD4" stroke-miterlimit="10" d="M12.799,9.197c0.453-0.068,0.99-0.119,1.579-0.119
		c1.066,0,1.825,0.247,2.329,0.716c0.512,0.469,0.811,1.136,0.811,2.065c0,0.938-0.29,1.707-0.828,2.234
		c-0.537,0.539-1.425,0.828-2.542,0.828c-0.529,0-0.973-0.025-1.349-0.068V9.197z M13.542,14.283c0.188,0.033,0.46,0.041,0.75,0.041
		c1.587,0,2.449-0.887,2.449-2.439c0.008-1.356-0.76-2.218-2.33-2.218c-0.383,0-0.674,0.034-0.869,0.077V14.283z"/>
	<path fill="#4252A0" stroke="#4252A0" stroke-miterlimit="10" d="M18.484,9.12h3.098v0.623h-2.354v1.911h2.175v0.614h-2.175v2.603
		h-0.743V9.12z"/>
</g>
</svg>
