<?xml version="1.0" encoding="utf-8"?>
<!-- Generator: Adobe Illustrator 16.0.0, SVG Export Plug-In . SVG Version: 6.00 Build 0)  -->
<!DOCTYPE svg PUBLIC "-//W3C//DTD SVG 1.1//EN" "http://www.w3.org/Graphics/SVG/1.1/DTD/svg11.dtd">
<svg version="1.1" id="Layer_1" xmlns="http://www.w3.org/2000/svg" xmlns:xlink="http://www.w3.org/1999/xlink" x="0px" y="0px"
	 width="24px" height="24px" viewBox="0 0 24 24" enable-background="new 0 0 24 24" xml:space="preserve">
<path fill="none" d="M363.055-17.116h24v24h-24V-17.116z"/>
<g>
	<path fill="#89DBD4" stroke="#273992" stroke-miterlimit="10" d="M24.02,2.24v6.442h-6.441V2.24H24.02z M3.38,17.08
		c-1.853,0-3.36,1.508-3.36,3.359c0,1.854,1.507,3.361,3.36,3.361c1.853,0,3.36-1.508,3.36-3.361
		C6.74,18.588,5.232,17.08,3.38,17.08z M20.242,12.3h-2.109H17.23H2.836v0.521H2.824v3.368h1.111V13.41H17.23h0.902h3.217v-0.259
		h0.004V9.782h-1.111V12.3z"/>
</g>
</svg>
