<?xml version="1.0" encoding="utf-8"?>
<!-- Generator: Adobe Illustrator 16.0.0, SVG Export Plug-In . SVG Version: 6.00 Build 0)  -->
<!DOCTYPE svg PUBLIC "-//W3C//DTD SVG 1.1//EN" "http://www.w3.org/Graphics/SVG/1.1/DTD/svg11.dtd">
<svg version="1.1" id="Capa_1" xmlns="http://www.w3.org/2000/svg" xmlns:xlink="http://www.w3.org/1999/xlink" x="0px" y="0px"
	 width="250px" height="250px" viewBox="0 0 250 250" enable-background="new 0 0 250 250" xml:space="preserve">
<g>
	<g>
		<g>
			<circle fill="#273992" stroke="#273992" stroke-width="6" stroke-miterlimit="10" cx="27.935" cy="191.413" r="20.435"/>
		</g>
	</g>
	<g>
		<g>
			<circle fill="#273992" stroke="#273992" stroke-width="6" stroke-miterlimit="10" cx="191.413" cy="27.935" r="20.435"/>
		</g>
	</g>
	<g>
		<g>
			<path fill="#273992" stroke="#273992" stroke-width="6" stroke-miterlimit="10" d="M179.694,39.654
				c-1.993-1.993-5.232-1.993-7.225,0L39.644,172.48c-1.993,1.991-1.993,5.231,0,7.223c1.001,0.992,2.309,1.493,3.617,1.493
				c1.308,0,2.616-0.501,3.607-1.493L179.694,46.878C181.687,44.886,181.687,41.646,179.694,39.654z"/>
		</g>
	</g>
	<g>
		<g>
			<circle fill="#273992" stroke="#273992" stroke-width="6" stroke-miterlimit="10" cx="109.674" cy="109.674" r="10.217"/>
		</g>
	</g>
	<g>
		<g>
			<path fill="#273992" stroke="#273992" stroke-width="6" stroke-miterlimit="10" d="M94.348,211.848H73.913
				c-2.82,0-5.109,2.289-5.109,5.109v20.434c0,2.82,2.289,5.109,5.109,5.109h20.435c2.82,0,5.109-2.289,5.109-5.109v-20.434
				C99.457,214.137,97.167,211.848,94.348,211.848z"/>
		</g>
	</g>
	<g>
		<g>
			<path fill="#273992" stroke="#273992" stroke-width="6" stroke-miterlimit="10" d="M237.391,68.804h-20.434
				c-2.82,0-5.109,2.289-5.109,5.109v20.435c0,2.82,2.289,5.109,5.109,5.109h20.434c2.82,0,5.109-2.289,5.109-5.109V73.913
				C242.5,71.093,240.211,68.804,237.391,68.804z"/>
		</g>
	</g>
	<g>
		<g>
			<path fill="#273992" stroke="#273992" stroke-width="6" stroke-miterlimit="10" d="M216.957,79.021l-8.645-0.021
				c-38.602-0.123-74.936-0.276-102.256,27.056c-27.321,27.332-27.198,63.726-27.056,102.256l0.021,8.645
				c0,2.819,2.289,5.108,5.109,5.108c2.82,0,5.109-2.289,5.109-5.108l-0.021-8.686c-0.143-37.927-0.255-70.673,24.063-94.991
				c24.318-24.317,57.064-24.185,94.991-24.063l8.686,0.021c2.819,0,5.108-2.289,5.108-5.109
				C222.065,81.31,219.776,79.021,216.957,79.021z"/>
		</g>
	</g>
</g>
</svg>
