<?xml version="1.0" encoding="utf-8"?>
<!-- Generator: Adobe Illustrator 16.0.0, SVG Export Plug-In . SVG Version: 6.00 Build 0)  -->
<!DOCTYPE svg PUBLIC "-//W3C//DTD SVG 1.1//EN" "http://www.w3.org/Graphics/SVG/1.1/DTD/svg11.dtd">
<svg version="1.1" id="Icons" xmlns="http://www.w3.org/2000/svg" xmlns:xlink="http://www.w3.org/1999/xlink" x="0px" y="0px"
	 width="512px" height="512px" viewBox="0 0 512 512" enable-background="new 0 0 512 512" xml:space="preserve">
<path fill="#273992" stroke="#273992" stroke-width="22" stroke-miterlimit="10" d="M417.729,64.429H94.271
	c-3.821,0-6.919-3.098-6.919-6.919c0-3.821,3.098-6.919,6.919-6.919h323.459c3.821,0,6.919,3.098,6.919,6.919
	C424.648,61.331,421.551,64.429,417.729,64.429z"/>
<path fill="#273992" d="M305.747,461.423h-20.55c-3.82,0-6.918-3.098-6.918-6.919s3.098-6.919,6.918-6.919h20.55
	c3.821,0,6.919,3.098,6.919,6.919S309.568,461.423,305.747,461.423z"/>
<path fill="#273992" stroke="#273992" stroke-width="22" stroke-miterlimit="10" d="M168.268,461.423H94.305
	c-3.821,0-6.919-3.098-6.919-6.919s3.098-6.919,6.919-6.919h73.963c3.821,0,6.919,3.098,6.919,6.919
	S172.089,461.423,168.268,461.423z"/>
<path fill="#273992" d="M236.766,461.423h-20.065c-3.821,0-6.919-3.098-6.919-6.919s3.098-6.919,6.919-6.919h20.065
	c3.821,0,6.919,3.098,6.919,6.919S240.586,461.423,236.766,461.423z"/>
<path fill="#273992" stroke="#273992" stroke-width="22" stroke-miterlimit="10" d="M417.765,461.423H354.18
	c-3.821,0-6.919-3.098-6.919-6.919s3.098-6.919,6.919-6.919h63.585c3.821,0,6.919,3.098,6.919,6.919
	S421.586,461.423,417.765,461.423z"/>
<path fill="#273992" stroke="#273992" stroke-width="22" stroke-miterlimit="10" d="M57.51,424.648
	c-3.821,0-6.919-3.098-6.919-6.919V94.271c0-3.821,3.098-6.919,6.919-6.919c3.821,0,6.919,3.098,6.919,6.919v323.459
	C64.429,421.551,61.331,424.648,57.51,424.648z"/>
<path fill="#273992" stroke="#273992" stroke-width="22" stroke-miterlimit="10" d="M454.49,424.648
	c-3.821,0-6.919-3.098-6.919-6.919V94.271c0-3.821,3.098-6.919,6.919-6.919s6.919,3.098,6.919,6.919v323.459
	C461.409,421.551,458.312,424.648,454.49,424.648z"/>
<path fill="#273992" stroke="#273992" stroke-width="22" stroke-miterlimit="10" d="M491.243,101.189h-73.514
	c-3.821,0-6.919-3.098-6.919-6.919V20.757c0-3.821,3.098-6.919,6.919-6.919h73.514c3.821,0,6.919,3.098,6.919,6.919v73.514
	C498.162,98.091,495.064,101.189,491.243,101.189z M424.648,87.352h59.676V27.676h-59.676V87.352z"/>
<path fill="#273992" stroke="#273992" stroke-width="22" stroke-miterlimit="10" d="M94.271,101.189H20.757
	c-3.821,0-6.919-3.098-6.919-6.919V20.757c0-3.821,3.098-6.919,6.919-6.919h73.514c3.821,0,6.918,3.098,6.918,6.919v73.514
	C101.189,98.091,98.091,101.189,94.271,101.189z M27.676,87.352h59.676V27.676H27.676V87.352z"/>
<path fill="#273992" stroke="#273992" stroke-width="22" stroke-miterlimit="10" d="M491.243,498.162h-73.514
	c-3.821,0-6.919-3.098-6.919-6.919v-73.514c0-3.821,3.098-6.919,6.919-6.919h73.514c3.821,0,6.919,3.098,6.919,6.919v73.514
	C498.162,495.064,495.064,498.162,491.243,498.162z M424.648,484.324h59.676v-59.676h-59.676V484.324z"/>
<path fill="#273992" stroke="#273992" stroke-width="22" stroke-miterlimit="10" d="M94.271,498.162H20.757
	c-3.821,0-6.919-3.098-6.919-6.919v-73.514c0-3.821,3.098-6.919,6.919-6.919h73.514c3.821,0,6.918,3.098,6.918,6.919v73.514
	C101.189,495.064,98.091,498.162,94.271,498.162z M27.676,484.324h59.676v-59.676H27.676V484.324z"/>
<path fill="#273992" stroke="#273992" stroke-width="22" stroke-miterlimit="10" d="M170.932,362.295
	c-3.821-0.002-6.917-3.102-6.915-6.923c0.001-1.721,0.643-3.38,1.801-4.651l141.776-155.953c2.456-2.699,6.587-3.026,9.438-0.747
	l141.775,113.422c2.99,2.386,3.479,6.745,1.093,9.735c-2.387,2.989-6.745,3.479-9.734,1.093l0,0L313.462,208.882l-137.41,151.151
	C174.74,361.475,172.881,362.296,170.932,362.295L170.932,362.295z"/>
<path fill="#273992" stroke="#273992" stroke-width="22" stroke-miterlimit="10" d="M57.51,301.9c-3.821,0-6.919-3.097-6.92-6.918
	c0-1.891,0.773-3.697,2.139-5.004l85.103-81.38c2.66-2.54,6.842-2.556,9.52-0.035l84.681,79.748
	c2.809,2.591,2.986,6.968,0.395,9.776s-6.968,2.986-9.777,0.395c-0.035-0.031-0.07-0.064-0.104-0.098l-79.934-75.25l-80.342,76.841
	C60.989,301.205,59.285,301.893,57.51,301.9L57.51,301.9z"/>
<path fill="#89DBD4" stroke="#89DBD4" stroke-width="22" stroke-miterlimit="10" d="M205.949,209.221
	c-19.442,0.004-35.207-15.754-35.21-35.197c-0.004-19.442,15.754-35.206,35.196-35.21s35.207,15.754,35.21,35.196
	c0,0.002,0,0.005,0,0.007C241.126,193.449,225.38,209.198,205.949,209.221z M205.949,152.659
	c-11.8-0.004-21.369,9.559-21.373,21.358s9.559,21.369,21.358,21.373s21.369-9.559,21.373-21.358c0-0.005,0-0.009,0-0.014
	C227.296,162.227,217.74,152.67,205.949,152.659z"/>
</svg>
