<?xml version="1.0" encoding="utf-8"?>
<!-- Generator: Adobe Illustrator 16.0.0, SVG Export Plug-In . SVG Version: 6.00 Build 0)  -->
<!DOCTYPE svg PUBLIC "-//W3C//DTD SVG 1.1//EN" "http://www.w3.org/Graphics/SVG/1.1/DTD/svg11.dtd">
<svg version="1.1" id="Layer_1" xmlns="http://www.w3.org/2000/svg" xmlns:xlink="http://www.w3.org/1999/xlink" x="0px" y="0px"
	 width="24px" height="24px" viewBox="0 0 24 24" enable-background="new 0 0 24 24" xml:space="preserve">
<g>
	<path fill-rule="evenodd" clip-rule="evenodd" fill="#273992" stroke="#273992" stroke-width="0.75" stroke-miterlimit="10" d="
		M0.61,2.947c0.372-0.582,0.898-0.794,1.585-0.742c0.589,0.043,1.192,0.072,1.776-0.004c1.302-0.17,2.117,0.321,2.816,1.462
		c1.5,2.449,3.135,4.816,4.763,7.182c0.519,0.754,0.495,1.352-0.012,2.093c-1.723,2.517-3.42,5.053-5.074,7.615
		c-0.496,0.769-1.09,1.096-1.983,1.032c-0.679-0.05-1.376,0.075-2.04-0.034c-0.627-0.104-1.222-0.411-1.831-0.629
		c0-0.297,0-0.593,0-0.89c1.713-2.551,3.438-5.094,5.116-7.667c0.154-0.235,0.141-0.745-0.014-0.99
		c-1.042-1.65-2.134-3.269-3.228-4.884C1.878,5.595,1.237,4.722,0.61,3.837C0.61,3.541,0.61,3.245,0.61,2.947z"/>
	<path fill-rule="evenodd" clip-rule="evenodd" fill="#273992" stroke="#273992" stroke-width="0.75" stroke-miterlimit="10" d="
		M23.39,12.379c-0.74,1.059-1.496,2.109-2.221,3.178c-1.162,1.718-2.318,3.44-3.448,5.179c-0.378,0.582-0.851,0.86-1.543,0.844
		c-0.948-0.024-1.898,0.022-2.846-0.015c-1.224-0.049-1.678-0.925-1.007-1.947c1.545-2.353,3.1-4.7,4.687-7.024
		c0.354-0.516,0.38-0.87,0.011-1.404c-1.562-2.27-3.089-4.563-4.572-6.886c-0.251-0.393-0.382-1.005-0.279-1.449
		c0.151-0.655,0.82-0.651,1.403-0.644c0.859,0.011,1.721,0.038,2.578-0.007c0.742-0.039,1.204,0.267,1.604,0.873
		c1.859,2.817,3.752,5.612,5.633,8.414C23.39,11.787,23.39,12.083,23.39,12.379z"/>
</g>
</svg>
