<?xml version="1.0" encoding="utf-8"?>
<!-- Generator: Adobe Illustrator 16.0.0, SVG Export Plug-In . SVG Version: 6.00 Build 0)  -->
<!DOCTYPE svg PUBLIC "-//W3C//DTD SVG 1.1//EN" "http://www.w3.org/Graphics/SVG/1.1/DTD/svg11.dtd">
<svg version="1.1" id="Layer_1" xmlns="http://www.w3.org/2000/svg" xmlns:xlink="http://www.w3.org/1999/xlink" x="0px" y="0px"
	 width="24px" height="24px" viewBox="0 0 24 24" enable-background="new 0 0 24 24" xml:space="preserve">
<g>
	<path fill="#273992" stroke="#273992" stroke-miterlimit="10" d="M15.453,11.127l2.845,1.394c0.094-0.41,0.282-0.799,0.555-1.135
		l-2.844-1.393C15.914,10.402,15.725,10.791,15.453,11.127z"/>
	<path fill="#273992" stroke="#273992" stroke-miterlimit="10" d="M7.512,15.747c0.121-0.414,0.338-0.801,0.645-1.129L5.059,11.71
		c-0.15,0.204-0.333,0.391-0.546,0.552c-0.136,0.104-0.279,0.192-0.425,0.267L7.512,15.747z"/>
	<path fill="#273992" stroke="#273992" stroke-miterlimit="10" d="M11.94,14.31l0.754-2.196c-0.414-0.085-0.809-0.262-1.154-0.526
		l-0.756,2.194C11.198,13.868,11.595,14.044,11.94,14.31z"/>
	<path fill="#89DBD4" stroke="#89DBD4" stroke-miterlimit="10" d="M11.758,15.369c-0.649-0.85-1.864-1.013-2.716-0.364
		c-0.852,0.65-1.015,1.865-0.366,2.716c0.649,0.85,1.864,1.013,2.716,0.365C12.243,17.437,12.406,16.223,11.758,15.369z"/>
	<ellipse fill="#89DBD4" stroke="#89DBD4" stroke-miterlimit="10" cx="13.263" cy="9.351" rx="1.939" ry="1.939"/>
</g>
<path fill="#273992" stroke="#273992" stroke-miterlimit="10" d="M12,1.379c-5.799,0-10.5,4.702-10.5,10.5h2.333
	c0-4.515,3.652-8.167,8.167-8.167c4.516,0,8.167,3.652,8.167,8.167S16.516,20.046,12,20.046c-2.251,0-4.293-0.921-5.763-2.404
	L4.58,19.299c1.9,1.902,4.515,3.08,7.42,3.08c5.8,0,10.5-4.701,10.5-10.5S17.8,1.379,12,1.379z"/>
</svg>
