<?xml version="1.0" encoding="utf-8"?>
<!-- Generator: Adobe Illustrator 16.0.0, SVG Export Plug-In . SVG Version: 6.00 Build 0)  -->
<!DOCTYPE svg PUBLIC "-//W3C//DTD SVG 1.1//EN" "http://www.w3.org/Graphics/SVG/1.1/DTD/svg11.dtd">
<svg version="1.1" id="Layer_1" xmlns="http://www.w3.org/2000/svg" xmlns:xlink="http://www.w3.org/1999/xlink" x="0px" y="0px"
	 width="24px" height="24px" viewBox="0 0 24 24" enable-background="new 0 0 24 24" xml:space="preserve">
<path fill="#89DBD4" stroke="#89DBD4" stroke-miterlimit="10" d="M20.899,5.4h-4.788v-1.93c0-0.918-0.748-1.666-1.667-1.666H9.556
	c-0.919,0-1.667,0.747-1.667,1.666V5.4H3.101c-1.22,0-2.212,0.993-2.212,2.212c0,1.108-0.114,2.103,0.726,3.222
	c0.476,0.632,1.129,1.084,1.889,1.306l7.379,2.148c0.731,0.212,1.503,0.212,2.235,0l7.379-2.148
	c0.761-0.221,1.413-0.673,1.888-1.306c0.844-1.124,0.727-2.13,0.727-3.222C23.111,6.393,22.119,5.4,20.899,5.4L20.899,5.4z
	 M9.301,3.471c0-0.141,0.115-0.255,0.255-0.255h4.889c0.141,0,0.256,0.114,0.256,0.255V5.4H9.301V3.471z"/>
<path fill="#273992" stroke="#273992" stroke-miterlimit="10" d="M20.892,13.496C12.931,15.813,13.033,15.86,12,15.86
	c-1.026,0-0.784-0.004-8.891-2.364c-0.855-0.249-1.612-0.708-2.22-1.341v6.772c0,1.219,0.992,2.213,2.212,2.213h17.798
	c1.22,0,2.212-0.994,2.212-2.213v-6.772C22.503,12.788,21.747,13.247,20.892,13.496L20.892,13.496z"/>
</svg>
