<?xml version="1.0" encoding="utf-8"?>
<!-- Generator: Adobe Illustrator 16.0.0, SVG Export Plug-In . SVG Version: 6.00 Build 0)  -->
<!DOCTYPE svg PUBLIC "-//W3C//DTD SVG 1.1//EN" "http://www.w3.org/Graphics/SVG/1.1/DTD/svg11.dtd">
<svg version="1.1" id="Layer_1" xmlns="http://www.w3.org/2000/svg" xmlns:xlink="http://www.w3.org/1999/xlink" x="0px" y="0px"
	 width="24px" height="24px" viewBox="0 0 24 24" enable-background="new 0 0 24 24" xml:space="preserve">
<g>
	<path fill="#273992" stroke="#273992" stroke-width="0.25" stroke-miterlimit="10" d="M9.955,8.433L9.51,0.77
		C9.494,0.504,9.699,0.276,9.966,0.262c0.009-0.001,0.017-0.001,0.026-0.001h2.518c0.266,0,0.482,0.216,0.482,0.483
		c0,0.009,0,0.018,0,0.026l-0.447,7.663H9.955z M2.205,23.739h3.152v-3.11c0-0.399,0.324-0.725,0.725-0.725s0.725,0.325,0.725,0.725
		v3.11h5.953v-5.445c0-0.399,0.326-0.724,0.725-0.724c0.4,0,0.725,0.324,0.725,0.724v5.445h1.754v-2.644
		c0-0.399,0.322-0.725,0.725-0.725c0.398,0,0.723,0.325,0.723,0.725v2.644h2.887v-8.288H2.205V23.739z"/>
</g>
<path fill="#89DBD4" stroke="#89DBD4" stroke-miterlimit="10" d="M17.146,9.882H5.355c-1.74,0.002-3.148,1.412-3.15,3.15v0.97
	h18.092v-0.97C20.295,11.293,18.885,9.884,17.146,9.882z"/>
</svg>
