<?xml version="1.0" encoding="utf-8"?>
<!-- Generator: Adobe Illustrator 16.0.0, SVG Export Plug-In . SVG Version: 6.00 Build 0)  -->
<!DOCTYPE svg PUBLIC "-//W3C//DTD SVG 1.1//EN" "http://www.w3.org/Graphics/SVG/1.1/DTD/svg11.dtd">
<svg version="1.1" id="Layer_1" xmlns="http://www.w3.org/2000/svg" xmlns:xlink="http://www.w3.org/1999/xlink" x="0px" y="0px"
	 width="24px" height="24px" viewBox="0 0 24 24" enable-background="new 0 0 24 24" xml:space="preserve">
<g>
	<g>
		<g>
			<path fill="#273992" stroke="#273992" stroke-miterlimit="10" d="M19.999,4.23c-4.194-4.194-11.017-4.194-15.211,0
				c-4.192,4.193-4.192,11.017,0,15.209c2.098,2.098,4.852,3.144,7.606,3.144c2.755,0,5.508-1.046,7.605-3.144
				C24.192,15.247,24.192,8.423,19.999,4.23z M16.829,15.004c0.351,0.35,0.351,0.916,0,1.267c-0.174,0.175-0.404,0.263-0.634,0.263
				c-0.229,0-0.458-0.088-0.633-0.263l-3.169-3.169l-3.167,3.169c-0.176,0.175-0.406,0.263-0.633,0.263
				c-0.23,0-0.459-0.088-0.634-0.263c-0.351-0.352-0.351-0.919,0-1.269l3.168-3.167L7.958,8.666c-0.35-0.35-0.35-0.918,0-1.267
				c0.35-0.351,0.917-0.351,1.268,0l3.168,3.167l3.169-3.167c0.35-0.351,0.917-0.351,1.267,0c0.351,0.348,0.351,0.917,0,1.267
				l-3.168,3.169L16.829,15.004z"/>
		</g>
	</g>
	<rect x="5.577" y="6.289" fill="#273992" stroke="#273992" stroke-miterlimit="10" width="11.87" height="10.75"/>
</g>
<path fill="none" d="M363.055-17.116h24v24h-24V-17.116z"/>
<line fill="#89DBD4" stroke="#89DBD4" stroke-width="2" stroke-miterlimit="10" x1="8.549" y1="7.989" x2="16.237" y2="15.679"/>
<line fill="#89DBD4" stroke="#89DBD4" stroke-width="2" stroke-miterlimit="10" x1="16.237" y1="7.989" x2="8.549" y2="15.679"/>
</svg>
