<?xml version="1.0" encoding="utf-8"?>
<!-- Generator: Adobe Illustrator 16.0.0, SVG Export Plug-In . SVG Version: 6.00 Build 0)  -->
<!DOCTYPE svg PUBLIC "-//W3C//DTD SVG 1.1//EN" "http://www.w3.org/Graphics/SVG/1.1/DTD/svg11.dtd">
<svg version="1.1" id="Layer_1" xmlns="http://www.w3.org/2000/svg" xmlns:xlink="http://www.w3.org/1999/xlink" x="0px" y="0px"
	 width="512px" height="512px" viewBox="0 0 512 512" enable-background="new 0 0 512 512" xml:space="preserve">
<circle fill="#89DBD4" cx="256" cy="249.338" r="78.662"/>
<circle fill="#89DBD4" cx="167.504" cy="432" r="45.664"/>
<path fill="#273992" stroke="#273992" stroke-width="14" stroke-miterlimit="10" d="M436.129,376.063
	c-10.732,0.295-21.172,3.461-30.263,9.149l-66.447-64.688c13.547-17.125,21.348-38.063,22.228-59.85l47.152-4.722
	c9.119,22.961,35.13,34.19,58.09,25.103c22.961-9.15,34.223-35.146,25.072-58.105c-9.09-22.975-35.13-34.206-58.062-25.086
	c-14.839,5.894-25.425,19.236-27.771,35.027l-47.769,3.841c-6.451-33.312-28.563-61.492-59.41-75.699l9.267-25.189h7.8
	c33.166-0.249,59.852-27.345,59.587-60.51c-0.234-33.165-27.329-59.85-60.494-59.601c-33.166,0.249-59.852,27.345-59.602,60.51
	c0.161,21.362,11.655,41.024,30.188,51.64l-8.094,25.673c-7.447-1.701-15.043-2.552-22.667-2.522
	c-24.91,0-47.739,8.886-65.48,23.694l-89.906-90.2c13.093-21.143,6.568-48.912-14.574-62.005
	c-21.142-13.11-48.912-6.585-62.004,14.557C9.862,58.236,16.387,85.991,37.544,99.1c6.979,4.325,15.015,6.656,23.239,6.744
	c8.431-0.029,16.334-2.375,23.034-6.422l89.863,90.2c-14.823,18.444-22.873,41.435-22.814,65.099v6.099l-19.823,3.3
	c-13.034-30.497-48.325-44.646-78.822-31.611c-30.497,13.035-44.646,48.313-31.611,78.808
	c13.035,30.498,48.326,44.689,78.823,31.611c22.109-9.441,36.449-31.142,36.449-55.188l-0.029-1.789l18.914-2.902
	c6.964,24.573,22.608,45.862,44.029,59.82l-16.7,35.658c-5.264-1.555-10.703-2.348-16.187-2.405h-0.513
	c-33.166,0-60.041,26.92-60.026,60.085c0.015,33.165,26.92,60.025,60.085,60.025s60.04-26.92,60.025-60.084
	c0-18.505-8.533-35.951-23.121-47.33l16.992-34.631c10.938,4.398,23.636,6.949,36.904,6.949c25.453,0,48.679-9.354,66.565-24.72
	l65.333,63.75c-19.91,26.538-14.544,64.189,11.993,84.101c26.538,19.883,64.189,14.517,84.071-12.021
	c19.911-26.538,14.544-64.161-11.993-84.102c-10.41-7.771-23.049-11.994-36.039-11.994L436.129,376.063z M165.88,466.146
	c-16.582,0-30.027-13.432-30.027-30.027c0-16.598,13.445-30.027,30.027-30.027c16.583,0,30.027,13.43,30.027,30.027
	C195.907,452.715,182.463,466.146,165.88,466.146z M255.963,331.021c-41.464,0-75.069-33.605-75.069-75.069
	c0-41.464,33.605-75.068,75.069-75.068s75.069,33.604,75.069,75.068C331.032,297.416,297.427,331.021,255.963,331.021z"/>
</svg>
