<?xml version="1.0" encoding="utf-8"?>
<!-- Generator: Adobe Illustrator 16.0.0, SVG Export Plug-In . SVG Version: 6.00 Build 0)  -->
<!DOCTYPE svg PUBLIC "-//W3C//DTD SVG 1.1//EN" "http://www.w3.org/Graphics/SVG/1.1/DTD/svg11.dtd">
<svg version="1.1" id="Layer_1" xmlns="http://www.w3.org/2000/svg" xmlns:xlink="http://www.w3.org/1999/xlink" x="0px" y="0px"
	 width="24px" height="24px" viewBox="0 0 24 24" enable-background="new 0 0 24 24" xml:space="preserve">
<path fill-rule="evenodd" clip-rule="evenodd" fill="#273992" stroke="#273992" stroke-miterlimit="10" d="M22.335,11.991
	c-0.04-5.404-4.245-9.885-9.646-10.237c-0.12-0.007-0.24-0.015-0.364-0.021c-0.395-0.022-0.846-0.033-0.838-0.57
	c0.01-0.539,0.46-0.592,0.855-0.52c1.301,0.24,2.668,0.336,3.88,0.818c6.074,2.419,8.787,9.207,6.165,15.208
	c-2.524,5.787-9.442,8.336-15.279,5.629c-4.123-1.914-6.732-6.334-6.473-10.959C0.889,6.8,3.957,2.72,8.208,1.267
	C8.257,1.25,8.302,1.24,8.349,1.223C8.721,1.087,9.1,1.039,9.248,1.505c0.148,0.467-0.206,0.623-0.574,0.756
	C5.953,3.244,3.935,5.015,2.686,7.64C0.259,12.736,2.563,19.086,7.65,21.326c5.478,2.41,11.655,0.018,13.847-5.385
	c0.234-0.578,0.442-1.182,0.566-1.795C22.211,13.441,22.25,12.711,22.335,11.991z"/>
<path fill-rule="evenodd" clip-rule="evenodd" fill="#273992" stroke="#273992" stroke-miterlimit="10" d="M11.009,8.443
	c0,0.5,0.018,1.002-0.006,1.501c-0.031,0.625-0.412,1.023-1.036,1.041c-1,0.027-2.002,0.028-3.001,0.007
	c-0.643-0.014-1.027-0.387-1.052-1.025c-0.036-1-0.038-2.002-0.013-3.002c0.018-0.682,0.394-1.061,1.072-1.079
	C7.972,5.86,8.975,5.862,9.974,5.899c0.668,0.023,1.014,0.423,1.038,1.11c0.018,0.477,0.003,0.956,0.003,1.434
	C11.013,8.443,11.011,8.443,11.009,8.443z M6.961,9.961c0.917,0,1.797,0.011,2.674-0.01c0.115-0.003,0.32-0.16,0.321-0.25
	c0.023-0.917,0.015-1.835,0.015-2.75c-1.074,0-2.037,0-3.01,0C6.961,7.962,6.961,8.927,6.961,9.961z"/>
<path fill-rule="evenodd" clip-rule="evenodd" fill="#89DBD4" stroke="#89DBD4" stroke-miterlimit="10" d="M9.153,18.126
	c-0.499,0-1,0.02-1.5-0.004c-0.65-0.029-1.016-0.373-1.037-1.022c-0.028-1.002-0.031-2.006-0.001-3.006
	C6.636,13.4,7,13.057,7.697,13.041c0.979-0.019,1.958-0.021,2.935,0.003c0.692,0.015,1.06,0.377,1.076,1.059
	c0.024,0.977,0.022,1.956,0,2.933c-0.013,0.709-0.393,1.064-1.121,1.089C10.109,18.143,9.632,18.129,9.153,18.126z M7.65,17.104
	c0.941,0,1.799,0.022,2.655-0.018c0.135-0.006,0.358-0.266,0.366-0.414c0.038-0.726,0.033-1.453,0.001-2.178
	c-0.007-0.146-0.195-0.403-0.307-0.406c-0.898-0.035-1.799-0.019-2.715-0.019C7.65,15.107,7.65,16.056,7.65,17.104z"/>
<path fill-rule="evenodd" clip-rule="evenodd" fill="#89DBD4" stroke="#89DBD4" stroke-miterlimit="10" d="M16.304,10.994
	c-0.5,0-0.999,0.018-1.499-0.005c-0.649-0.03-1.022-0.38-1.038-1.025c-0.026-1.023-0.026-2.047,0-3.069
	c0.016-0.616,0.384-0.978,0.996-0.995c1.022-0.029,2.046-0.031,3.068,0c0.646,0.019,0.993,0.393,1.009,1.05
	c0.021,0.978,0.02,1.957,0,2.935c-0.013,0.721-0.384,1.083-1.102,1.108C17.261,11.008,16.782,10.996,16.304,10.994z M14.787,6.942
	c0,0.919-0.019,1.799,0.021,2.676c0.006,0.124,0.287,0.325,0.449,0.333c0.703,0.038,1.406,0.039,2.107,0.002
	c0.159-0.009,0.433-0.218,0.44-0.343c0.035-0.877,0.019-1.757,0.019-2.668C16.793,6.942,15.846,6.942,14.787,6.942z"/>
<path fill-rule="evenodd" clip-rule="evenodd" fill="#273992" stroke="#273992" stroke-miterlimit="10" d="M18.849,15.637
	c0,0.477,0.019,0.955-0.006,1.431c-0.031,0.655-0.377,1.032-1.012,1.052c-1.022,0.026-2.046,0.026-3.067,0
	c-0.608-0.017-0.981-0.375-0.997-0.991c-0.023-1.043-0.026-2.091,0.006-3.133c0.019-0.585,0.384-0.933,0.964-0.945
	c1.044-0.027,2.091-0.031,3.135,0.001c0.613,0.02,0.945,0.41,0.969,1.019C18.861,14.593,18.849,15.113,18.849,15.637z
	 M16.283,14.058c-1.493,0.015-1.493,0.015-1.506,1.487c-0.002,0.021-0.002,0.045-0.002,0.069c-0.013,1.498-0.013,1.498,1.505,1.498
	c1.551,0,1.551,0,1.551-1.529C17.831,14.044,17.831,14.044,16.283,14.058z"/>
</svg>
