<?xml version="1.0" encoding="utf-8"?>
<!-- Generator: Adobe Illustrator 16.0.0, SVG Export Plug-In . SVG Version: 6.00 Build 0)  -->
<!DOCTYPE svg PUBLIC "-//W3C//DTD SVG 1.1//EN" "http://www.w3.org/Graphics/SVG/1.1/DTD/svg11.dtd">
<svg version="1.1" id="Layer_1" xmlns="http://www.w3.org/2000/svg" xmlns:xlink="http://www.w3.org/1999/xlink" x="0px" y="0px"
	 width="24px" height="24px" viewBox="0 0 24 24" enable-background="new 0 0 24 24" xml:space="preserve">
<g>
	<g>
		<path fill="#273992" stroke="#273992" stroke-miterlimit="10" d="M19.81,1.284H3.359c-0.48,0-0.869,0.389-0.869,0.869
			c0,0.48,0.389,0.869,0.869,0.869h0.317l0.879,14.965h13.998l0.88-14.965h0.375c0.48,0,0.869-0.389,0.869-0.869
			C20.678,1.673,20.289,1.284,19.81,1.284z M11.559,14.323c-2.262,0-4.102-1.84-4.102-4.102c0-2.262,1.84-4.102,4.102-4.102
			s4.102,1.84,4.102,4.102C15.66,12.483,13.82,14.323,11.559,14.323z"/>
	</g>
</g>
<g>
	<g>
		<path fill="#273992" stroke="#273992" stroke-miterlimit="10" d="M4.659,19.725l0.028,0.47c0.083,1.413,1.258,2.521,2.673,2.521
			h8.391c1.416,0,2.59-1.107,2.674-2.521l0.027-0.47H4.659z"/>
	</g>
</g>
<g>
	<g>
		<path fill="#89DBD4" stroke="#89DBD4" stroke-miterlimit="10" d="M11.559,7.857c-1.304,0-2.365,1.061-2.365,2.364
			c0,1.304,1.061,2.365,2.365,2.365c1.303,0,2.363-1.061,2.363-2.365C13.922,8.917,12.861,7.857,11.559,7.857z"/>
	</g>
</g>
</svg>
