<?xml version="1.0" encoding="utf-8"?>
<!-- Generator: Adobe Illustrator 16.0.0, SVG Export Plug-In . SVG Version: 6.00 Build 0)  -->
<!DOCTYPE svg PUBLIC "-//W3C//DTD SVG 1.1//EN" "http://www.w3.org/Graphics/SVG/1.1/DTD/svg11.dtd">
<svg version="1.1" id="Layer_1" xmlns="http://www.w3.org/2000/svg" xmlns:xlink="http://www.w3.org/1999/xlink" x="0px" y="0px"
	 width="24px" height="24px" viewBox="0 0 24 24" enable-background="new 0 0 24 24" xml:space="preserve">
<path fill="none" d="M0,0h24v24H0V0z"/>
<path fill="#273992" d="M12,0.35C5.569,0.35,0.35,5.569,0.35,12S5.569,23.65,12,23.65S23.65,18.431,23.65,12S18.431,0.35,12,0.35z
	 M7.34,18.407c-1.607,0-2.912-1.305-2.912-2.912s1.305-2.913,2.912-2.913c1.608,0,2.913,1.306,2.913,2.913S8.948,18.407,7.34,18.407
	z M9.087,7.34c0-1.607,1.305-2.912,2.913-2.912s2.912,1.305,2.912,2.912c0,1.608-1.305,2.913-2.912,2.913S9.087,8.948,9.087,7.34z
	 M16.66,18.407c-1.607,0-2.913-1.305-2.913-2.912s1.306-2.913,2.913-2.913s2.912,1.306,2.912,2.913S18.268,18.407,16.66,18.407z"/>
<circle fill="#89DBD4" cx="12" cy="7.164" r="3.191"/>
<circle fill="#89DBD4" cx="7.223" cy="15.501" r="3.191"/>
<circle fill="#89DBD4" cx="16.559" cy="15.501" r="3.191"/>
</svg>
