<?xml version="1.0" encoding="utf-8"?>
<!-- Generator: Adobe Illustrator 16.0.0, SVG Export Plug-In . SVG Version: 6.00 Build 0)  -->
<!DOCTYPE svg PUBLIC "-//W3C//DTD SVG 1.1//EN" "http://www.w3.org/Graphics/SVG/1.1/DTD/svg11.dtd">
<svg version="1.1" id="Layer_1" xmlns="http://www.w3.org/2000/svg" xmlns:xlink="http://www.w3.org/1999/xlink" x="0px" y="0px"
	 width="24px" height="24px" viewBox="0 0 24 24" enable-background="new 0 0 24 24" xml:space="preserve">
<g>
	<g>
		<path fill="#273992" stroke="#273992" stroke-width="0.5" stroke-miterlimit="10" d="M12,0.417C5.612,0.417,0.417,5.613,0.417,12
			c0,6.388,5.196,11.584,11.583,11.584S23.584,18.389,23.584,12C23.584,5.613,18.388,0.417,12,0.417z M12,21.707
			c-5.352,0-9.707-4.355-9.707-9.707S6.647,2.294,12,2.294S21.707,6.647,21.707,12C21.706,17.352,17.352,21.707,12,21.707z"/>
		<path fill="#89DBD4" stroke="#89DBD4" stroke-miterlimit="10" d="M12,4.868c-3.934,0-7.132,3.2-7.132,7.132
			S8.066,19.133,12,19.133c3.933,0,7.131-3.201,7.131-7.133C19.133,8.068,15.932,4.868,12,4.868z M12,17.255
			c-2.898,0-5.255-2.357-5.255-5.255S9.103,6.744,12,6.744c2.896,0,5.255,2.357,5.255,5.255S14.896,17.255,12,17.255z"/>
		<circle fill="#273992" stroke="#273992" stroke-width="0.5" stroke-miterlimit="10" cx="12" cy="12" r="2.761"/>
	</g>
</g>
</svg>
