<?xml version="1.0" encoding="utf-8"?>
<!-- Generator: Adobe Illustrator 16.0.0, SVG Export Plug-In . SVG Version: 6.00 Build 0)  -->
<!DOCTYPE svg PUBLIC "-//W3C//DTD SVG 1.1//EN" "http://www.w3.org/Graphics/SVG/1.1/DTD/svg11.dtd">
<svg version="1.1" id="Layer_1" xmlns="http://www.w3.org/2000/svg" xmlns:xlink="http://www.w3.org/1999/xlink" x="0px" y="0px"
	 width="24px" height="24px" viewBox="0 0 24 24" enable-background="new 0 0 24 24" xml:space="preserve">
<path fill="none" d="M363.055-17.116h24v24h-24V-17.116z"/>
<path fill="#89DBD4" stroke="#89DBD4" stroke-width="0.75" stroke-miterlimit="10" d="M5.31,7.609c0-2.19,1.782-3.973,3.972-3.973
	h7.638c-0.274-0.962-1.152-1.672-2.202-1.672H5.1c-1.269,0-2.3,1.031-2.3,2.3v12.963c0,1.269,1.031,2.3,2.3,2.3H5.31V7.609z"/>
<path fill="#273992" stroke="#273992" stroke-miterlimit="10" d="M18.899,5.31H9.282c-1.269,0-2.3,1.031-2.3,2.3v12.127
	c0,1.269,1.031,2.3,2.3,2.3h9.618c1.269,0,2.3-1.031,2.3-2.3V7.609C21.199,6.34,20.168,5.31,18.899,5.31z M17.228,19.527h-6.272
	c-0.347,0-0.627-0.281-0.627-0.628c0-0.346,0.281-0.627,0.627-0.627h6.272c0.347,0,0.627,0.281,0.627,0.627
	C17.854,19.246,17.574,19.527,17.228,19.527z M17.228,16.182h-6.272c-0.347,0-0.627-0.281-0.627-0.627s0.281-0.627,0.627-0.627
	h6.272c0.347,0,0.627,0.281,0.627,0.627S17.574,16.182,17.228,16.182z M17.228,13.254h-6.272c-0.347,0-0.627-0.281-0.627-0.627
	S10.608,12,10.955,12h6.272c0.347,0,0.627,0.281,0.627,0.627S17.574,13.254,17.228,13.254z M17.228,9.909h-6.272
	c-0.347,0-0.627-0.281-0.627-0.627c0-0.346,0.281-0.627,0.627-0.627h6.272c0.347,0,0.627,0.281,0.627,0.627
	C17.854,9.628,17.574,9.909,17.228,9.909z"/>
</svg>
