<?xml version="1.0" encoding="utf-8"?>
<!-- Generator: Adobe Illustrator 16.0.0, SVG Export Plug-In . SVG Version: 6.00 Build 0)  -->
<!DOCTYPE svg PUBLIC "-//W3C//DTD SVG 1.1//EN" "http://www.w3.org/Graphics/SVG/1.1/DTD/svg11.dtd">
<svg version="1.1" id="Layer_1" xmlns="http://www.w3.org/2000/svg" xmlns:xlink="http://www.w3.org/1999/xlink" x="0px" y="0px"
	 width="24px" height="24px" viewBox="0 0 24 24" enable-background="new 0 0 24 24" xml:space="preserve">
<g>
	<path fill="#273992" stroke="#273992" stroke-miterlimit="10" d="M13.215,11.783H12.5v-0.716c0-0.395-0.321-0.715-0.715-0.715
		s-0.715,0.32-0.715,0.715v0.716h-0.716c-0.395,0-0.715,0.32-0.715,0.715c0,0.394,0.321,0.716,0.715,0.716h0.716v0.715
		c0,0.395,0.321,0.715,0.715,0.715s0.715-0.32,0.715-0.715v-0.715h0.715c0.395,0,0.717-0.322,0.717-0.716
		C13.932,12.104,13.609,11.783,13.215,11.783z"/>
	<circle fill="#273992" stroke="#273992" stroke-miterlimit="10" cx="11.785" cy="8.205" r="0.715"/>
	<circle fill="#89DBD4" stroke="#89DBD4" stroke-miterlimit="10" cx="11.785" cy="5.343" r="0.716"/>
	<circle fill="#273992" stroke="#273992" stroke-miterlimit="10" cx="11.785" cy="2.481" r="0.716"/>
	<circle fill="#273992" stroke="#273992" stroke-miterlimit="10" cx="11.785" cy="22.518" r="0.715"/>
	<circle fill="#89DBD4" stroke="#89DBD4" stroke-miterlimit="10" cx="11.785" cy="19.655" r="0.716"/>
	<circle fill="#273992" stroke="#273992" stroke-miterlimit="10" cx="11.785" cy="16.792" r="0.716"/>
	<circle fill="#273992" stroke="#273992" stroke-miterlimit="10" cx="16.078" cy="12.499" r="0.716"/>
	<circle fill="#273992" stroke="#273992" stroke-miterlimit="10" cx="14.646" cy="9.636" r="0.716"/>
	<circle fill="#89DBD4" stroke="#89DBD4" stroke-miterlimit="10" cx="17.51" cy="6.774" r="0.716"/>
	<circle fill="#273992" stroke="#273992" stroke-miterlimit="10" cx="20.371" cy="3.912" r="0.716"/>
	<circle fill="#273992" stroke="#273992" stroke-miterlimit="10" cx="3.198" cy="21.087" r="0.716"/>
	<circle fill="#89DBD4" stroke="#89DBD4" stroke-miterlimit="10" cx="6.061" cy="18.224" r="0.716"/>
	<circle fill="#273992" stroke="#273992" stroke-miterlimit="10" cx="8.923" cy="15.36" r="0.716"/>
	<circle fill="#273992" stroke="#273992" stroke-miterlimit="10" cx="14.646" cy="15.36" r="0.716"/>
	<circle fill="#89DBD4" stroke="#89DBD4" stroke-miterlimit="10" cx="17.51" cy="18.223" r="0.715"/>
	<circle fill="#273992" stroke="#273992" stroke-miterlimit="10" cx="20.371" cy="21.085" r="0.716"/>
	<circle fill="#273992" stroke="#273992" stroke-miterlimit="10" cx="3.198" cy="3.912" r="0.716"/>
	<circle fill="#89DBD4" stroke="#89DBD4" stroke-miterlimit="10" cx="6.061" cy="6.774" r="0.716"/>
	<circle fill="#273992" stroke="#273992" stroke-miterlimit="10" cx="8.923" cy="9.636" r="0.716"/>
	<circle fill="#89DBD4" stroke="#89DBD4" stroke-miterlimit="10" cx="18.941" cy="12.499" r="0.716"/>
	<circle fill="#273992" stroke="#273992" stroke-miterlimit="10" cx="21.803" cy="12.499" r="0.716"/>
	<circle fill="#273992" stroke="#273992" stroke-miterlimit="10" cx="1.767" cy="12.499" r="0.716"/>
	<circle fill="#89DBD4" stroke="#89DBD4" stroke-miterlimit="10" cx="4.63" cy="12.499" r="0.716"/>
	<circle fill="#273992" stroke="#273992" stroke-miterlimit="10" cx="7.492" cy="12.499" r="0.716"/>
</g>
</svg>
