<?xml version="1.0" encoding="utf-8"?>
<!-- Generator: Adobe Illustrator 16.0.0, SVG Export Plug-In . SVG Version: 6.00 Build 0)  -->
<!DOCTYPE svg PUBLIC "-//W3C//DTD SVG 1.1//EN" "http://www.w3.org/Graphics/SVG/1.1/DTD/svg11.dtd">
<svg version="1.1" id="Layer_1" xmlns="http://www.w3.org/2000/svg" xmlns:xlink="http://www.w3.org/1999/xlink" x="0px" y="0px"
	 width="24px" height="24px" viewBox="0 0 24 24" enable-background="new 0 0 24 24" xml:space="preserve">
<g>
	<g>
		<path fill="#4252A0" stroke="#89DBD4" stroke-miterlimit="10" d="M9.036,7.011c-1.304,0-2.365,1.061-2.365,2.364
			c0,1.304,1.061,2.365,2.365,2.365c1.303,0,2.363-1.061,2.363-2.365C11.399,8.071,10.339,7.011,9.036,7.011z"/>
	</g>
</g>
<g>
	<g>
		<path fill="#4252A0" stroke="#89DBD4" stroke-miterlimit="10" d="M13.765,11.74c-1.304,0-2.365,1.061-2.365,2.363
			c0,1.305,1.062,2.365,2.365,2.365c1.303,0,2.363-1.061,2.363-2.365C16.128,12.801,15.067,11.74,13.765,11.74z"/>
	</g>
</g>
<g>
	<g>
		<path fill="#4252A0" stroke="#89DBD4" stroke-miterlimit="10" d="M18.493,16.99c-1.304,0-2.364,1.061-2.364,2.363
			c0,1.305,1.061,2.365,2.364,2.365c1.303,0,2.363-1.061,2.363-2.365C20.856,18.051,19.796,16.99,18.493,16.99z"/>
	</g>
</g>
<g>
	<g>
		<path fill="#4252A0" stroke="#89DBD4" stroke-miterlimit="10" d="M4.308,2.282c-1.304,0-2.365,1.061-2.365,2.364
			c0,1.304,1.061,2.365,2.365,2.365c1.303,0,2.363-1.061,2.363-2.365C6.671,3.342,5.611,2.282,4.308,2.282z"/>
	</g>
</g>
<g>
	<g>
		<path fill="#4252A0" stroke="#89DBD4" stroke-miterlimit="10" d="M16.129,5.428c-1.304,0-2.365,1.061-2.365,2.364
			c0,1.304,1.062,2.365,2.365,2.365c1.303,0,2.363-1.061,2.363-2.365C18.492,6.488,17.432,5.428,16.129,5.428z"/>
	</g>
</g>
<g>
	<g>
		<path fill="#4252A0" stroke="#89DBD4" stroke-miterlimit="10" d="M20.857,10.157c-1.304,0-2.365,1.061-2.365,2.363
			c0,1.305,1.062,2.365,2.365,2.365c1.303,0,2.363-1.061,2.363-2.365C23.221,11.218,22.16,10.157,20.857,10.157z"/>
	</g>
</g>
<g>
	<g>
		<path fill="#4252A0" stroke="#89DBD4" stroke-miterlimit="10" d="M11.401,0.699c-1.304,0-2.365,1.061-2.365,2.364
			c0,1.304,1.061,2.365,2.365,2.365c1.302,0,2.362-1.061,2.362-2.365C13.764,1.759,12.703,0.699,11.401,0.699z"/>
	</g>
</g>
<g>
	<g>
		<path fill="#4252A0" stroke="#89DBD4" stroke-miterlimit="10" d="M7.509,14.104c-1.304,0-2.365,1.061-2.365,2.363
			c0,1.305,1.062,2.365,2.365,2.365c1.303,0,2.363-1.061,2.363-2.365C9.872,15.165,8.812,14.104,7.509,14.104z"/>
	</g>
</g>
<g>
	<g>
		<path fill="#4252A0" stroke="#89DBD4" stroke-miterlimit="10" d="M12.237,18.833c-1.304,0-2.365,1.061-2.365,2.363
			c0,1.305,1.062,2.365,2.365,2.365c1.302,0,2.362-1.061,2.362-2.365C14.6,19.894,13.539,18.833,12.237,18.833z"/>
	</g>
</g>
<g>
	<g>
		<path fill="#4252A0" stroke="#89DBD4" stroke-miterlimit="10" d="M2.781,9.375c-1.304,0-2.365,1.061-2.365,2.364
			c0,1.305,1.061,2.365,2.365,2.365c1.302,0,2.362-1.061,2.362-2.365C5.144,10.436,4.083,9.375,2.781,9.375z"/>
	</g>
</g>
<image overflow="visible" width="1366" height="768" xlink:href="E9B9C062.jpg"  transform="matrix(1 0 0 1 214.957 -229.0068)">
</image>
</svg>
