<?xml version="1.0" encoding="utf-8"?>
<!-- Generator: Adobe Illustrator 16.0.0, SVG Export Plug-In . SVG Version: 6.00 Build 0)  -->
<!DOCTYPE svg PUBLIC "-//W3C//DTD SVG 1.1//EN" "http://www.w3.org/Graphics/SVG/1.1/DTD/svg11.dtd">
<svg version="1.1" id="Layer_1" xmlns="http://www.w3.org/2000/svg" xmlns:xlink="http://www.w3.org/1999/xlink" x="0px" y="0px"
	 width="24px" height="24px" viewBox="0 0 24 24" enable-background="new 0 0 24 24" xml:space="preserve">
<path fill-rule="evenodd" clip-rule="evenodd" fill="#273992" stroke="#273992" stroke-miterlimit="10" d="M10.379,6.796
	c0,0.732,0.027,1.465-0.008,2.195c-0.046,0.915-0.603,1.497-1.515,1.522c-1.462,0.04-2.928,0.041-4.39,0.011
	c-0.94-0.021-1.502-0.566-1.538-1.499c-0.052-1.462-0.055-2.929-0.02-4.391c0.026-0.997,0.577-1.552,1.568-1.579
	c1.461-0.039,2.928-0.035,4.389,0.02c0.978,0.034,1.483,0.619,1.518,1.624c0.026,0.698,0.004,1.397,0.004,2.097
	C10.386,6.796,10.382,6.796,10.379,6.796z M4.459,9.017c1.341,0,2.628,0.016,3.911-0.015c0.168-0.005,0.468-0.234,0.47-0.366
	c0.034-1.342,0.021-2.685,0.021-4.021c-1.57,0-2.979,0-4.402,0C4.459,6.092,4.459,7.503,4.459,9.017z"/>
<path fill-rule="evenodd" clip-rule="evenodd" fill="#89DBD4" stroke="#89DBD4" stroke-miterlimit="10" d="M7.665,20.958
	c-0.73,0-1.463,0.028-2.193-0.006c-0.952-0.043-1.486-0.546-1.516-1.495c-0.042-1.466-0.046-2.934-0.001-4.396
	c0.03-1.014,0.562-1.517,1.581-1.54c1.431-0.026,2.864-0.029,4.292,0.005c1.012,0.021,1.55,0.551,1.574,1.548
	c0.035,1.429,0.032,2.861,0.001,4.289c-0.019,1.037-0.574,1.557-1.639,1.593C9.063,20.982,8.365,20.962,7.665,20.958z M5.466,19.463
	c1.376,0,2.632,0.032,3.884-0.026c0.197-0.009,0.524-0.389,0.535-0.605c0.056-1.062,0.049-2.125,0.001-3.185
	c-0.011-0.215-0.286-0.59-0.449-0.595c-1.313-0.051-2.631-0.027-3.971-0.027C5.466,16.543,5.466,17.93,5.466,19.463z"/>
<path fill-rule="evenodd" clip-rule="evenodd" fill="#89DBD4" stroke="#89DBD4" stroke-miterlimit="10" d="M18.123,10.527
	c-0.731,0-1.461,0.026-2.192-0.007c-0.949-0.043-1.495-0.556-1.518-1.5c-0.039-1.496-0.039-2.994,0-4.489
	c0.022-0.901,0.561-1.43,1.456-1.455c1.496-0.042,2.992-0.045,4.488,0c0.944,0.027,1.452,0.574,1.476,1.536
	c0.031,1.43,0.028,2.861,0,4.292c-0.019,1.054-0.562,1.584-1.611,1.621C19.523,10.548,18.823,10.529,18.123,10.527z M15.905,4.601
	c0,1.344-0.027,2.631,0.03,3.914c0.008,0.181,0.42,0.475,0.656,0.487c1.029,0.055,2.058,0.056,3.083,0.003
	c0.232-0.014,0.633-0.318,0.644-0.502c0.052-1.283,0.027-2.569,0.027-3.903C18.839,4.601,17.453,4.601,15.905,4.601z"/>
<path fill-rule="evenodd" clip-rule="evenodd" fill="#273992" stroke="#273992" stroke-miterlimit="10" d="M21.846,17.317
	c0,0.697,0.027,1.396-0.009,2.093c-0.046,0.958-0.552,1.509-1.479,1.538c-1.496,0.038-2.992,0.038-4.486,0
	c-0.89-0.024-1.436-0.549-1.458-1.45c-0.035-1.525-0.039-3.058,0.008-4.582c0.027-0.855,0.562-1.364,1.41-1.383
	c1.526-0.039,3.058-0.045,4.585,0.002c0.896,0.028,1.383,0.6,1.417,1.489C21.864,15.79,21.846,16.552,21.846,17.317z M18.094,15.008
	c-2.185,0.021-2.185,0.021-2.203,2.175c-0.003,0.032-0.003,0.066-0.003,0.102c-0.019,2.191-0.019,2.191,2.201,2.191
	c2.269,0,2.269,0,2.269-2.237C20.357,14.987,20.357,14.987,18.094,15.008z"/>
</svg>
