<?xml version="1.0" encoding="utf-8"?>
<!-- Generator: Adobe Illustrator 16.0.0, SVG Export Plug-In . SVG Version: 6.00 Build 0)  -->
<!DOCTYPE svg PUBLIC "-//W3C//DTD SVG 1.1//EN" "http://www.w3.org/Graphics/SVG/1.1/DTD/svg11.dtd">
<svg version="1.1" id="Layer_1" xmlns="http://www.w3.org/2000/svg" xmlns:xlink="http://www.w3.org/1999/xlink" x="0px" y="0px"
	 width="24px" height="24px" viewBox="0 0 24 24" enable-background="new 0 0 24 24" xml:space="preserve">
<path fill="none" d="M-2.193-2.193h28.387v28.387H-2.193V-2.193z"/>
<path fill="#273992" stroke="#273992" stroke-miterlimit="10" d="M9.094,17.141L3.953,12l5.141-5.141L7.53,5.294L0.824,12
	l6.706,6.706L9.094,17.141z M14.906,17.141L20.048,12l-5.142-5.141l1.564-1.565L23.177,12l-6.706,6.706L14.906,17.141z"/>
<path fill="#89DBD4" stroke="#89DBD4" stroke-miterlimit="10" d="M9.094,18.053l-5.141-5.141l5.141-5.142L7.53,6.206l-6.706,6.707
	l6.706,6.705L9.094,18.053z M14.906,18.053l5.142-5.141l-5.142-5.142l1.564-1.565l6.706,6.707l-6.706,6.705L14.906,18.053z"/>
</svg>
