<?xml version="1.0" encoding="utf-8"?>
<!-- Generator: Adobe Illustrator 16.0.0, SVG Export Plug-In . SVG Version: 6.00 Build 0)  -->
<!DOCTYPE svg PUBLIC "-//W3C//DTD SVG 1.1//EN" "http://www.w3.org/Graphics/SVG/1.1/DTD/svg11.dtd">
<svg version="1.1" id="Layer_1" xmlns="http://www.w3.org/2000/svg" xmlns:xlink="http://www.w3.org/1999/xlink" x="0px" y="0px"
	 width="24px" height="24px" viewBox="0 0 24 24" enable-background="new 0 0 24 24" xml:space="preserve">
<path fill="#273992" stroke="#273992" stroke-width="0.5" stroke-miterlimit="10" d="M22.826,0.787H1.92
	c-0.207,0-0.374,0.167-0.374,0.373v3.733h0.747v-3.36H5.28V3.4c0,0.206,0.167,0.373,0.374,0.373H8.64
	c0.206,0,0.373-0.167,0.373-0.373V1.533H12v3.36h0.746v-3.36h2.987V3.4c0,0.206,0.167,0.373,0.374,0.373h2.985
	c0.207,0,0.374-0.167,0.374-0.373V1.533h2.987v6.721h-6.347c-0.207,0-0.374,0.167-0.374,0.373v2.24c0,0.206,0.167,0.373,0.374,0.373
	h2.985c0.207,0,0.374-0.167,0.374-0.373V9h2.987v6.72h-4.107v0.748h4.479c0.207,0,0.374-0.168,0.374-0.374V1.16
	C23.2,0.954,23.033,0.787,22.826,0.787z M8.267,3.027h-2.24V1.533h2.24V3.027z M18.721,3.027h-2.241V1.533h2.241V3.027z
	 M18.721,10.494h-2.241V9h2.241V10.494z"/>
<path fill="#273992" stroke="#273992" stroke-width="0.5" stroke-miterlimit="10" d="M20.96,6.76h0.747v0.747H20.96V6.76z"/>
<path fill="#273992" stroke="#273992" stroke-width="0.5" stroke-miterlimit="10" d="M19.467,6.76h0.746v0.747h-0.746V6.76z"/>
<path fill="#273992" stroke="#273992" stroke-width="0.5" stroke-miterlimit="10" d="M20.96,14.228h0.747v0.747H20.96V14.228z"/>
<path fill="#273992" stroke="#273992" stroke-width="0.5" stroke-miterlimit="10" d="M19.467,14.228h0.746v0.747h-0.746V14.228z"/>
<path fill="#273992" stroke="#273992" stroke-width="0.5" stroke-miterlimit="10" d="M17.6,14.975c0-0.826-0.669-1.493-1.492-1.495
	h-1.12V6.013c0-0.206-0.168-0.373-0.374-0.373H1.173C0.967,5.64,0.8,5.807,0.8,6.013v16.428c0,0.206,0.167,0.372,0.374,0.372h13.44
	c0.206,0,0.374-0.166,0.374-0.372v-0.966l1.229,1.229l0.527-0.527l-2.24-2.24c-0.678-0.68-0.678-1.779,0-2.459
	c0.146-0.146,0.146-0.381,0-0.527l-1.68-1.681c-0.163-0.164-0.163-0.428,0-0.592c0.163-0.163,0.428-0.163,0.592,0l1.681,1.681
	l0.527-0.529l-0.637-0.636v-0.966h1.12c0.412,0,0.745,0.333,0.746,0.747v3.359c0,0.099,0.039,0.193,0.109,0.265l1.867,1.866
	l0.527-0.528L17.6,18.18V14.975z M5.653,6.387h4.48v1.307c0,0.103-0.084,0.186-0.187,0.186H5.84c-0.104,0-0.187-0.083-0.187-0.186
	V6.387z M13.944,14.15c-0.453-0.457-1.191-0.461-1.648-0.007c-0.457,0.452-0.46,1.19-0.007,1.647
	c0.002,0.002,0.004,0.004,0.007,0.008l1.435,1.435c-0.727,0.989-0.622,2.362,0.245,3.231l0.264,0.263v1.34H1.546V6.387h3.36v0.747
	h-2.24c-0.206,0-0.374,0.167-0.374,0.373v13.439c0,0.206,0.167,0.374,0.374,0.374H13.12v-0.746H3.04V7.88h1.885
	C5.015,8.314,5.396,8.626,5.84,8.627h4.106c0.444,0,0.826-0.313,0.915-0.747h1.885v5.228h0.747V7.507
	c0-0.206-0.167-0.373-0.373-0.373h-2.24V6.387h3.36v8.059L13.944,14.15z"/>
<path fill="#273992" stroke="#273992" stroke-width="0.5" stroke-miterlimit="10" d="M4.907,11.459l-0.483-0.482l-0.528,0.527
	l0.747,0.747c0.146,0.146,0.382,0.146,0.528,0l1.494-1.494L6.136,10.23L4.907,11.459z"/>
<path fill="#273992" stroke="#273992" stroke-width="0.5" stroke-miterlimit="10" d="M4.907,14.446l-0.483-0.483l-0.528,0.528
	l0.747,0.746c0.146,0.146,0.382,0.146,0.528,0l1.494-1.493l-0.528-0.527L4.907,14.446z"/>
<path fill="#273992" stroke="#273992" stroke-width="0.5" stroke-miterlimit="10" d="M4.907,17.432L4.424,16.95l-0.528,0.527
	l0.747,0.747c0.146,0.146,0.382,0.146,0.528,0l1.494-1.493l-0.528-0.528L4.907,17.432z"/>
<path fill="#273992" stroke="#273992" stroke-width="0.5" stroke-miterlimit="10" d="M7.52,10.121h4.106v0.747H7.52V10.121z"/>
<path fill="#273992" stroke="#273992" stroke-width="0.5" stroke-miterlimit="10" d="M7.52,11.613h3.36v0.747H7.52V11.613z"/>
<path fill="#273992" stroke="#273992" stroke-width="0.5" stroke-miterlimit="10" d="M7.52,13.107h4.106v0.746H7.52V13.107z"/>
<path fill="#273992" stroke="#273992" stroke-width="0.5" stroke-miterlimit="10" d="M7.52,14.601h3.36v0.746H7.52V14.601z"/>
<path fill="#273992" stroke="#273992" stroke-width="0.5" stroke-miterlimit="10" d="M7.52,16.094h4.106v0.747H7.52V16.094z"/>
<path fill="#273992" stroke="#273992" stroke-width="0.5" stroke-miterlimit="10" d="M7.52,17.587h3.36v0.747H7.52V17.587z"/>
</svg>
