<?xml version="1.0" encoding="utf-8"?>
<!-- Generator: Adobe Illustrator 16.0.0, SVG Export Plug-In . SVG Version: 6.00 Build 0)  -->
<!DOCTYPE svg PUBLIC "-//W3C//DTD SVG 1.1//EN" "http://www.w3.org/Graphics/SVG/1.1/DTD/svg11.dtd">
<svg version="1.1" id="Layer_1" xmlns="http://www.w3.org/2000/svg" xmlns:xlink="http://www.w3.org/1999/xlink" x="0px" y="0px"
	 width="24px" height="24px" viewBox="0 0 24 24" enable-background="new 0 0 24 24" xml:space="preserve">
<path fill="none" d="M363.055-17.116h24v24h-24V-17.116z"/>
<g>
	<g>
		<path fill="#273992" stroke="#273992" stroke-miterlimit="10" d="M23.501,5.725c-1.063-1.517-3.175-1.917-4.694-0.855L11,10.336
			L8.162,8.349c1.056-1.825,0.56-4.187-1.2-5.418c-1.859-1.301-4.42-0.85-5.721,1.008C-0.06,5.797,0.392,8.358,2.25,9.66
			c1.275,0.893,2.881,0.96,4.184,0.314l3.477,2.434l-3.477,2.434c-1.303-0.646-2.909-0.578-4.184,0.314
			c-1.859,1.301-2.31,3.862-1.009,5.719c1.301,1.859,3.862,2.31,5.721,1.01c1.759-1.232,2.255-3.593,1.2-5.418L11,14.479
			l7.806,5.465c1.518,1.062,3.632,0.663,4.694-0.855l-9.543-6.681L23.501,5.725z M4.615,8.434c-1.176,0-2.129-0.954-2.129-2.13
			c0-1.176,0.953-2.129,2.129-2.129c1.176,0,2.129,0.953,2.129,2.129C6.744,7.48,5.791,8.434,4.615,8.434z M4.615,20.642
			c-1.176,0-2.129-0.953-2.129-2.131c0-1.176,0.953-2.129,2.129-2.129c1.176,0,2.129,0.953,2.129,2.129
			C6.744,19.688,5.791,20.642,4.615,20.642z"/>
	</g>
</g>
<g>
	<g>
		
			<rect x="16.965" y="11.84" fill="#89DBD4" stroke="#89DBD4" stroke-width="0.75" stroke-miterlimit="10" width="1.987" height="1.42"/>
	</g>
</g>
<g>
	<g>
		
			<rect x="20.372" y="11.84" fill="#89DBD4" stroke="#89DBD4" stroke-width="0.75" stroke-miterlimit="10" width="1.986" height="1.42"/>
	</g>
</g>
</svg>
