<?xml version="1.0" encoding="utf-8"?>
<!-- Generator: Adobe Illustrator 16.0.0, SVG Export Plug-In . SVG Version: 6.00 Build 0)  -->
<!DOCTYPE svg PUBLIC "-//W3C//DTD SVG 1.1//EN" "http://www.w3.org/Graphics/SVG/1.1/DTD/svg11.dtd">
<svg version="1.1" id="Layer_1" xmlns="http://www.w3.org/2000/svg" xmlns:xlink="http://www.w3.org/1999/xlink" x="0px" y="0px"
	 width="24px" height="24px" viewBox="0 0 24 24" enable-background="new 0 0 24 24" xml:space="preserve">
<path fill="none" d="M0,0h24v24H0V0z"/>
<g>
	<rect x="8.382" y="18.674" fill="#273992" stroke="#273992" stroke-miterlimit="10" width="1.855" height="1.146"/>
	<rect x="4.501" y="18.674" fill="#273992" stroke="#273992" stroke-miterlimit="10" width="2.026" height="1.146"/>
	<rect x="0.792" y="18.674" fill="#273992" stroke="#273992" stroke-miterlimit="10" width="1.855" height="1.146"/>
	<rect x="0.792" y="5.176" fill="#273992" stroke="#273992" stroke-miterlimit="10" width="1.147" height="1.855"/>
	<rect x="0.792" y="8.886" fill="#273992" stroke="#273992" stroke-miterlimit="10" width="1.147" height="1.855"/>
	<rect x="12.092" y="18.674" fill="#273992" stroke="#273992" stroke-miterlimit="10" width="1.855" height="1.146"/>
	<rect x="0.792" y="12.597" fill="#273992" stroke="#273992" stroke-miterlimit="10" width="1.147" height="1.854"/>
	<rect x="0.792" y="16.307" fill="#273992" stroke="#273992" stroke-miterlimit="10" width="1.147" height="1.854"/>
	<rect x="2.647" y="5.176" fill="#273992" stroke="#273992" stroke-miterlimit="10" width="1.855" height="1.171"/>
	<rect x="15.802" y="18.674" fill="#273992" stroke="#273992" stroke-miterlimit="10" width="1.855" height="1.146"/>
	<rect x="21.88" y="6.666" fill="#273992" stroke="#273992" stroke-miterlimit="10" width="1.146" height="1.855"/>
	<rect x="21.172" y="5.176" fill="#273992" stroke="#273992" stroke-miterlimit="10" width="1.855" height="1.171"/>
	<rect x="21.88" y="14.085" fill="#273992" stroke="#273992" stroke-miterlimit="10" width="1.146" height="1.855"/>
	<rect x="21.88" y="10.375" fill="#273992" stroke="#273992" stroke-miterlimit="10" width="1.146" height="1.854"/>
	<rect x="17.462" y="5.176" fill="#273992" stroke="#273992" stroke-miterlimit="10" width="1.855" height="1.171"/>
	<rect x="21.88" y="17.795" fill="#273992" stroke="#273992" stroke-miterlimit="10" width="1.146" height="2.025"/>
	<rect x="19.513" y="18.674" fill="#273992" stroke="#273992" stroke-miterlimit="10" width="1.854" height="1.146"/>
</g>
</svg>
