<?xml version="1.0" encoding="utf-8"?>
<!-- Generator: Adobe Illustrator 16.0.0, SVG Export Plug-In . SVG Version: 6.00 Build 0)  -->
<!DOCTYPE svg PUBLIC "-//W3C//DTD SVG 1.1//EN" "http://www.w3.org/Graphics/SVG/1.1/DTD/svg11.dtd">
<svg version="1.1" id="Layer_1" xmlns="http://www.w3.org/2000/svg" xmlns:xlink="http://www.w3.org/1999/xlink" x="0px" y="0px"
	 width="24px" height="24px" viewBox="0 0 24 24" enable-background="new 0 0 24 24" xml:space="preserve">
<g>
	<path fill="#273992" stroke="#273992" stroke-miterlimit="10" d="M9.979,5.516C6.698,6.165,4.056,8.61,3.123,11.78
		c1.081-0.713,2.705-1.516,4.957-1.953C8.578,7.886,9.332,6.465,9.979,5.516z"/>
	<path fill="#89DBD4" stroke="#89DBD4" stroke-miterlimit="10" d="M9.03,14.383c0,0.639,0.031,1.234,0.087,1.793
		c0.809,0.125,1.702,0.199,2.683,0.199c0.912,0,1.744-0.064,2.503-0.174c0.066-0.613,0.106-1.273,0.106-1.975
		c0-1.141-0.1-2.158-0.263-3.056c-0.763-0.109-1.598-0.174-2.507-0.174c-0.837,0-1.607,0.055-2.314,0.148
		C9.145,12.094,9.03,13.174,9.03,14.383L9.03,14.383z"/>
	<path fill="#273992" stroke="#273992" stroke-miterlimit="10" d="M13.5,5.524c0.658,0.951,1.414,2.375,1.901,4.341
		c2.229,0.455,3.85,1.258,4.928,1.961C19.413,8.647,16.779,6.188,13.5,5.524z"/>
	<path fill="#273992" stroke="#273992" stroke-miterlimit="10" d="M7.586,15.863c-0.035-0.471-0.054-0.965-0.054-1.48
		c0-1.07,0.082-2.052,0.22-2.946c-1.309,0.313-2.321,0.749-3.048,1.145c-0.731,0.397-1.264,0.798-1.61,1.095
		c0.363,0.303,0.918,0.707,1.679,1.111C5.463,15.152,6.4,15.555,7.586,15.863z"/>
	<path fill="#273992" stroke="#273992" stroke-miterlimit="10" d="M18.736,14.793c0.73-0.398,1.262-0.797,1.609-1.096
		c-0.362-0.299-0.919-0.706-1.679-1.109c-0.717-0.381-1.7-0.8-2.952-1.111c0.123,0.837,0.192,1.751,0.192,2.75
		c0,0.584-0.025,1.143-0.069,1.674C17.073,15.59,18.036,15.172,18.736,14.793z"/>
	<path fill="#89DBD4" stroke="#89DBD4" stroke-miterlimit="10" d="M5.717,2.404h5.26l-0.005,1.471
		c0.241-0.018,0.485-0.027,0.73-0.027c0.001,0,0.002,0,0.002,0c0.006,0,0.01,0,0.015,0c0.252,0,0.503,0.009,0.751,0.027l0.004-1.47
		h5.248c0.413,0,0.749-0.335,0.749-0.749c0-0.414-0.336-0.749-0.749-0.749H5.717c-0.414,0-0.749,0.335-0.749,0.749
		C4.968,2.069,5.303,2.404,5.717,2.404L5.717,2.404z"/>
	<path fill="#273992" stroke="#273992" stroke-miterlimit="10" d="M13.776,9.612c-0.288-0.964-0.634-1.736-0.951-2.323
		c-0.396-0.731-0.797-1.263-1.095-1.61c-0.3,0.362-0.707,0.918-1.109,1.679c-0.305,0.575-0.633,1.319-0.913,2.234
		c0.606-0.06,1.25-0.093,1.932-0.093C12.396,9.499,13.108,9.54,13.776,9.612z"/>
	<path fill="#273992" stroke="#273992" stroke-miterlimit="10" d="M15.636,17.49c-0.454,2.613-1.392,4.453-2.175,5.604
		c3.761-0.744,6.683-3.852,7.151-7.703C19.583,16.121,17.957,17,15.636,17.49L15.636,17.49z"/>
	<path fill="#273992" stroke="#273992" stroke-miterlimit="10" d="M11.8,17.873c-0.878,0-1.694-0.053-2.453-0.148
		c0.317,1.58,0.819,2.771,1.266,3.598c0.396,0.73,0.797,1.262,1.096,1.609c0.3-0.363,0.708-0.918,1.109-1.68
		c0.436-0.82,0.921-1.984,1.238-3.504C13.356,17.826,12.604,17.873,11.8,17.873z"/>
	<path fill="#273992" stroke="#273992" stroke-miterlimit="10" d="M2.822,15.354c0.452,3.855,3.361,6.971,7.116,7.73
		c-0.794-1.148-1.732-2.986-2.165-5.631C5.478,16.945,3.853,16.072,2.822,15.354z"/>
</g>
</svg>
