<?xml version="1.0" encoding="utf-8"?>
<!-- Generator: Adobe Illustrator 16.0.0, SVG Export Plug-In . SVG Version: 6.00 Build 0)  -->
<!DOCTYPE svg PUBLIC "-//W3C//DTD SVG 1.1//EN" "http://www.w3.org/Graphics/SVG/1.1/DTD/svg11.dtd">
<svg version="1.1" id="Layer_1" xmlns="http://www.w3.org/2000/svg" xmlns:xlink="http://www.w3.org/1999/xlink" x="0px" y="0px"
	 width="24px" height="24px" viewBox="0 0 24 24" enable-background="new 0 0 24 24" xml:space="preserve">
<path fill="none" d="M363.055-17.116h24v24h-24V-17.116z"/>
<g>
</g>
<g>
	<g>
		<path fill="#273992" d="M178.107,11.309h-19.643c-1.479,0-2.679,1.199-2.679,2.679v12.5c0,1.479,1.199,2.679,2.679,2.679h19.643
			c1.479,0,2.679-1.199,2.679-2.679v-12.5C180.786,12.508,179.587,11.309,178.107,11.309z M179,21.653l-5.618-5.619
			c-0.349-0.349-0.914-0.349-1.263,0l-7.404,7.404l-2.94-2.939c-0.349-0.35-0.914-0.35-1.262,0l-2.941,2.939v-9.451
			c0-0.493,0.4-0.894,0.894-0.894h19.643c0.493,0,0.893,0.4,0.893,0.894V21.653L179,21.653z"/>
	</g>
</g>
<g>
	<g>
		<circle cx="162.238" cy="16.265" r="2.679"/>
	</g>
</g>
<path fill="#89DBD4" stroke="#89DBD4" stroke-width="2" stroke-miterlimit="10" d="M164.298,11.65c-0.196,0.195-0.196,0.492,0,0.688
	l4.35,4.35c0.098,0.098,0.221,0.146,0.344,0.146s0.245-0.049,0.344-0.146l4.35-4.35c0.196-0.195,0.196-0.492,0-0.688
	c-0.197-0.197-0.491-0.197-0.688,0l-3.514,3.514V2.092c0-0.271-0.222-0.492-0.491-0.492c-0.271,0-0.491,0.221-0.491,0.492v13.072
	l-3.514-3.514C164.789,11.453,164.494,11.453,164.298,11.65z"/>
<g>
	<g>
	</g>
</g>
<g>
	<g>
		<polygon fill="#89DBD4" stroke="#89DBD4" stroke-miterlimit="10" points="17.212,0.927 17.212,6.881 23.165,6.881 		"/>
	</g>
</g>
<g>
	<g>
		<path fill="#89DBD4" stroke="#89DBD4" stroke-miterlimit="10" d="M8.259,22.332l-1.141-4.576c0.712-0.676,1.161-1.63,1.161-2.688
			c0-2.052-1.669-3.722-3.721-3.722s-3.722,1.67-3.722,3.722c0,1.058,0.45,2.012,1.161,2.688l-1.14,4.576
			c-0.07,0.281,0.032,0.577,0.257,0.761c0.228,0.182,0.54,0.213,0.798,0.086l2.646-1.322l2.644,1.322
			c0.105,0.051,0.22,0.076,0.333,0.076c0.165,0,0.331-0.055,0.467-0.162C8.227,22.909,8.329,22.613,8.259,22.332z M4.558,17.302
			c-1.231,0-2.233-1.003-2.233-2.233s1.002-2.233,2.233-2.233s2.233,1.003,2.233,2.233S5.79,17.302,4.558,17.302z"/>
	</g>
</g>
<g>
	<g>
		<path fill="#273992" stroke="#273992" stroke-miterlimit="10" d="M17.212,8.37c-0.821,0-1.491-0.668-1.491-1.489V0.927h-8.93
			c-0.82,0-1.489,0.668-1.489,1.488v7.519c2.519,0.365,4.466,2.516,4.466,5.134c0,1.124-0.357,2.193-1.018,3.082l0.901,3.616h12.026
			c0.821,0,1.487-0.667,1.487-1.488V8.37H17.212z M9.024,6.881c-0.411,0-0.745-0.333-0.745-0.744c0-0.411,0.334-0.745,0.745-0.745
			h4.467c0.409,0,0.743,0.333,0.743,0.745c0,0.411-0.334,0.744-0.743,0.744H9.024z M19.443,15.813h-7.442
			c-0.412,0-0.746-0.333-0.746-0.744s0.334-0.744,0.746-0.744h7.442c0.41,0,0.745,0.333,0.745,0.744S19.854,15.813,19.443,15.813z
			 M19.443,11.346h-8.931c-0.411,0-0.744-0.333-0.744-0.744c0-0.41,0.333-0.744,0.744-0.744h8.931c0.41,0,0.745,0.334,0.745,0.744
			C20.188,11.013,19.854,11.346,19.443,11.346z"/>
	</g>
</g>
</svg>
