<?xml version="1.0" encoding="utf-8"?>
<!-- Generator: Adobe Illustrator 16.0.0, SVG Export Plug-In . SVG Version: 6.00 Build 0)  -->
<!DOCTYPE svg PUBLIC "-//W3C//DTD SVG 1.1//EN" "http://www.w3.org/Graphics/SVG/1.1/DTD/svg11.dtd">
<svg version="1.1" id="Layer_1" xmlns="http://www.w3.org/2000/svg" xmlns:xlink="http://www.w3.org/1999/xlink" x="0px" y="0px"
	 width="24px" height="24px" viewBox="0 0 24 24" enable-background="new 0 0 24 24" xml:space="preserve">
<path fill="#89DBD4" stroke="#89DBD4" stroke-miterlimit="10" d="M3.51,22.071c-0.166,0-0.332-0.06-0.463-0.18
	c-0.093-0.085-2.284-2.109-2.284-4.227c0-1.609,1.232-2.918,2.747-2.918c1.514,0,2.746,1.309,2.746,2.918
	c0,2.117-2.191,4.142-2.284,4.227C3.841,22.012,3.676,22.071,3.51,22.071z"/>
<path fill="#273992" stroke="#273992" stroke-miterlimit="10" d="M15.096,22.987H3.51c-0.379,0-0.688-0.308-0.688-0.687
	c0-0.381,0.308-0.688,0.688-0.688h11.586c0.129,0,0.188-0.081,0.213-0.147c0.026-0.066,0.037-0.164-0.059-0.25l-6.091-5.511
	c-0.495-0.449-0.66-1.14-0.42-1.763c0.24-0.624,0.828-1.027,1.496-1.027h7.924c0.379,0,0.687,0.307,0.687,0.688
	c0,0.378-0.308,0.687-0.687,0.687h-7.924c-0.13,0-0.188,0.079-0.213,0.146c-0.025,0.067-0.037,0.164,0.06,0.25l6.091,5.513
	c0.494,0.446,0.658,1.139,0.419,1.762C16.352,22.585,15.764,22.987,15.096,22.987L15.096,22.987z"/>
<path fill="#273992" stroke="#273992" stroke-miterlimit="10" d="M18.159,1.013c-2.525,0-4.578,2.08-4.578,4.635
	c0,3.527,3.963,6.96,4.132,7.104c0.129,0.11,0.288,0.165,0.446,0.165c0.16,0,0.317-0.055,0.446-0.165
	c0.169-0.144,4.132-3.576,4.132-7.104C22.737,3.092,20.683,1.013,18.159,1.013z M18.159,7.422c-1.009,0-1.832-0.821-1.832-1.832
	c0-1.01,0.822-1.831,1.832-1.831S19.99,4.58,19.99,5.59C19.99,6.601,19.169,7.422,18.159,7.422z"/>
</svg>
