<?xml version="1.0" encoding="utf-8"?>
<!-- Generator: Adobe Illustrator 16.0.0, SVG Export Plug-In . SVG Version: 6.00 Build 0)  -->
<!DOCTYPE svg PUBLIC "-//W3C//DTD SVG 1.1//EN" "http://www.w3.org/Graphics/SVG/1.1/DTD/svg11.dtd">
<svg version="1.1" id="Layer_1" xmlns="http://www.w3.org/2000/svg" xmlns:xlink="http://www.w3.org/1999/xlink" x="0px" y="0px"
	 width="24px" height="24px" viewBox="0 0 24 24" enable-background="new 0 0 24 24" xml:space="preserve">
<g>
	<path fill="#273992" stroke="#273992" stroke-miterlimit="10" d="M18.924,2.127c-0.719,0-13.055,0-13.846,0L0.725,8.064
		l11.322,14.922L23.275,8.062L18.924,2.127z M6.915,8.716l3.189,9.532l-7.23-9.532H6.915z M8.304,8.716h7.397l-3.673,11.127
		L8.304,8.716z M17.088,8.716h4.047l-7.209,9.583L17.088,8.716z M18.256,3.445l2.896,3.954H17.09l-1.299-3.954H18.256z
		 M14.404,3.445l1.299,3.954H8.298l1.297-3.954H14.404z M5.747,3.445h2.462L6.912,7.399H2.847L5.747,3.445z"/>
</g>
</svg>
