<?xml version="1.0" encoding="utf-8"?>
<!-- Generator: Adobe Illustrator 16.0.0, SVG Export Plug-In . SVG Version: 6.00 Build 0)  -->
<!DOCTYPE svg PUBLIC "-//W3C//DTD SVG 1.1//EN" "http://www.w3.org/Graphics/SVG/1.1/DTD/svg11.dtd">
<svg version="1.1" id="Layer_1" xmlns="http://www.w3.org/2000/svg" xmlns:xlink="http://www.w3.org/1999/xlink" x="0px" y="0px"
	 width="24px" height="24px" viewBox="0 0 24 24" enable-background="new 0 0 24 24" xml:space="preserve">
<path fill="#273992" d="M13.048,11.685h7.337v1.572h-7.337V11.685z M13.048,9.064h7.337v1.572h-7.337V9.064z M13.048,14.305h7.337
	v1.572h-7.337V14.305z M21.433,3.3H2.567c-1.153,0-2.097,0.943-2.097,2.096v13.625c0,1.152,0.943,2.097,2.097,2.097h18.865
	c1.152,0,2.097-0.944,2.097-2.097V5.396C23.529,4.243,22.585,3.3,21.433,3.3z M21.433,19.021H12V5.396h9.433V19.021z M11.411,19.021
	H1.978V5.396h9.433V19.021z"/>
<path fill="none" d="M-0.577-1.154h25.154V24H-0.577V-1.154z M-0.577-1.154h25.154V24H-0.577V-1.154z"/>
<path fill="#89DBD4" d="M2.899,11.184h7.336v1.572H2.899V11.184z M2.899,8.563h7.336v1.572H2.899V8.563z M2.899,13.804h7.336v1.572
	H2.899V13.804z"/>
<rect x="12" y="4.717" fill="#273992" width="9.74" height="14.986"/>
</svg>
