<?xml version="1.0" encoding="utf-8"?>
<!-- Generator: Adobe Illustrator 16.0.0, SVG Export Plug-In . SVG Version: 6.00 Build 0)  -->
<!DOCTYPE svg PUBLIC "-//W3C//DTD SVG 1.1//EN" "http://www.w3.org/Graphics/SVG/1.1/DTD/svg11.dtd">
<svg version="1.1" id="Layer_1" xmlns="http://www.w3.org/2000/svg" xmlns:xlink="http://www.w3.org/1999/xlink" x="0px" y="0px"
	 width="512px" height="512px" viewBox="0 0 512 512" enable-background="new 0 0 512 512" xml:space="preserve">
<path fill="#273992" stroke="#273992" stroke-width="20" stroke-miterlimit="10" d="M235.187,118.391L103.171,406.652
	l-28.264-13.045l132.016-288.261L235.187,118.391z"/>
<path fill="#273992" stroke="#273992" stroke-width="20" stroke-miterlimit="10" d="M422.028,242.486l-22.675,21.125
	L260.815,114.202l22.675-21.125L422.028,242.486z"/>
<path fill="#273992" stroke="#273992" stroke-width="20" stroke-miterlimit="10" d="M405.412,319.213l-286.866,119.59
	l-11.959-28.578l286.866-119.59L405.412,319.213z"/>
<path fill="#273992" d="M206.922,105.348l28.264,13.045l-18.792,41.16c-10.25-2.64-19.88-6.989-28.419-12.893L206.922,105.348z"/>
<path fill="#273992" d="M314.397,126.312c-6.367,8.231-14.132,15.531-22.83,21.125l-30.753-33.235l22.676-21.125L314.397,126.312z"
	/>
<path fill="#89DBD4" d="M302.594,69.625c0,34.313-27.813,62.125-62.125,62.125s-62.125-27.813-62.125-62.125
	S206.156,7.5,240.469,7.5S302.594,35.313,302.594,69.625z"/>
<path fill="#273992" d="M122.119,365.341l-18.948,41.313l-28.264-13.045l18.792-41.16
	C103.948,355.088,113.579,359.437,122.119,365.341z"/>
<path fill="#273992" d="M160.329,421.406l-41.782,17.396l-11.959-28.578l41.782-17.394
	C153.958,401.529,158.152,411.157,160.329,421.406z"/>
<path fill="#89DBD4" d="M131.75,442.375c0,34.313-27.813,62.125-62.125,62.125S7.5,476.688,7.5,442.375s27.813-62.125,62.125-62.125
	S131.75,408.063,131.75,442.375z"/>
<path fill="#273992" d="M393.453,290.635l11.959,28.578l-41.781,17.394c-5.59-8.698-9.783-18.326-11.96-28.575L393.453,290.635z"/>
<path fill="#273992" d="M399.354,263.61l-30.907-33.235c6.367-8.231,14.133-15.531,22.831-21.125l30.752,33.235L399.354,263.61z"/>
<path fill="#89DBD4" d="M504.5,287.063c0,34.313-27.813,62.125-62.125,62.125s-62.125-27.813-62.125-62.125
	s27.813-62.125,62.125-62.125S504.5,252.75,504.5,287.063z"/>
<g>
	<path fill="#FFFFFF" d="M224.938,54.094H256v31.063h-31.063V54.094z"/>
	<path fill="#FFFFFF" d="M426.844,271.531h31.063v31.063h-31.063V271.531z"/>
	<path fill="#FFFFFF" d="M54.094,426.844h31.063v31.063H54.094V426.844z"/>
</g>
</svg>
