<?xml version="1.0" encoding="utf-8"?>
<!-- Generator: Adobe Illustrator 16.0.0, SVG Export Plug-In . SVG Version: 6.00 Build 0)  -->
<!DOCTYPE svg PUBLIC "-//W3C//DTD SVG 1.1//EN" "http://www.w3.org/Graphics/SVG/1.1/DTD/svg11.dtd">
<svg version="1.1" id="Layer_1" xmlns="http://www.w3.org/2000/svg" xmlns:xlink="http://www.w3.org/1999/xlink" x="0px" y="0px"
	 width="24px" height="24px" viewBox="0 0 24 24" enable-background="new 0 0 24 24" xml:space="preserve">
<path fill="none" d="M0,0h24v24H0V0z"/>
<g>
	<g>
		<path fill="#273992" stroke="#273992" stroke-width="0.75" stroke-miterlimit="10" d="M19.964,6.488
			c-2.124-1.46-4.937-2.265-7.92-2.265c-2.987,0-5.814,0.804-7.962,2.263c-2.232,1.517-3.461,3.554-3.461,5.737
			c0,2.183,1.229,4.222,3.461,5.738c2.148,1.46,4.975,2.265,7.962,2.265c2.983,0,5.796-0.807,7.92-2.267
			c2.204-1.515,3.415-3.55,3.415-5.736C23.379,10.038,22.168,8.002,19.964,6.488z M19.211,16.86c-1.906,1.31-4.452,2.03-7.167,2.03
			c-2.723,0-5.284-0.721-7.212-2.032c-1.855-1.261-2.877-2.906-2.877-4.635c0-1.728,1.021-3.374,2.877-4.634
			c1.929-1.311,4.49-2.034,7.212-2.034c2.715,0,5.261,0.722,7.167,2.031c1.828,1.257,2.835,2.904,2.835,4.637
			C22.046,13.957,21.039,15.604,19.211,16.86z"/>
	</g>
</g>
</svg>
