<?xml version="1.0" encoding="utf-8"?>
<!-- Generator: Adobe Illustrator 24.1.3, SVG Export Plug-In . SVG Version: 6.00 Build 0)  -->
<svg version="1.1" id="Layer_1" xmlns="http://www.w3.org/2000/svg" xmlns:xlink="http://www.w3.org/1999/xlink" x="0px" y="0px"
	 viewBox="0 0 490 490" style="enable-background:new 0 0 490 490;" xml:space="preserve">
<style type="text/css">
	.st0{fill:#2DCE89;stroke:#2DCE89;stroke-width:8;stroke-miterlimit:10;}
</style>
<path class="st0" d="M321,260.2H27.2c-8.4,0-15.2-6.8-15.2-15.2s6.8-15.2,15.2-15.2H321c8.4,0,15.2,6.8,15.2,15.2
	S329.4,260.2,321,260.2z"/>
<path class="st0" d="M239.9,341.2c-3.9,0-7.8-1.5-10.7-4.5c-5.9-5.9-5.9-15.6,0-21.5l70.3-70.3l-70.3-70.3c-5.9-5.9-5.9-15.6,0-21.5
	c5.9-5.9,15.6-5.9,21.5,0l81,81c5.9,5.9,5.9,15.6,0,21.5l-81,81C247.7,339.8,243.8,341.2,239.9,341.2z"/>
<path class="st0" d="M255.1,467.9c-92.2,0-173.6-55.5-207.4-141.3c-3.1-7.8,0.8-16.6,8.6-19.7c7.8-3,16.6,0.7,19.7,8.6
	c29.2,74.1,99.5,122.1,179.1,122.1c106.1,0,192.5-86.4,192.5-192.5S361.3,52.5,255.1,52.5c-79.6,0-149.9,47.9-179.1,122.1
	c-3.1,7.8-11.9,11.6-19.7,8.6c-7.8-3.1-11.6-11.9-8.6-19.7C81.5,77.6,162.9,22.1,255.1,22.1C378,22.1,478,122.1,478,245
	S378,467.9,255.1,467.9z"/>
</svg>
