<?xml version="1.0" encoding="utf-8"?>
<!-- Generator: Adobe Illustrator 16.0.0, SVG Export Plug-In . SVG Version: 6.00 Build 0)  -->
<!DOCTYPE svg PUBLIC "-//W3C//DTD SVG 1.1//EN" "http://www.w3.org/Graphics/SVG/1.1/DTD/svg11.dtd">
<svg version="1.1" id="Layer_1" xmlns="http://www.w3.org/2000/svg" xmlns:xlink="http://www.w3.org/1999/xlink" x="0px" y="0px"
	 width="24px" height="24px" viewBox="0 0 24 24" enable-background="new 0 0 24 24" xml:space="preserve">
<path fill="#273992" stroke="#273992" stroke-miterlimit="10" d="M8.176,18.918c-3.813,0-6.916-3.105-6.916-6.918
	c0-3.814,3.104-6.917,6.916-6.917c1.086,0,2.11,0.259,3.027,0.707c-0.5,0.391-0.949,0.841-1.338,1.34
	c-0.021,0.025-0.04,0.051-0.059,0.076C9.63,7.433,9.471,7.672,9.322,7.917C9.293,7.963,9.265,8.007,9.237,8.054
	C8.921,8.6,8.671,9.188,8.49,9.806c-0.021,0.078-0.04,0.157-0.06,0.237c-0.061,0.233-0.108,0.472-0.147,0.714
	c-0.014,0.089-0.029,0.179-0.041,0.271C8.203,11.345,8.176,11.669,8.176,12s0.027,0.655,0.066,0.972
	c0.011,0.092,0.026,0.183,0.041,0.271c0.039,0.242,0.088,0.479,0.147,0.714c0.02,0.08,0.038,0.159,0.06,0.236
	c0.182,0.619,0.431,1.206,0.747,1.751c0.027,0.049,0.057,0.093,0.085,0.139c0.149,0.246,0.309,0.483,0.484,0.711
	c0.019,0.023,0.036,0.051,0.058,0.075c0.391,0.501,0.84,0.95,1.337,1.341C10.286,18.657,9.262,18.918,8.176,18.918z M16.08,18.918
	c-1.085,0-2.109-0.261-3.025-0.707c0.501-0.393,0.949-0.842,1.339-1.341c0.021-0.024,0.037-0.052,0.058-0.075
	c0.175-0.228,0.335-0.467,0.484-0.713c0.027-0.044,0.057-0.09,0.084-0.137c0.315-0.547,0.567-1.134,0.745-1.751
	c0.023-0.077,0.042-0.158,0.063-0.236c0.06-0.234,0.107-0.474,0.145-0.714c0.016-0.09,0.031-0.181,0.044-0.271
	C16.055,12.654,16.08,12.33,16.08,12s-0.025-0.654-0.063-0.972c-0.013-0.091-0.027-0.181-0.044-0.271
	c-0.037-0.241-0.086-0.48-0.145-0.713c-0.021-0.081-0.039-0.16-0.063-0.238C15.588,9.188,15.335,8.6,15.02,8.054
	c-0.026-0.046-0.056-0.091-0.083-0.137c-0.149-0.246-0.31-0.484-0.485-0.71c-0.019-0.025-0.035-0.051-0.057-0.076
	c-0.391-0.5-0.839-0.949-1.339-1.341c0.915-0.449,1.939-0.708,3.024-0.708c3.813,0,6.919,3.103,6.919,6.917
	C22.999,15.813,19.894,18.918,16.08,18.918z"/>
<path fill="#89DBD4" stroke="#89DBD4" stroke-miterlimit="10" d="M7.918,18.918c-3.813,0-6.916-3.104-6.916-6.918
	c0-3.814,3.104-6.917,6.916-6.917c1.086,0,2.11,0.26,3.027,0.707c-0.5,0.391-0.949,0.841-1.338,1.341
	c-0.021,0.024-0.04,0.051-0.059,0.076c-0.175,0.226-0.335,0.465-0.484,0.71C9.036,7.963,9.007,8.008,8.979,8.054
	C8.663,8.601,8.413,9.188,8.231,9.807c-0.021,0.077-0.04,0.156-0.059,0.236c-0.061,0.233-0.108,0.472-0.148,0.715
	c-0.014,0.089-0.029,0.179-0.04,0.27C7.945,11.345,7.918,11.67,7.918,12s0.027,0.654,0.066,0.973c0.011,0.091,0.026,0.182,0.04,0.27
	c0.04,0.242,0.088,0.479,0.148,0.715c0.02,0.079,0.038,0.159,0.059,0.235c0.182,0.619,0.432,1.206,0.748,1.751
	c0.027,0.049,0.057,0.094,0.085,0.139c0.149,0.246,0.309,0.483,0.484,0.711c0.019,0.024,0.036,0.051,0.058,0.076
	c0.391,0.5,0.84,0.949,1.337,1.34C10.028,18.657,9.004,18.918,7.918,18.918z"/>
</svg>
