<?xml version="1.0" encoding="utf-8"?>
<!-- Generator: Adobe Illustrator 16.0.0, SVG Export Plug-In . SVG Version: 6.00 Build 0)  -->
<!DOCTYPE svg PUBLIC "-//W3C//DTD SVG 1.1//EN" "http://www.w3.org/Graphics/SVG/1.1/DTD/svg11.dtd">
<svg version="1.1" id="Layer_1" xmlns="http://www.w3.org/2000/svg" xmlns:xlink="http://www.w3.org/1999/xlink" x="0px" y="0px"
	 width="24px" height="24px" viewBox="0 0 24 24" enable-background="new 0 0 24 24" xml:space="preserve">
<g>
	<g>
		<path fill="#273992" stroke="#273992" stroke-miterlimit="10" d="M21.154,6.089L21.154,6.089c-0.123-0.153-0.34-0.194-0.512-0.096
			l-5.336,3.083l1.338-3.386c0.094-0.2,0.006-0.437-0.193-0.529c-0.146-0.067-0.317-0.041-0.436,0.067L12.75,8.017l-0.929-6.644
			c-0.028-0.198-0.198-0.344-0.398-0.342c-0.196-0.003-0.365,0.137-0.398,0.331L9.83,8.132L7.902,6.515
			C7.734,6.373,7.483,6.394,7.341,6.561C7.269,6.645,7.236,6.756,7.249,6.865l0.287,2.542l-4.234-2
			C3.099,7.322,2.865,7.418,2.78,7.621C2.726,7.752,2.745,7.903,2.832,8.017l3.302,3.84l-2.23,0.979
			c-0.2,0.092-0.289,0.328-0.198,0.528c0.04,0.087,0.11,0.157,0.198,0.196l2.354,1.107l-1.629,1.959
			c-0.142,0.169-0.119,0.42,0.05,0.563c0.078,0.064,0.179,0.099,0.281,0.092l2.438-0.151L4.45,22.105
			c-0.112,0.188-0.049,0.435,0.14,0.547c0.146,0.086,0.332,0.07,0.462-0.041l4.78-4.074l1.115,4.139
			c0.048,0.18,0.213,0.303,0.398,0.295c0.187,0.006,0.352-0.117,0.398-0.299l1.048-4.162l4.857,4.104
			c0.168,0.143,0.42,0.123,0.563-0.045c0.111-0.129,0.128-0.314,0.04-0.461l-2.983-5.022l2.494,0.278
			c0.219,0.022,0.415-0.135,0.438-0.354c0.011-0.108-0.022-0.217-0.093-0.3l-1.784-2.092l2.241-1.023
			c0.201-0.091,0.289-0.326,0.199-0.527c-0.041-0.088-0.109-0.156-0.199-0.196l-2.149-0.94l4.739-5.322
			C21.281,6.458,21.281,6.238,21.154,6.089z M15.445,11.785c-0.141,0.169-0.117,0.42,0.051,0.561
			c0.025,0.021,0.053,0.038,0.082,0.053l1.844,0.796l-1.912,0.914c-0.199,0.093-0.287,0.33-0.193,0.529
			c0.015,0.033,0.035,0.064,0.06,0.094l1.47,1.725l-2.287-0.255c-0.218-0.031-0.418,0.121-0.449,0.339
			c-0.012,0.089,0.006,0.182,0.052,0.259l2.185,3.677l-3.541-2.992c-0.17-0.142-0.421-0.118-0.563,0.05
			c-0.038,0.045-0.065,0.098-0.08,0.153l-0.848,3.303l-0.869-3.273c-0.035-0.133-0.136-0.238-0.267-0.279
			c-0.04-0.006-0.08-0.006-0.119,0c-0.095,0-0.187,0.035-0.259,0.098l-3.469,2.943l2.11-3.586c0.113-0.188,0.051-0.434-0.138-0.547
			c-0.069-0.039-0.148-0.06-0.229-0.055l-2.266,0.143l1.382-1.645c0.141-0.169,0.117-0.421-0.053-0.561
			c-0.025-0.021-0.053-0.039-0.083-0.054l-2.027-0.956l1.916-0.82c0.202-0.088,0.295-0.322,0.207-0.524
			c-0.016-0.037-0.037-0.071-0.063-0.102l-2.421-2.82l3.186,1.514c0.199,0.093,0.437,0.007,0.53-0.192
			c0.03-0.064,0.042-0.136,0.036-0.207L8.161,7.806l1.685,1.406c0.168,0.142,0.419,0.12,0.562-0.048
			c0.045-0.054,0.076-0.118,0.088-0.188l0.888-4.995l0.681,4.872c0.031,0.218,0.232,0.37,0.451,0.339
			C12.59,9.181,12.66,9.149,12.718,9.1l2.603-2.215l-1.176,2.959c-0.08,0.205,0.021,0.436,0.227,0.516
			c0.111,0.044,0.238,0.034,0.344-0.025l4.186-2.41L15.445,11.785z"/>
	</g>
</g>
<path fill="#89DBD4" stroke="#89DBD4" stroke-miterlimit="10" d="M13.801,11.38c-0.119-0.119-0.313-0.119-0.434,0l-2.743,2.745
	L9.36,12.859c-0.12-0.118-0.313-0.118-0.432,0c-0.12,0.121-0.12,0.313,0,0.434l1.479,1.48c0.058,0.057,0.135,0.09,0.216,0.09
	c0.082,0,0.159-0.033,0.217-0.09l2.96-2.961C13.92,11.693,13.92,11.5,13.801,11.38z"/>
</svg>
