<?xml version="1.0" encoding="utf-8"?>
<!-- Generator: Adobe Illustrator 16.0.0, SVG Export Plug-In . SVG Version: 6.00 Build 0)  -->
<!DOCTYPE svg PUBLIC "-//W3C//DTD SVG 1.1//EN" "http://www.w3.org/Graphics/SVG/1.1/DTD/svg11.dtd">
<svg version="1.1" id="Layer_1" xmlns="http://www.w3.org/2000/svg" xmlns:xlink="http://www.w3.org/1999/xlink" x="0px" y="0px"
	 width="512px" height="512px" viewBox="0 0 512 512" enable-background="new 0 0 512 512" xml:space="preserve">
<path d="M1506.936,236.255c-3.812-12.535-5.762-25.559-5.783-38.664c0-1.293,0-2.584,0-3.879h-72.019
	c-35.245,1.15-64.749-26.487-65.899-61.729c-1.15-35.244,26.486-64.749,61.729-65.9c1.39-0.045,2.78-0.045,4.171,0
	c12.09,0.059,23.908,3.604,34.033,10.21c9.898,6.363,23.08,3.495,29.442-6.403c1.313-2.045,2.269-4.299,2.821-6.666
	c13.264-57.166,70.354-92.755,127.521-79.494c47.066,10.92,80.846,52.226,82.199,100.526c15.48,9.475,28.867,22.005,39.344,36.825
	c2.674-11.146,4.021-22.57,4.018-34.034c0.117-82.216-66.438-148.961-148.654-149.081c-59.807-0.086-113.855,35.628-137.236,90.677
	c-10.705-3.586-21.925-5.403-33.217-5.378c-58.74-1.487-107.563,44.927-109.049,103.667
	c-1.485,58.741,44.928,107.563,103.666,109.049c1.795,0.045,3.589,0.045,5.383,0L1506.936,236.255z"/>
<path fill="#273992" d="M1783.365,260.83c-6.066,0.018-12.057,1.34-17.563,3.881l-34.032-24.167l-0.478-0.338
	c14.943-33.072,11.777-71.513-8.373-101.696l0,0c-32.586-48.805-98.563-61.954-147.371-29.367c-2.988,1.996-5.873,4.141-8.643,6.427
	l0,0c-2.451,2.042-4.768,4.153-6.811,6.399c-0.68,0.612-1.225,1.292-1.838,1.905c-11.305,11.727-19.776,25.884-24.776,41.385l0,0
	c-0.478,1.565-0.885,3.132-1.359,4.698c-0.479,1.564-0.886,3.199-1.227,4.9c-0.341,1.703,0,1.43-0.479,2.111
	c-1.325,6.727-2.009,13.563-2.042,20.418c0.014,13.553,2.625,26.979,7.692,39.551c0.611,1.498,1.225,2.926,1.904,4.355
	c0.683,1.43,0.612,1.363,0.952,2.043c2,4.162,4.273,8.188,6.81,12.049l0,0l-91.825,92.167c-3.54-1.033-7.203-1.584-10.892-1.635
	c-23.495,0.15-42.422,19.318-42.271,42.814c0.147,23.494,19.318,42.422,42.813,42.27c23.389-0.148,42.271-19.15,42.271-42.541
	c-0.072-3.68-0.598-7.338-1.565-10.889l91.351-91.623l0,0c11.305,7.57,23.973,12.867,37.301,15.588v50.576
	c-20.348,11.748-27.317,37.766-15.569,58.113c11.748,20.351,37.767,27.318,58.114,15.572c20.35-11.748,27.318-37.768,15.572-58.113
	c-3.734-6.469-9.104-11.842-15.572-15.572v-50.848c19.059-4.033,36.646-13.217,50.847-26.551l0.683,0.479l34.035,24.231
	c-0.203,1.31-0.34,2.623-0.408,3.947c0,23.495,19.047,42.543,42.541,42.543c23.496,0,42.543-19.046,42.543-42.543
	c0-23.496-19.047-42.543-42.543-42.543l0,0L1783.365,260.83L1783.365,260.83z M1634.43,260.83c-35.264,0-63.85-28.586-63.85-63.85
	c0-35.262,28.586-63.848,63.85-63.848s63.85,28.586,63.85,63.848c0,0.023,0,0.045,0,0.07
	C1698.24,232.287,1669.666,260.83,1634.43,260.83z"/>
<g>
	<path fill="#273992" d="M498.234,307.809l-132.688,33.758c-5.794,1.526-9.58,7.109-8.991,13.072l9.663,112.715
		c0.584,4.563-1.507,9.12-5.44,11.591c-3.91,2.444-8.907,2.403-12.777-0.105l-90.209-61.264c-4.477-3.116-10.48-2.551-14.348,1.233
		l-89.562,85.19c-3.641,3.326-8.996,4.077-13.388,1.841c-4.435-2.239-6.985-7.029-6.357-11.944l9.913-140.825
		c0.418-5.313-2.51-10.271-7.34-12.465L12.068,287.27c-4.476-2.111-7.363-6.547-7.363-11.504c0-4.916,2.887-9.442,7.363-11.492
		l124.513-53.313c4.874-2.208,7.842-7.259,7.34-12.593l-9.787-114.18c-0.628-4.58,1.505-9.107,5.396-11.587
		c3.932-2.488,8.909-2.458,12.799,0.042l89.73,61.001c4.686,3.211,11.045,2.457,14.851-1.715L372.367,8.491
		c3.806-3.869,9.664-4.727,14.345-2.091c4.688,2.625,7.009,8.073,5.773,13.292l-35.059,178.496
		c-1.042,5.407,1.405,10.909,6.278,13.586l137.038,72.858c4.479,2.47,6.982,7.429,6.485,12.425
		C506.643,302.141,503.108,306.364,498.234,307.809z"/>
	<path fill="#89DBD4" d="M198.999,350.761c1.937-22.211-10.244-43.106-30.393-52.503l-40.95-17.874l40.808-17.849
		c20.486-9.47,32.645-30.902,30.344-53.266l-3.053-36.28l26.736,18.552c7.823,5.472,17.122,8.428,26.714,8.451
		c13.365-0.12,26.029-5.824,35.018-15.742l29.888-32.609l-10.171,52.772c-4.631,22.693,5.811,45.82,25.91,57.385l47.178,25.657
		l-37.195,9.639c-24.365,7.024-40.109,30.514-37.249,55.75l2.856,34.871l-27.076-18.841c-7.848-5.521-17.148-8.427-26.709-8.427
		c-12.376,0-24.196,4.939-32.987,13.611l-22.813,22.229L198.999,350.761z"/>
</g>
</svg>
