<?xml version="1.0" encoding="utf-8"?>
<!-- Generator: Adobe Illustrator 16.0.0, SVG Export Plug-In . SVG Version: 6.00 Build 0)  -->
<!DOCTYPE svg PUBLIC "-//W3C//DTD SVG 1.1//EN" "http://www.w3.org/Graphics/SVG/1.1/DTD/svg11.dtd">
<svg version="1.1" id="Layer_1" xmlns="http://www.w3.org/2000/svg" xmlns:xlink="http://www.w3.org/1999/xlink" x="0px" y="0px"
	 width="24px" height="24px" viewBox="0 0 24 24" enable-background="new 0 0 24 24" xml:space="preserve">
<path fill="none" d="M363.055-17.116h24v24h-24V-17.116z"/>
<g>
</g>
<g>
	<g>
		<path fill="#273992" d="M178.107,11.309h-19.643c-1.479,0-2.679,1.199-2.679,2.679v12.5c0,1.479,1.199,2.679,2.679,2.679h19.643
			c1.479,0,2.679-1.199,2.679-2.679v-12.5C180.786,12.508,179.587,11.309,178.107,11.309z M179,21.653l-5.618-5.619
			c-0.349-0.349-0.914-0.349-1.263,0l-7.404,7.404l-2.94-2.939c-0.349-0.35-0.914-0.35-1.262,0l-2.941,2.939v-9.451
			c0-0.493,0.4-0.894,0.894-0.894h19.643c0.493,0,0.893,0.4,0.893,0.894V21.653L179,21.653z"/>
	</g>
</g>
<g>
	<g>
		<circle cx="162.238" cy="16.265" r="2.679"/>
	</g>
</g>
<path fill="#89DBD4" stroke="#89DBD4" stroke-width="2" stroke-miterlimit="10" d="M164.298,11.65c-0.196,0.195-0.196,0.492,0,0.688
	l4.35,4.35c0.098,0.098,0.221,0.146,0.344,0.146s0.245-0.049,0.344-0.146l4.35-4.35c0.196-0.195,0.196-0.492,0-0.688
	c-0.197-0.197-0.491-0.197-0.688,0l-3.514,3.514V2.092c0-0.271-0.222-0.492-0.491-0.492c-0.271,0-0.491,0.221-0.491,0.492v13.072
	l-3.514-3.514C164.789,11.453,164.494,11.453,164.298,11.65z"/>
<g>
	<path fill="#273992" d="M2.154,15.155H6.1v2.628H2.154V15.155z"/>
	<path fill="#273992" d="M7.391,9.884h3.945v2.63H7.391V9.884z"/>
	<path fill="#273992" d="M12.646,12.403h3.945v2.632h-3.945V12.403z"/>
	<path fill="#273992" d="M17.906,9.537h3.941v2.631h-3.941V9.537z"/>
	<path fill="#273992" d="M21.848,13.484h-3.941v8.228h-1.314v-5.36h-3.945v5.36h-1.311V13.83H7.391v7.882H6.1v-2.611H2.154v2.611
		H0.785v1.314h1.369H6.1h1.291h3.945h1.311h3.945h1.314h3.941h1.373v-1.314h-1.373V13.484z"/>
	<path fill="#C4EDE9" d="M19.285,0.578v1.315h1.691l-6.059,6.061L9.9,2.933L0.79,12.05l0.93,0.931L9.9,4.793l5.018,5.021l6.986-6.99
		v1.696h1.316V0.578H19.285z"/>
</g>
</svg>
