<?xml version="1.0" encoding="utf-8"?>
<!-- Generator: Adobe Illustrator 16.0.0, SVG Export Plug-In . SVG Version: 6.00 Build 0)  -->
<!DOCTYPE svg PUBLIC "-//W3C//DTD SVG 1.1//EN" "http://www.w3.org/Graphics/SVG/1.1/DTD/svg11.dtd">
<svg version="1.1" id="Layer_1" xmlns="http://www.w3.org/2000/svg" xmlns:xlink="http://www.w3.org/1999/xlink" x="0px" y="0px"
	 width="24px" height="24px" viewBox="0 0 24 24" enable-background="new 0 0 24 24" xml:space="preserve">
<path fill="none" d="M363.055-17.116h24v24h-24V-17.116z"/>
<g>
</g>
<g>
	<g>
		<path fill="#273992" d="M178.107,11.309h-19.643c-1.479,0-2.679,1.199-2.679,2.679v12.5c0,1.479,1.199,2.679,2.679,2.679h19.643
			c1.479,0,2.679-1.199,2.679-2.679v-12.5C180.786,12.508,179.587,11.309,178.107,11.309z M179,21.653l-5.618-5.619
			c-0.349-0.349-0.914-0.349-1.263,0l-7.404,7.404l-2.94-2.939c-0.349-0.35-0.914-0.35-1.262,0l-2.941,2.939v-9.451
			c0-0.493,0.4-0.894,0.894-0.894h19.643c0.493,0,0.893,0.4,0.893,0.894V21.653L179,21.653z"/>
	</g>
</g>
<g>
	<g>
		<circle cx="162.238" cy="16.265" r="2.679"/>
	</g>
</g>
<path fill="#89DBD4" stroke="#89DBD4" stroke-width="2" stroke-miterlimit="10" d="M164.298,11.65c-0.196,0.195-0.196,0.492,0,0.688
	l4.35,4.35c0.098,0.098,0.221,0.146,0.344,0.146s0.245-0.049,0.344-0.146l4.35-4.35c0.196-0.195,0.196-0.492,0-0.688
	c-0.197-0.197-0.491-0.197-0.688,0l-3.514,3.514V2.092c0-0.271-0.222-0.492-0.491-0.492c-0.271,0-0.491,0.221-0.491,0.492v13.072
	l-3.514-3.514C164.789,11.453,164.494,11.453,164.298,11.65z"/>
<g>
	<g>
		<path fill="#273992" d="M21.167,3.445H2.833c-1.38,0-2.5,1.12-2.5,2.5v11.667c0,1.381,1.12,2.5,2.5,2.5h18.334
			c1.381,0,2.5-1.119,2.5-2.5V5.946C23.667,4.565,22.548,3.445,21.167,3.445z M22.001,13.101l-5.245-5.244
			c-0.325-0.326-0.853-0.326-1.179,0l-6.911,6.911l-2.744-2.744c-0.326-0.326-0.853-0.326-1.179,0L2,14.768V5.946
			c0-0.46,0.374-0.833,0.833-0.833h18.334c0.461,0,0.834,0.373,0.834,0.833V13.101L22.001,13.101z"/>
	</g>
</g>
<g>
	<g>
		<circle fill="#C4EDE9" cx="7.833" cy="9.279" r="2.5"/>
	</g>
</g>
</svg>
