<?xml version="1.0" encoding="utf-8"?>
<!-- Generator: Adobe Illustrator 16.0.0, SVG Export Plug-In . SVG Version: 6.00 Build 0)  -->
<!DOCTYPE svg PUBLIC "-//W3C//DTD SVG 1.1//EN" "http://www.w3.org/Graphics/SVG/1.1/DTD/svg11.dtd">
<svg version="1.1" id="Layer_1" xmlns="http://www.w3.org/2000/svg" xmlns:xlink="http://www.w3.org/1999/xlink" x="0px" y="0px"
	 width="24px" height="24px" viewBox="0 0 24 24" enable-background="new 0 0 24 24" xml:space="preserve">
<path fill="#273992" stroke="#273992" stroke-miterlimit="10" d="M22.465,10.102H12c-0.526,0-0.951,0.425-0.951,0.951v8.562
	c0,0.526,0.425,0.952,0.951,0.952h7.323l2.614,1.742c0.446,0.286,1.04,0.158,1.326-0.287c0.097-0.151,0.151-0.325,0.152-0.504
	V11.053C23.416,10.527,22.991,10.102,22.465,10.102z M17.727,17.187c-0.233,0.47-0.805,0.659-1.274,0.425c0,0,0,0-0.002,0
	l-1.902-0.951l0.851-1.702l1.052,0.526l1.478-2.955l1.702,0.852L17.727,17.187z"/>
<path fill="#89DBD4" stroke="#89DBD4" stroke-miterlimit="10" d="M8.194,1.539c-4.195,0-7.611,2.987-7.611,6.66
	c0,1.815,0.833,3.525,2.302,4.775L2.51,14.649c-0.107,0.519,0.227,1.026,0.746,1.134c0.195,0.041,0.398,0.019,0.58-0.062
	l2.374-1.095c1.277,0.302,2.607,0.307,3.887,0.021v-3.595C10.099,10.002,10.95,9.151,12,9.15h3.728
	c0.052-0.315,0.078-0.632,0.078-0.951C15.806,4.526,12.392,1.539,8.194,1.539z M10.175,9.19L8.83,10.536L7.6,9.306l-1.23,1.23
	L5.024,9.19l1.23-1.229l-1.23-1.23L6.37,5.384l1.23,1.23l1.23-1.23l1.345,1.347l-1.23,1.23L10.175,9.19z"/>
</svg>
