<?xml version="1.0" encoding="utf-8"?>
<!-- Generator: Adobe Illustrator 16.0.0, SVG Export Plug-In . SVG Version: 6.00 Build 0)  -->
<!DOCTYPE svg PUBLIC "-//W3C//DTD SVG 1.1//EN" "http://www.w3.org/Graphics/SVG/1.1/DTD/svg11.dtd">
<svg version="1.1" id="Layer_1" xmlns="http://www.w3.org/2000/svg" xmlns:xlink="http://www.w3.org/1999/xlink" x="0px" y="0px"
	 width="24px" height="24px" viewBox="0 0 24 24" enable-background="new 0 0 24 24" xml:space="preserve">
<g>
	<path fill="#FFFFFF" d="M8.221,12.305c0.357,0.48,0.25,0.08,0.25,9.653c0,0.855,1.053,1.347,1.796,0.833
		c3.174-2.219,3.808-2.41,3.808-3.449c0-6.976-0.089-6.582,0.251-7.037l5.152-6.505H3.068L8.221,12.305z"/>
	<path fill="#FFFFFF" d="M21.427,2.411c-0.186-0.327-0.547-0.53-0.944-0.53H2.064c-0.859,0-1.364,0.898-0.871,1.551
		c0.004,0.006-0.056-0.07,0.894,1.131h18.372C21.27,3.539,21.811,3.097,21.427,2.411z"/>
</g>
</svg>
