<?xml version="1.0" encoding="utf-8"?>
<!-- Generator: Adobe Illustrator 16.0.0, SVG Export Plug-In . SVG Version: 6.00 Build 0)  -->
<!DOCTYPE svg PUBLIC "-//W3C//DTD SVG 1.1//EN" "http://www.w3.org/Graphics/SVG/1.1/DTD/svg11.dtd">
<svg version="1.1" id="Layer_1" xmlns="http://www.w3.org/2000/svg" xmlns:xlink="http://www.w3.org/1999/xlink" x="0px" y="0px"
	 width="24px" height="24px" viewBox="0 0 24 24" enable-background="new 0 0 24 24" xml:space="preserve">
<path fill="#273992" stroke="#273992" stroke-miterlimit="10" d="M7.886,15.481h8.228l1.481,3.619h3.455L13.234,1h-2.469
	L2.95,19.101h3.455L7.886,15.481z M12,4.258l3.077,8.261H8.922L12,4.258z"/>
<path fill="#273992" d="M595.262-150.039c6.366-4.858,14.893-5.806,22.174-2.473l177.123,81.051l179.084-150.245
	c9.182-7.695,22.859-6.497,30.556,2.681c7.704,9.172,6.5,22.853-2.674,30.552L811.936-29.421
	c-6.412,5.378-15.352,6.591-22.961,3.104l-177.75-81.338L595.262-150.039z"/>
<path fill="#273992" d="M684.427-25.455h-57.038c-9.431,0-17.078,6.414-17.078,14.325v221.655c0,7.91,7.647,14.324,17.078,14.324
	h57.038c9.433,0,17.078-6.414,17.078-14.324V-11.127C701.505-19.041,693.859-25.455,684.427-25.455z"/>
<path fill="#89DBD4" d="M836.686,32.982h-57.039c-9.433,0-17.078,6.414-17.078,14.322v163.223c0,7.908,7.646,14.322,17.078,14.322
	h57.039c9.431,0,17.076-6.414,17.076-14.322V47.307C853.762,39.396,846.115,32.982,836.686,32.982z"/>
<path fill="#273992" d="M988.936-74.147h-57.037c-9.433,0-17.078,6.413-17.078,14.322v270.352c0,7.91,7.646,14.324,17.078,14.324
	h57.037c9.433,0,17.078-6.414,17.078-14.324V-59.825C1006.014-67.736,998.367-74.147,988.936-74.147z"/>
<path fill="#89DBD4" d="M662.273-132.794c0,29.749-24.117,53.862-53.861,53.862c-29.745,0-53.859-24.113-53.859-53.862
	c0-29.746,24.114-53.858,53.859-53.858S662.273-162.54,662.273-132.794z"/>
<path fill="#89DBD4" d="M851.856-46.039c0,29.745-24.111,53.864-53.856,53.864c-29.746,0-53.863-24.119-53.863-53.864
	s24.117-53.86,53.863-53.86C827.745-99.899,851.856-75.783,851.856-46.039z"/>
<path fill="#89DBD4" d="M1041.447-205.085c0,29.746-24.118,53.858-53.86,53.858c-29.748,0-53.858-24.112-53.858-53.858
	c0-29.75,24.108-53.862,53.858-53.862C1017.329-258.948,1041.447-234.835,1041.447-205.085z"/>
<rect x="1.063" y="20.292" fill="#89DBD4" stroke="#89DBD4" stroke-width="0.75" stroke-miterlimit="10" width="21.876" height="3.125"/>
</svg>
