<?xml version="1.0" encoding="utf-8"?>
<!-- Generator: Adobe Illustrator 16.0.0, SVG Export Plug-In . SVG Version: 6.00 Build 0)  -->
<!DOCTYPE svg PUBLIC "-//W3C//DTD SVG 1.1//EN" "http://www.w3.org/Graphics/SVG/1.1/DTD/svg11.dtd">
<svg version="1.1" id="Layer_1" xmlns="http://www.w3.org/2000/svg" xmlns:xlink="http://www.w3.org/1999/xlink" x="0px" y="0px"
	 width="24px" height="24px" viewBox="0 0 24 24" enable-background="new 0 0 24 24" xml:space="preserve">
<g>
	<path fill="#273992" stroke="#273992" stroke-width="0.5" stroke-miterlimit="10" d="M3.884,16.862
		c1.115,0,2.023-0.909,2.023-2.025c0-1.115-0.908-2.025-2.023-2.025c-1.118,0-2.025,0.91-2.025,2.025
		C1.859,15.953,2.767,16.862,3.884,16.862z"/>
	<path fill="#273992" stroke="#273992" stroke-width="0.5" stroke-miterlimit="10" d="M5.35,17.873
		c-0.443,0.215-0.941,0.337-1.465,0.337c-0.526,0-1.024-0.122-1.468-0.337c-1.08,0.388-1.917,1.243-1.917,2.64v1.07h6.767v-1.07
		C7.267,19.116,6.431,18.261,5.35,17.873L5.35,17.873z"/>
	<circle fill="#273992" stroke="#273992" stroke-width="0.5" stroke-miterlimit="10" cx="12" cy="14.837" r="2.025"/>
	<path fill="#273992" stroke="#273992" stroke-width="0.5" stroke-miterlimit="10" d="M13.466,17.873
		c-0.444,0.215-0.94,0.337-1.466,0.337c-0.526,0-1.024-0.122-1.467-0.337c-1.08,0.388-1.917,1.243-1.917,2.64v1.07h6.767v-1.07
		C15.383,19.116,14.547,18.261,13.466,17.873L13.466,17.873z"/>
	<path fill="#273992" stroke="#273992" stroke-width="0.5" stroke-miterlimit="10" d="M21.581,17.873
		c-0.443,0.215-0.94,0.337-1.465,0.337c-0.526,0-1.023-0.122-1.467-0.337c-1.081,0.388-1.918,1.243-1.918,2.64v1.07H23.5v-1.07
		C23.5,19.116,22.662,18.261,21.581,17.873L21.581,17.873z"/>
	<path fill="#273992" stroke="#273992" stroke-width="0.5" stroke-miterlimit="10" d="M20.116,16.862
		c1.115,0,2.024-0.909,2.024-2.025c0-1.115-0.909-2.025-2.024-2.025c-1.117,0-2.024,0.91-2.024,2.025
		C18.092,15.953,18.999,16.862,20.116,16.862z"/>
	<path fill="#89DBD4" stroke="#89DBD4" stroke-width="0.5" stroke-miterlimit="10" d="M12,1.856c-2.59,0-4.698,2.108-4.698,4.698
		c0,2.59,2.108,4.698,4.698,4.698c2.59,0,4.697-2.107,4.697-4.698C16.697,3.964,14.59,1.856,12,1.856L12,1.856z M11.516,8.734
		L9.553,6.771l0.954-0.953l1.01,1.01l1.978-1.977l0.952,0.953L11.516,8.734z"/>
</g>
</svg>
