<?xml version="1.0" encoding="utf-8"?>
<!-- Generator: Adobe Illustrator 16.0.0, SVG Export Plug-In . SVG Version: 6.00 Build 0)  -->
<!DOCTYPE svg PUBLIC "-//W3C//DTD SVG 1.1//EN" "http://www.w3.org/Graphics/SVG/1.1/DTD/svg11.dtd">
<svg version="1.1" id="Layer_1" xmlns="http://www.w3.org/2000/svg" xmlns:xlink="http://www.w3.org/1999/xlink" x="0px" y="0px"
	 width="24px" height="24px" viewBox="0 0 24 24" enable-background="new 0 0 24 24" xml:space="preserve">
<g>
	<path fill="#89DBD4" stroke="#89DBD4" stroke-width="0.5" stroke-miterlimit="10" d="M15.737,6.645l-1.21,0.699l-0.36-0.307
		c-0.315-0.268-0.668-0.473-1.049-0.609l-0.446-0.16V4.875h-1.344v1.392l-0.446,0.16c-0.38,0.136-0.733,0.342-1.049,0.609
		l-0.36,0.307l-1.21-0.699L7.591,7.809L8.788,8.5L8.704,8.965c-0.084,0.455-0.084,0.771,0,1.226l0.084,0.465l-1.197,0.691
		l0.672,1.165l1.21-0.699l0.36,0.307c0.315,0.268,0.668,0.473,1.049,0.608l0.446,0.158v1.395h1.344v-1.393l0.446-0.159
		c0.381-0.137,0.733-0.342,1.049-0.609l0.36-0.307l1.21,0.699l0.672-1.165l-1.197-0.691l0.084-0.465
		c0.084-0.455,0.084-0.771,0-1.226L15.212,8.5l1.197-0.691L15.737,6.645z M12,11.594c-1.111,0-2.016-0.904-2.016-2.016
		S10.889,7.563,12,7.563s2.016,0.904,2.016,2.016S13.111,11.594,12,11.594L12,11.594z"/>
	<circle fill="#89DBD4" stroke="#89DBD4" stroke-width="0.5" stroke-miterlimit="10" cx="12" cy="9.578" r="0.672"/>
	<path fill="#273992" stroke="#273992" stroke-width="0.5" stroke-miterlimit="10" d="M23.467,12.266
		c0-1.251-0.553-2.442-1.449-3.327c0.352-2.12-0.846-4.269-2.959-5.077c-0.694-1.82-2.409-3.019-4.371-3.019
		c-0.96,0-1.897,0.302-2.688,0.859c-0.79-0.558-1.727-0.859-2.688-0.859c-1.961,0-3.677,1.199-4.371,3.019
		c-2.111,0.806-3.311,2.954-2.96,5.077c-0.896,0.884-1.448,2.075-1.448,3.327c0,2.896,2.665,5.104,5.453,4.643
		c1.56,1.584,4.194,1.829,6.014,0.545c0.626,0.441,1.344,0.723,2.094,0.82c0.357,1.344,1.872,1.723,3.119,2.034
		c1.479,0.37,2.178,0.626,2.178,1.364v0.672h2.688v-2.016c0-1.47-0.679-2.784-1.737-3.647
		C22.137,16.018,23.467,14.289,23.467,12.266z M16.685,9.956l1.56,0.9l-2.016,3.492l-1.573-0.91
		c-0.204,0.141-0.418,0.266-0.64,0.371v1.816H9.984v-1.816c-0.222-0.105-0.436-0.23-0.639-0.371l-1.573,0.91l-2.016-3.492l1.559-0.9
		c-0.024-0.25-0.025-0.49,0-0.754l-1.559-0.9l2.016-3.492l1.573,0.91c0.204-0.141,0.417-0.265,0.639-0.371V3.531h4.031v1.816
		c0.222,0.106,0.436,0.23,0.64,0.371l1.573-0.91l2.016,3.492l-1.56,0.9C16.709,9.451,16.71,9.691,16.685,9.956L16.685,9.956z"/>
</g>
</svg>
