<?xml version="1.0" encoding="utf-8"?>
<!-- Generator: Adobe Illustrator 16.0.0, SVG Export Plug-In . SVG Version: 6.00 Build 0)  -->
<!DOCTYPE svg PUBLIC "-//W3C//DTD SVG 1.1//EN" "http://www.w3.org/Graphics/SVG/1.1/DTD/svg11.dtd">
<svg version="1.1" id="Capa_1" xmlns="http://www.w3.org/2000/svg" xmlns:xlink="http://www.w3.org/1999/xlink" x="0px" y="0px"
	 width="250px" height="250px" viewBox="0 0 250 250" enable-background="new 0 0 250 250" xml:space="preserve">
<path fill="#273992" stroke="#273992" stroke-width="6" stroke-miterlimit="10" d="M183.597,163.969h27.338v15.62h-27.338V163.969z"
	/>
<path fill="#273992" stroke="#273992" stroke-width="6" stroke-miterlimit="10" d="M230.467,163.969h-11.718v15.62h11.718
	c4.318,0,7.814-3.496,7.814-7.806C238.281,167.464,234.785,163.969,230.467,163.969z"/>
<path fill="#273992" stroke="#273992" stroke-width="6" stroke-miterlimit="10" d="M97.658,222.246
	c7.089-1.018,13.297-4.752,17.545-10.133l-17.545-10.134V222.246z"/>
<path fill="#273992" stroke="#273992" stroke-width="6" stroke-miterlimit="10" d="M72.298,178.314l17.545,10.133v-20.267
	C82.754,169.208,76.541,172.942,72.298,178.314z"/>
<path fill="#273992" stroke="#273992" stroke-width="6" stroke-miterlimit="10" d="M97.658,168.181v20.267l17.545-10.133
	C110.959,172.942,104.747,169.208,97.658,168.181z"/>
<path fill="#273992" stroke="#273992" stroke-width="6" stroke-miterlimit="10" d="M89.843,222.246v-20.267l-17.545,10.134
	C76.546,217.494,82.754,221.229,89.843,222.246z"/>
<path fill="#273992" stroke="#273992" stroke-width="6" stroke-miterlimit="10" d="M53.806,163.969H11.719v62.499h42.087
	c-6.762-8.629-10.837-19.461-10.837-31.25C42.969,183.43,47.044,172.598,53.806,163.969z M27.344,218.653h-7.811v-7.814h7.811
	V218.653z M27.344,179.589h-7.811v-7.806h7.811V179.589z"/>
<path fill="#273992" stroke="#273992" stroke-width="6" stroke-miterlimit="10" d="M68.377,185.076
	c-1.261,3.142-1.969,6.558-1.969,10.142c0,3.585,0.708,7.001,1.969,10.134l17.559-10.134L68.377,185.076z"/>
<path fill="#273992" stroke="#273992" stroke-width="6" stroke-miterlimit="10" d="M144.532,195.218
	c0,11.789-4.071,22.621-10.833,31.25h42.083v-62.499h-42.083C140.461,172.598,144.532,183.43,144.532,195.218z M160.152,171.783
	h7.814v7.806h-7.814V171.783z M160.152,210.839h7.814v7.814h-7.814V210.839z"/>
<path fill="#273992" stroke="#273992" stroke-width="6" stroke-miterlimit="10" d="M68.523,62.577l13.51-13.51L93.75,60.785
	l11.718-11.718l13.51,13.51l3.482-13.935l22.223,12.696c-7.982-17.691-20.736-33.184-36.662-44.334l-2.296-1.611
	c-7.063-4.943-16.891-4.943-23.948,0l-2.301,1.611C63.549,28.155,50.801,43.643,42.818,61.338l22.223-12.696L68.523,62.577z"/>
<path fill="#273992" stroke="#273992" stroke-width="6" stroke-miterlimit="10" d="M93.75,144.437
	c12.307,0,23.604,4.407,32.4,11.717h37.348c-2.479-17.921-7.275-35.431-14.311-52.104l-7.479-4.978l-15.819,23.736l-19.709-15.771
	l-12.43,16.567l-12.425-16.567l-19.713,15.771l-15.82-23.736l-7.469,4.978c-7.041,16.669-11.842,34.184-14.319,52.104H61.35
	C70.147,148.844,81.44,144.437,93.75,144.437z"/>
<path fill="#273992" stroke="#273992" stroke-width="6" stroke-miterlimit="10" d="M63.386,111.381l19.355-15.483L93.75,110.58
	l11.01-14.687l19.355,15.483l15.426-23.144l16.611,11.076l-0.602-1.624c-4.054-10.811-9.531-21.032-16.231-30.422l-11.774-6.726
	l-4.328,17.315l-17.749-17.735L93.75,71.834L82.033,60.117l-17.745,17.74l-4.327-17.315l-11.775,6.73
	C41.481,76.658,36.008,86.88,31.959,97.69l-0.611,1.624L47.96,88.238L63.386,111.381z"/>
<path fill="#273992" stroke="#273992" stroke-width="6" stroke-miterlimit="10" d="M119.124,185.076l-17.563,10.142l17.563,10.134
	c1.257-3.133,1.969-6.549,1.969-10.134C121.093,191.634,120.38,188.218,119.124,185.076z"/>
<path fill="#273992" stroke="#273992" stroke-width="6" stroke-miterlimit="10" d="M93.75,152.251
	c-23.691,0-42.967,19.275-42.967,42.967c0,23.692,19.275,42.968,42.967,42.968c23.692,0,42.968-19.275,42.968-42.968
	C136.718,171.526,117.442,152.251,93.75,152.251z M93.75,230.371c-19.381,0-35.157-15.771-35.157-35.153
	c0-19.391,15.775-35.161,35.157-35.161c19.382,0,35.157,15.771,35.157,35.161C128.907,214.6,113.132,230.371,93.75,230.371z"/>
</svg>
