<?xml version="1.0" encoding="utf-8"?>
<!-- Generator: Adobe Illustrator 24.1.2, SVG Export Plug-In . SVG Version: 6.00 Build 0)  -->
<svg version="1.1" id="Layer_1" xmlns="http://www.w3.org/2000/svg" xmlns:xlink="http://www.w3.org/1999/xlink" x="0px" y="0px"
	 viewBox="0 0 24 24" style="enable-background:new 0 0 24 24;" xml:space="preserve">
<style type="text/css">
	.st0{fill:#FFFFFF;}
</style>
<path class="st0" d="M23.3,20.8h-0.7V6c0-0.4-0.3-0.7-0.7-0.7H19c-0.4,0-0.7,0.3-0.7,0.7v14.8h-1.4V10.2c0-0.4-0.3-0.7-0.7-0.7h-2.8
	c-0.4,0-0.7,0.3-0.7,0.7v10.6h-1.4v-5c0-0.4-0.3-0.7-0.7-0.7H7.8c-0.4,0-0.7,0.3-0.7,0.7v5H5.7V13c0-0.4-0.3-0.7-0.7-0.7H2.2
	c-0.4,0-0.7,0.3-0.7,0.7v7.8H0.7c-0.4,0-0.7,0.3-0.7,0.7c0,0.4,0.3,0.7,0.7,0.7h22.6c0.4,0,0.7-0.3,0.7-0.7
	C24,21.1,23.7,20.8,23.3,20.8z"/>
</svg>
