<?xml version="1.0" encoding="utf-8"?>
<!-- Generator: Adobe Illustrator 24.1.2, SVG Export Plug-In . SVG Version: 6.00 Build 0)  -->
<svg version="1.1" id="Layer_1" xmlns="http://www.w3.org/2000/svg" xmlns:xlink="http://www.w3.org/1999/xlink" x="0px" y="0px"
	 viewBox="0 0 250 250" style="enable-background:new 0 0 250 250;" xml:space="preserve">
<style type="text/css">
	.st0{fill:#3F51B5;}
</style>
<path class="st0" d="M240.8,197.2h-7.2V45.6c0-4.1-3.1-7.2-7.2-7.2h-29.7c-4.1,0-7.2,3.1-7.2,7.2v151.6h-14.3V88.6
	c0-4.1-3.1-7.2-7.2-7.2h-28.7c-4.1,0-7.2,3.1-7.2,7.2v108.6h-14.3V146c0-4.1-3.1-7.2-7.2-7.2H82.1c-4.1,0-7.2,3.1-7.2,7.2v51.2H60.6
	v-79.9c0-4.1-3.1-7.2-7.2-7.2H24.7c-4.1,0-7.2,3.1-7.2,7.2v79.9H9.4c-4.1,0-7.2,3.1-7.2,7.2c0,4.1,3.1,7.2,7.2,7.2h231.5
	c4.1,0,7.2-3.1,7.2-7.2C248,200.3,244.9,197.2,240.8,197.2z"/>
</svg>
