<?xml version="1.0" encoding="utf-8"?>
<!-- Generator: Adobe Illustrator 24.1.3, SVG Export Plug-In . SVG Version: 6.00 Build 0)  -->
<svg version="1.1" id="Capa_1" xmlns="http://www.w3.org/2000/svg" xmlns:xlink="http://www.w3.org/1999/xlink" x="0px" y="0px"
	 viewBox="0 0 176.5 176.5" style="enable-background:new 0 0 176.5 176.5;" xml:space="preserve">
<style type="text/css">
	.st0{fill:#705EC8;stroke:#705EC8;stroke-width:6;stroke-miterlimit:10;}
</style>
<g>
	<path class="st0" d="M152.9,85.9L93,36.5c-2.8-2.3-6.8-2.3-9.5,0L23.6,85.9c-1.7,1.4-2.7,3.5-2.7,5.8v74.5c0,4.1,3.4,7.5,7.5,7.5
		h119.8c4.1,0,7.5-3.4,7.5-7.5V91.7C155.7,89.5,154.7,87.3,152.9,85.9z M96.2,158.7H80.3v-41.5h15.9L96.2,158.7L96.2,158.7z
		 M140.7,158.7h-29.5v-49c0-4.1-3.4-7.5-7.5-7.5H72.8c-4.1,0-7.5,3.4-7.5,7.5v49H35.9V95.2L88.3,52l52.4,43.2V158.7z"/>
	<path class="st0" d="M173.7,70.9c-16.7-13.4-32.5-26.2-49.6-40.3c-5.1-4.6-10.5-8.9-15.7-13.1c-5.1-4.1-10.3-8.4-15.2-12.7
		c-2.9-2.6-7.2-2.6-10,0C78.4,9.1,73.1,13.3,68,17.5c-5.2,4.2-10.6,8.6-15.7,13.1C35.3,44.7,19.5,57.5,2.8,70.9
		c-3.2,2.6-3.8,7.3-1.2,10.5c2.6,3.2,7.3,3.8,10.5,1.2C29,69.1,44.8,56.2,62,42.1c0.1-0.1,0.2-0.1,0.3-0.2
		c4.9-4.4,10.1-8.6,15.2-12.7c3.6-2.9,7.2-5.8,10.8-8.9c3.6,3,7.2,6,10.8,8.9c5.1,4.1,10.3,8.4,15.2,12.7c0.1,0.1,0.2,0.1,0.3,0.2
		c17.2,14.2,33,27,49.8,40.5c1.4,1.1,3,1.6,4.7,1.6c2.2,0,4.4-1,5.9-2.8C177.5,78.2,177,73.5,173.7,70.9z"/>
</g>
</svg>
