<?xml version="1.0" encoding="utf-8"?>
<!-- Generator: Adobe Illustrator 16.0.0, SVG Export Plug-In . SVG Version: 6.00 Build 0)  -->
<!DOCTYPE svg PUBLIC "-//W3C//DTD SVG 1.1//EN" "http://www.w3.org/Graphics/SVG/1.1/DTD/svg11.dtd">
<svg version="1.1" id="Layer_1" xmlns="http://www.w3.org/2000/svg" xmlns:xlink="http://www.w3.org/1999/xlink" x="0px" y="0px"
	 width="24px" height="24px" viewBox="0 0 24 24" enable-background="new 0 0 24 24" xml:space="preserve">
<path fill="none" d="M363.055-17.116h24v24h-24V-17.116z"/>
<g>
</g>
<g>
	<g>
		<path fill="#273992" d="M178.107,11.309h-19.643c-1.479,0-2.679,1.199-2.679,2.679v12.5c0,1.479,1.199,2.679,2.679,2.679h19.643
			c1.479,0,2.679-1.199,2.679-2.679v-12.5C180.786,12.508,179.587,11.309,178.107,11.309z M179,21.653l-5.618-5.619
			c-0.349-0.349-0.914-0.349-1.263,0l-7.404,7.404l-2.94-2.939c-0.349-0.35-0.914-0.35-1.262,0l-2.941,2.939v-9.451
			c0-0.493,0.4-0.894,0.894-0.894h19.643c0.493,0,0.893,0.4,0.893,0.894V21.653L179,21.653z"/>
	</g>
</g>
<g>
	<g>
		<circle cx="162.238" cy="16.265" r="2.679"/>
	</g>
</g>
<path fill="#89DBD4" stroke="#89DBD4" stroke-width="2" stroke-miterlimit="10" d="M164.298,11.65c-0.196,0.195-0.196,0.492,0,0.688
	l4.35,4.35c0.098,0.098,0.221,0.146,0.344,0.146s0.245-0.049,0.344-0.146l4.35-4.35c0.196-0.195,0.196-0.492,0-0.688
	c-0.197-0.197-0.491-0.197-0.688,0l-3.514,3.514V2.092c0-0.271-0.222-0.492-0.491-0.492c-0.271,0-0.491,0.221-0.491,0.492v13.072
	l-3.514-3.514C164.789,11.453,164.494,11.453,164.298,11.65z"/>
<g>
	<g>
	</g>
</g>
<g>
	<path fill="#273992" stroke="#273992" stroke-miterlimit="10" d="M19.732,7.118h-3.658c-0.25,0-0.456,0.206-0.456,0.457
		s0.206,0.458,0.456,0.458h3.658c0.756,0,1.372,0.617,1.372,1.372v10.975c0,0.754-0.616,1.371-1.372,1.371H5.1
		c-0.753,0-1.372-0.617-1.372-1.371V9.404c0-0.754,0.618-1.372,1.372-1.372h4.117c0.25,0,0.457-0.206,0.457-0.458
		S9.467,7.118,9.216,7.118H5.1c-1.257,0-2.286,1.029-2.286,2.286v10.975c0,1.257,1.029,2.285,2.286,2.285h14.633
		c1.257,0,2.287-1.028,2.287-2.285V9.404C22.02,8.147,20.989,7.118,19.732,7.118z"/>
	<path fill="#89DBD4" stroke="#89DBD4" stroke-miterlimit="10" d="M8.049,11.21c-0.183,0.183-0.183,0.457,0,0.642l4.046,4.044
		c0.092,0.091,0.206,0.138,0.321,0.138c0.114,0,0.229-0.047,0.32-0.138l4.047-4.044c0.183-0.185,0.183-0.458,0-0.642
		s-0.456-0.183-0.639,0l-3.271,3.27V2.317c0-0.251-0.205-0.457-0.457-0.457c-0.25,0-0.457,0.206-0.457,0.457V14.48l-3.27-3.27
		C8.507,11.027,8.232,11.027,8.049,11.21z"/>
</g>
</svg>
