<?xml version="1.0" encoding="utf-8"?>
<!-- Generator: Adobe Illustrator 24.1.3, SVG Export Plug-In . SVG Version: 6.00 Build 0)  -->
<svg version="1.1" id="Capa_1" xmlns="http://www.w3.org/2000/svg" xmlns:xlink="http://www.w3.org/1999/xlink" x="0px" y="0px"
	 viewBox="0 0 209.3 209.3" style="enable-background:new 0 0 209.3 209.3;" xml:space="preserve">
<style type="text/css">
	.st0{fill:#705EC8;stroke:#705EC8;stroke-width:4;stroke-miterlimit:10;}
</style>
<path class="st0" d="M104.6,15C55.2,15,15,55.2,15,104.6c0,49.4,40.2,89.6,89.6,89.6s89.6-40.2,89.6-89.6
	C194.3,55.2,154.1,15,104.6,15z M104.6,181.4c-3.4,0-8.9-6.2-13.5-20c-2.1-6.4-3.9-13.8-5.2-21.8c6-0.5,12.3-0.7,18.7-0.7
	s12.6,0.3,18.7,0.7c-1.3,8-3,15.4-5.2,21.8C113.6,175.3,108.1,181.4,104.6,181.4z M104.6,126c-6.9,0-13.7,0.3-20.3,0.8
	c-0.7-7.1-1-14.6-1-22.2s0.4-15.1,1-22.2c6.5,0.5,13.3,0.8,20.3,0.8c7,0,13.7-0.3,20.3-0.8c0.7,7.1,1,14.6,1,22.2
	c0,7.6-0.4,15.1-1,22.2C118.4,126.3,111.6,126,104.6,126z M27.8,104.6c0-11.9,2.7-23.2,7.6-33.2c9.5,4.3,22,7.6,36.2,9.6
	c-0.7,7.7-1.1,15.7-1.1,23.6s0.4,15.9,1.1,23.6c-14.2,2-26.7,5.3-36.2,9.6C30.6,127.8,27.8,116.5,27.8,104.6z M104.6,27.8
	c3.4,0,8.9,6.2,13.5,20c2.1,6.4,3.9,13.8,5.2,21.8c-6,0.5-12.3,0.7-18.7,0.7c-6.4,0-12.6-0.3-18.7-0.7c1.3-8,3-15.4,5.2-21.8
	C95.7,34,101.2,27.8,104.6,27.8z M137.7,81c14.2-2,26.7-5.3,36.2-9.6c4.9,10.1,7.6,21.3,7.6,33.2c0,11.9-2.7,23.2-7.6,33.2
	c-9.5-4.3-22-7.6-36.2-9.6c0.7-7.7,1.1-15.7,1.1-23.6C138.8,96.7,138.4,88.8,137.7,81z M167.3,60.3c-8.1,3.5-18.9,6.3-31.2,8
	c-2.3-14.9-6.1-28.2-11.4-37.8C142.1,35.2,157.1,45.9,167.3,60.3z M84.6,30.5c-5.2,9.6-9.1,22.9-11.4,37.8
	c-12.3-1.7-23.1-4.5-31.2-8C52.2,45.9,67.2,35.2,84.6,30.5z M42,149c8.1-3.5,18.9-6.3,31.2-8c2.3,14.9,6.1,28.2,11.4,37.8
	C67.2,174,52.2,163.3,42,149z M124.7,178.8c5.2-9.6,9.1-22.9,11.4-37.8c12.3,1.7,23.1,4.5,31.2,8C157.1,163.3,142.1,174,124.7,178.8
	z"/>
</svg>
