<?xml version="1.0" encoding="utf-8"?>
<!-- Generator: Adobe Illustrator 16.0.0, SVG Export Plug-In . SVG Version: 6.00 Build 0)  -->
<!DOCTYPE svg PUBLIC "-//W3C//DTD SVG 1.1//EN" "http://www.w3.org/Graphics/SVG/1.1/DTD/svg11.dtd">
<svg version="1.1" id="Layer_1" xmlns="http://www.w3.org/2000/svg" xmlns:xlink="http://www.w3.org/1999/xlink" x="0px" y="0px"
	 width="24px" height="24px" viewBox="0 0 24 24" enable-background="new 0 0 24 24" xml:space="preserve">
<path fill="none" d="M-1.185-0.833h25.666v25.666H-1.185V-0.833z"/>
<g>
	<path fill="#89DBD4" stroke="#89DBD4" stroke-miterlimit="10" d="M22.795,3.472c-0.438-0.438-1.146-0.437-1.584,0L11.16,13.525
		l-4.631-4.63c-0.438-0.438-1.147-0.438-1.584,0c-0.437,0.437-0.437,1.147,0,1.584l5.423,5.422c0.21,0.21,0.495,0.329,0.792,0.329
		c0.297,0,0.582-0.119,0.792-0.329L22.795,5.056C23.232,4.619,23.232,3.909,22.795,3.472z"/>
	<path fill="#273992" stroke="#273992" stroke-miterlimit="10" d="M20.377,10.65c-0.619,0-1.121,0.501-1.121,1.121v8.299H3.116V3.93
		h12.78c0.619,0,1.119-0.501,1.119-1.12s-0.5-1.12-1.119-1.12h-13.9c-0.619,0-1.121,0.501-1.121,1.12v18.38
		c0,0.619,0.501,1.12,1.121,1.12h18.38c0.619,0,1.119-0.501,1.119-1.12v-9.418C21.496,11.152,20.996,10.65,20.377,10.65z"/>
</g>
</svg>
