<?xml version="1.0" encoding="utf-8"?>
<!-- Generator: Adobe Illustrator 16.0.0, SVG Export Plug-In . SVG Version: 6.00 Build 0)  -->
<!DOCTYPE svg PUBLIC "-//W3C//DTD SVG 1.1//EN" "http://www.w3.org/Graphics/SVG/1.1/DTD/svg11.dtd">
<svg version="1.1" id="Layer_1" xmlns="http://www.w3.org/2000/svg" xmlns:xlink="http://www.w3.org/1999/xlink" x="0px" y="0px"
	 width="24px" height="24px" viewBox="0 0 24 24" enable-background="new 0 0 24 24" xml:space="preserve">
<image overflow="visible" width="1366" height="768" xlink:href="9338BB86.jpg"  transform="matrix(1 0 0 1 214.957 -229.0068)">
</image>
<g>
	<path fill="#4252A0" stroke="#4252A0" stroke-miterlimit="10" d="M1,7.177h1.16v4.332h0.04c0.24-0.347,0.48-0.666,0.707-0.959
		l2.746-3.372h1.439l-3.252,3.812l3.505,5.171H5.972l-2.959-4.411L2.16,12.735v3.425H1V7.177z"/>
	<path fill="#4252A0" stroke="#4252A0" stroke-miterlimit="10" d="M8.321,6.698h1.173v9.462H8.321V6.698z"/>
	<path fill="#4252A0" stroke="#89DBD4" stroke-miterlimit="10" d="M15.04,16.16l-0.094-0.813h-0.04
		c-0.36,0.507-1.053,0.959-1.973,0.959c-1.306,0-1.972-0.919-1.972-1.853c0-1.56,1.386-2.412,3.877-2.398v-0.134
		c0-0.533-0.146-1.493-1.465-1.493c-0.601,0-1.227,0.187-1.68,0.479l-0.267-0.772c0.533-0.347,1.306-0.573,2.12-0.573
		c1.972,0,2.451,1.346,2.451,2.639v2.413c0,0.559,0.027,1.104,0.107,1.545H15.04z M14.866,12.868
		c-1.279-0.026-2.732,0.2-2.732,1.453c0,0.759,0.507,1.119,1.106,1.119c0.839,0,1.373-0.532,1.56-1.079
		c0.039-0.12,0.066-0.254,0.066-0.374V12.868z"/>
	<path fill="#4252A0" stroke="#4252A0" stroke-miterlimit="10" d="M18.215,9.709l1.413,3.812c0.146,0.427,0.308,0.933,0.414,1.319
		h0.025c0.12-0.387,0.254-0.879,0.414-1.346l1.279-3.786H23l-1.759,4.598c-0.841,2.213-1.413,3.346-2.213,4.038
		c-0.573,0.507-1.146,0.707-1.439,0.76l-0.293-0.985c0.293-0.093,0.68-0.28,1.026-0.574c0.319-0.253,0.719-0.706,0.985-1.306
		c0.054-0.12,0.094-0.213,0.094-0.279c0-0.067-0.026-0.161-0.08-0.307l-2.386-5.945H18.215z"/>
</g>
</svg>
