<?xml version="1.0" encoding="utf-8"?>
<!-- Generator: Adobe Illustrator 16.0.0, SVG Export Plug-In . SVG Version: 6.00 Build 0)  -->
<!DOCTYPE svg PUBLIC "-//W3C//DTD SVG 1.1//EN" "http://www.w3.org/Graphics/SVG/1.1/DTD/svg11.dtd">
<svg version="1.1" id="Layer_1" xmlns="http://www.w3.org/2000/svg" xmlns:xlink="http://www.w3.org/1999/xlink" x="0px" y="0px"
	 width="24px" height="24px" viewBox="0 0 24 24" enable-background="new 0 0 24 24" xml:space="preserve">
<path fill="#273992" d="M13,12.25h7v1.5h-7V12.25z M13,9.75h7v1.5h-7V9.75z M13,14.75h7v1.5h-7V14.75z M21,4.25H3c-1.1,0-2,0.9-2,2
	v13c0,1.1,0.9,2,2,2h18c1.1,0,2-0.9,2-2v-13C23,5.15,22.1,4.25,21,4.25z M21,19.25h-9v-13h9V19.25z"/>
<path fill="none" d="M-74,29h48v48h-48V29z M0,0h24v24H0V0z M0,0h24v24H0V0z"/>
<path fill="#89DBD4" d="M13.016,12.226h7v1.5h-7V12.226z M13.016,9.726h7v1.5h-7V9.726z M13.016,14.727h7v1.5h-7V14.727z"/>
</svg>
