<?xml version="1.0" encoding="utf-8"?>
<!-- Generator: Adobe Illustrator 24.1.3, SVG Export Plug-In . SVG Version: 6.00 Build 0)  -->
<svg version="1.1" id="Capa_1" xmlns="http://www.w3.org/2000/svg" xmlns:xlink="http://www.w3.org/1999/xlink" x="0px" y="0px"
	 viewBox="0 0 217.1 217.1" style="enable-background:new 0 0 217.1 217.1;" xml:space="preserve">
<style type="text/css">
	.st0{fill:#F72D66;stroke:#F72D66;stroke-width:6;stroke-miterlimit:10;}
</style>
<g>
	<path class="st0" d="M108.6,10.5C66.9,10.5,33,44.4,33,86.1c0,29.8,12.5,59.9,36,87.1c17.6,20.3,35.1,31.8,35.8,32.3
		c1.1,0.7,2.4,1.1,3.7,1.1c1.3,0,2.6-0.4,3.7-1.1c0.7-0.5,18.2-12,35.8-32.3c23.6-27.2,36-57.3,36-87.1
		C184.1,44.4,150.2,10.5,108.6,10.5z M108.6,191.5c-13.9-10.4-62-50.2-62-105.4c0-34.2,27.8-62,62-62c34.2,0,62,27.8,62,62
		C170.6,141.3,122.4,181.1,108.6,191.5z"/>
	<path class="st0" d="M108.6,56.1c-16.5,0-30,13.5-30,30c0,16.5,13.5,30,30,30s30-13.5,30-30C138.5,69.5,125.1,56.1,108.6,56.1z
		 M108.6,102.5c-9.1,0-16.4-7.4-16.4-16.4c0-9.1,7.4-16.4,16.4-16.4c9.1,0,16.4,7.4,16.4,16.4C125,95.1,117.6,102.5,108.6,102.5z"/>
</g>
</svg>
