<?xml version="1.0" encoding="utf-8"?>
<!-- Generator: Adobe Illustrator 16.0.0, SVG Export Plug-In . SVG Version: 6.00 Build 0)  -->
<!DOCTYPE svg PUBLIC "-//W3C//DTD SVG 1.1//EN" "http://www.w3.org/Graphics/SVG/1.1/DTD/svg11.dtd">
<svg version="1.1" id="Layer_1" xmlns="http://www.w3.org/2000/svg" xmlns:xlink="http://www.w3.org/1999/xlink" x="0px" y="0px"
	 width="24px" height="24px" viewBox="0 0 24 24" enable-background="new 0 0 24 24" xml:space="preserve">
<path fill-rule="evenodd" clip-rule="evenodd" fill="#273992" stroke="#273992" stroke-width="0.25" stroke-miterlimit="10" d="
	M7.985,17.202c0-0.433-0.02-0.835,0.005-1.235c0.03-0.486,0.302-0.819,0.754-0.996c0.509-0.198,1.021-0.384,1.53-0.574
	c1.014,1.286,2.079,1.293,2.882-0.019c0.581,0.229,1.18,0.445,1.758,0.707c0.373,0.169,0.524,0.528,0.548,0.922
	c0.022,0.386,0.004,0.774,0.004,1.195C12.976,17.202,10.506,17.202,7.985,17.202z"/>
<path fill-rule="evenodd" clip-rule="evenodd" fill="#273992" stroke="#273992" stroke-width="0.25" stroke-miterlimit="10" d="
	M14.306,9.504c-0.914-0.123-1.838-0.229-2.563-0.986c-0.731,0.714-1.644,0.885-2.622,0.981c-0.035-0.901,0.309-1.65,1.047-2.208
	c0.851-0.642,2.017-0.691,2.906-0.15C13.925,7.659,14.438,8.657,14.306,9.504z"/>
<path fill-rule="evenodd" clip-rule="evenodd" fill="#273992" stroke="#273992" stroke-width="0.25" stroke-miterlimit="10" d="
	M7.487,7.232C7.304,7.431,7.149,7.599,6.97,7.794c-0.72-0.729-1.421-1.43-2.112-2.142C4.714,5.504,4.603,5.445,4.382,5.535
	C3.753,5.791,3.01,5.541,2.646,4.99C2.258,4.403,2.317,3.638,2.789,3.137c0.471-0.5,1.261-0.613,1.843-0.264
	c0.596,0.356,0.9,1.093,0.648,1.734C5.172,4.883,5.251,5.01,5.427,5.181C6.116,5.856,6.796,6.542,7.487,7.232z"/>
<path fill-rule="evenodd" clip-rule="evenodd" fill="#273992" stroke="#273992" stroke-width="0.25" stroke-miterlimit="10" d="
	M16.485,7.794c-0.186-0.199-0.342-0.364-0.478-0.508c0.764-0.765,1.524-1.53,2.222-2.229c-0.05-0.449-0.147-0.793-0.111-1.123
	c0.095-0.863,0.921-1.41,1.788-1.23c0.801,0.165,1.325,1.045,1.103,1.854c-0.225,0.82-1.137,1.292-1.942,0.976
	c-0.224-0.088-0.333-0.022-0.475,0.124C17.9,6.367,17.202,7.069,16.485,7.794z"/>
<path fill-rule="evenodd" clip-rule="evenodd" fill="#273992" stroke="#273992" stroke-width="0.25" stroke-miterlimit="10" d="
	M10.239,10.188c0.525-0.235,1.011-0.452,1.49-0.666c0.467,0.208,0.961,0.429,1.483,0.662c0,0.498,0.022,1.033-0.005,1.566
	c-0.04,0.776-0.723,1.374-1.511,1.358c-0.774-0.015-1.42-0.611-1.453-1.376C10.221,11.213,10.239,10.69,10.239,10.188z"/>
<path fill-rule="evenodd" clip-rule="evenodd" fill="#89DBD4" stroke="#89DBD4" stroke-width="0.75" stroke-miterlimit="10" d="
	M11.359,17.617c0.272,0,0.481,0,0.733,0c0,0.618,0.013,1.219-0.006,1.817c-0.009,0.293,0.056,0.463,0.351,0.612
	c0.794,0.404,1.012,1.39,0.52,2.139c-0.463,0.706-1.463,0.858-2.161,0.331c-0.654-0.494-0.752-1.502-0.201-2.149
	c0.094-0.109,0.209-0.233,0.338-0.274c0.424-0.133,0.454-0.432,0.435-0.807C11.34,18.74,11.359,18.192,11.359,17.617z"/>
<path fill-rule="evenodd" clip-rule="evenodd" fill="#89DBD4" stroke="#89DBD4" stroke-width="0.75" stroke-miterlimit="10" d="
	M17.342,12.372c0-0.267,0-0.476,0-0.745c0.646,0,1.283-0.011,1.921,0.006c0.243,0.006,0.373-0.059,0.484-0.293
	c0.306-0.641,0.975-0.942,1.634-0.782c0.698,0.17,1.172,0.745,1.179,1.432c0.007,0.707-0.472,1.305-1.182,1.476
	c-0.632,0.152-1.331-0.172-1.632-0.802c-0.11-0.232-0.234-0.305-0.48-0.298C18.639,12.384,18.011,12.372,17.342,12.372z"/>
<path fill-rule="evenodd" clip-rule="evenodd" fill="#89DBD4" stroke="#89DBD4" stroke-width="0.75" stroke-miterlimit="10" d="
	M6.11,11.627c0,0.264,0,0.475,0,0.745c-0.631,0-1.254,0.011-1.878-0.005c-0.27-0.008-0.417,0.056-0.545,0.326
	c-0.292,0.618-1.031,0.933-1.649,0.764c-0.719-0.195-1.155-0.769-1.145-1.502c0.01-0.669,0.475-1.225,1.167-1.394
	c0.666-0.163,1.322,0.131,1.637,0.776c0.112,0.23,0.239,0.302,0.485,0.296C4.811,11.615,5.439,11.627,6.11,11.627z"/>
<path fill-rule="evenodd" clip-rule="evenodd" fill="#89DBD4" stroke="#89DBD4" stroke-width="0.75" stroke-miterlimit="10" d="
	M12.093,6.382c-0.253,0-0.463,0-0.733,0c0-0.611-0.01-1.223,0.006-1.833c0.006-0.276-0.036-0.444-0.331-0.584
	c-0.632-0.301-0.93-1.019-0.766-1.655c0.172-0.663,0.81-1.154,1.48-1.14c0.666,0.013,1.254,0.49,1.425,1.155
	c0.167,0.646-0.126,1.338-0.774,1.643c-0.287,0.135-0.313,0.304-0.31,0.558C12.099,5.128,12.093,5.731,12.093,6.382z"/>
<path fill-rule="evenodd" clip-rule="evenodd" fill="#273992" stroke="#273992" stroke-width="0.25" stroke-miterlimit="10" d="
	M5.821,17.326c0.212,0.203,0.384,0.367,0.584,0.56c-0.353,0.341-0.674,0.666-1.012,0.972c-0.175,0.155-0.195,0.289-0.116,0.515
	c0.257,0.729-0.083,1.501-0.765,1.825c-0.664,0.316-1.466,0.089-1.882-0.534c-0.336-0.502-0.316-1.207,0.049-1.696
	c0.38-0.513,1.041-0.752,1.645-0.526c0.268,0.1,0.409,0.047,0.58-0.144C5.197,17.968,5.51,17.654,5.821,17.326z"/>
<path fill-rule="evenodd" clip-rule="evenodd" fill="#273992" stroke="#273992" stroke-width="0.25" stroke-miterlimit="10" d="
	M17.061,17.873c0.188-0.179,0.359-0.343,0.572-0.546c0.31,0.326,0.622,0.64,0.915,0.969c0.17,0.19,0.311,0.239,0.58,0.145
	c0.765-0.27,1.579,0.155,1.851,0.914c0.263,0.735-0.104,1.566-0.825,1.869c-0.72,0.301-1.614,0.001-1.896-0.726
	c-0.135-0.346-0.091-0.777-0.059-1.163c0.016-0.187,0.041-0.31-0.111-0.45C17.743,18.567,17.418,18.229,17.061,17.873z"/>
<path fill-rule="evenodd" clip-rule="evenodd" fill="#273992" stroke="#273992" stroke-width="0.25" stroke-miterlimit="10" d="
	M12.457,13.829c-0.028,0.479-0.284,0.769-0.704,0.785c-0.43,0.017-0.709-0.271-0.765-0.785
	C11.467,13.829,11.946,13.829,12.457,13.829z"/>
<path fill-rule="evenodd" clip-rule="evenodd" fill="#273992" stroke="#273992" stroke-width="0.25" stroke-miterlimit="10" d="
	M15.86,12.34c0-0.236,0-0.445,0-0.681c0.236,0,0.457,0,0.705,0c0,0.217,0,0.435,0,0.681C16.345,12.34,16.127,12.34,15.86,12.34z"/>
<path fill-rule="evenodd" clip-rule="evenodd" fill="#273992" stroke="#273992" stroke-width="0.25" stroke-miterlimit="10" d="
	M6.876,12.337c0-0.229,0-0.437,0-0.675c0.226,0,0.444,0,0.699,0c0,0.211,0,0.428,0,0.675C7.361,12.337,7.143,12.337,6.876,12.337z"
	/>
<path fill-rule="evenodd" clip-rule="evenodd" fill="#273992" stroke="#273992" stroke-width="0.25" stroke-miterlimit="10" d="
	M9.462,11.47c-0.471-0.38-0.471-0.804,0-1.184C9.462,10.682,9.462,11.052,9.462,11.47z"/>
<path fill-rule="evenodd" clip-rule="evenodd" fill="#273992" stroke="#273992" stroke-width="0.25" stroke-miterlimit="10" d="
	M13.979,11.483c0-0.427,0-0.793,0-1.172C14.453,10.603,14.467,11.068,13.979,11.483z"/>
</svg>
