<?xml version="1.0" encoding="utf-8"?>
<!-- Generator: Adobe Illustrator 16.0.0, SVG Export Plug-In . SVG Version: 6.00 Build 0)  -->
<!DOCTYPE svg PUBLIC "-//W3C//DTD SVG 1.1//EN" "http://www.w3.org/Graphics/SVG/1.1/DTD/svg11.dtd">
<svg version="1.1" id="Layer_1" xmlns="http://www.w3.org/2000/svg" xmlns:xlink="http://www.w3.org/1999/xlink" x="0px" y="0px"
	 width="24px" height="24px" viewBox="0 0 24 24" enable-background="new 0 0 24 24" xml:space="preserve">
<path fill="none" d="M-2.193-2.193h28.387v28.387H-2.193V-2.193z"/>
<path fill="#273992" stroke="#273992" stroke-miterlimit="10" d="M11.14,18.712l-6.574-6.573l6.574-6.574l-2-2.001l-8.575,8.575
	l8.575,8.576L11.14,18.712z M12.297,18.435l6.574-6.573l-6.574-6.574l2-2l8.576,8.575l-8.576,8.575L12.297,18.435z"/>
<path fill="#89DBD4" stroke="#89DBD4" stroke-miterlimit="10" d="M14.393,17.879l-5.142-5.141l5.142-5.142l-1.564-1.565
	l-6.707,6.707l6.707,6.705L14.393,17.879z M14.906,18.053l5.142-5.141l-5.142-5.142l1.564-1.565l6.706,6.707l-6.706,6.705
	L14.906,18.053z"/>
</svg>
