<?xml version="1.0" encoding="utf-8"?>
<!-- Generator: Adobe Illustrator 16.0.0, SVG Export Plug-In . SVG Version: 6.00 Build 0)  -->
<!DOCTYPE svg PUBLIC "-//W3C//DTD SVG 1.1//EN" "http://www.w3.org/Graphics/SVG/1.1/DTD/svg11.dtd">
<svg version="1.1" id="Layer_1" xmlns="http://www.w3.org/2000/svg" xmlns:xlink="http://www.w3.org/1999/xlink" x="0px" y="0px"
	 width="24px" height="24px" viewBox="0 0 24 24" enable-background="new 0 0 24 24" xml:space="preserve">
<path fill="none" d="M50.333-14h24v24h-24V-14z"/>
<path fill="#273992" stroke="#273992" stroke-miterlimit="10" d="M12,21.729c-0.404,0-0.733-0.329-0.733-0.733v-9.529
	c0-0.404,0.329-0.732,0.733-0.732c0.405,0,0.733,0.328,0.733,0.732v9.529C12.733,21.399,12.405,21.729,12,21.729z"/>
<path fill="#89DBD4" stroke="#89DBD4" stroke-width="0.75" stroke-miterlimit="10" d="M8.335,21.729
	c-0.404,0-0.733-0.329-0.733-0.733v-3.176c0-0.405,0.329-0.733,0.733-0.733s0.733,0.328,0.733,0.733v3.176
	C9.068,21.399,8.739,21.729,8.335,21.729z"/>
<path fill="#273992" stroke="#273992" stroke-miterlimit="10" d="M8.335,18.552c-0.206,0-0.412-0.087-0.557-0.256l-2.932-3.421
	c-0.114-0.132-0.176-0.302-0.176-0.477v-2.933c0-0.404,0.329-0.732,0.733-0.732c0.405,0,0.733,0.328,0.733,0.732v2.661l2.755,3.215
	c0.264,0.308,0.228,0.77-0.079,1.034C8.674,18.493,8.504,18.552,8.335,18.552z"/>
<path fill="#89DBD4" stroke="#89DBD4" stroke-width="0.75" stroke-miterlimit="10" d="M5.403,11.955
	c-1.078,0-1.954-0.877-1.954-1.955s0.876-1.955,1.954-1.955c1.078,0,1.955,0.876,1.955,1.955S6.481,11.955,5.403,11.955z
	 M5.403,9.512c-0.27,0-0.488,0.22-0.488,0.488s0.219,0.489,0.488,0.489c0.27,0,0.489-0.221,0.489-0.489S5.673,9.512,5.403,9.512z"/>
<path fill="#89DBD4" stroke="#89DBD4" stroke-width="0.75" stroke-miterlimit="10" d="M15.665,21.729
	c-0.404,0-0.733-0.329-0.733-0.733v-3.176c0-0.405,0.329-0.733,0.733-0.733s0.733,0.328,0.733,0.733v3.176
	C16.398,21.399,16.069,21.729,15.665,21.729z"/>
<path fill="#273992" stroke="#273992" stroke-miterlimit="10" d="M15.665,18.552c-0.169,0-0.338-0.059-0.477-0.177
	c-0.308-0.264-0.344-0.726-0.079-1.034l2.755-3.214v-2.661c0-0.404,0.328-0.732,0.732-0.732c0.405,0,0.733,0.328,0.733,0.732v2.933
	c0,0.175-0.063,0.345-0.177,0.477l-2.933,3.421C16.076,18.465,15.871,18.552,15.665,18.552z"/>
<path fill="#89DBD4" stroke="#89DBD4" stroke-width="0.75" stroke-miterlimit="10" d="M12,11.955c-1.078,0-1.955-0.877-1.955-1.955
	S10.922,8.045,12,8.045S13.955,8.922,13.955,10S13.078,11.955,12,11.955z M12,9.512c-0.27,0-0.488,0.22-0.488,0.488
	S11.73,10.489,12,10.489s0.489-0.221,0.489-0.489S12.27,9.512,12,9.512z"/>
<path fill="#89DBD4" stroke="#89DBD4" stroke-width="0.75" stroke-miterlimit="10" d="M18.597,11.955
	c-1.077,0-1.954-0.877-1.954-1.955s0.877-1.955,1.954-1.955c1.078,0,1.955,0.876,1.955,1.955S19.675,11.955,18.597,11.955z
	 M18.597,9.512c-0.269,0-0.488,0.22-0.488,0.488s0.22,0.489,0.488,0.489c0.271,0,0.489-0.221,0.489-0.489S18.867,9.512,18.597,9.512
	z"/>
<path fill="#273992" stroke="#273992" stroke-miterlimit="10" d="M21.04,22.773h-2.443c-0.404,0-0.732-0.328-0.732-0.733
	c0-0.404,0.328-0.732,0.732-0.732h2.443c0.674,0,1.222-0.548,1.222-1.222V3.959c0-0.673-0.548-1.222-1.222-1.222H2.959
	c-0.673,0-1.222,0.548-1.222,1.222v16.126c0,0.674,0.548,1.222,1.222,1.222h2.443c0.405,0,0.733,0.328,0.733,0.732
	c0,0.405-0.328,0.733-0.733,0.733H2.959c-1.482,0-2.688-1.205-2.688-2.688V3.959c0-1.482,1.205-2.688,2.688-2.688H21.04
	c1.483,0,2.688,1.205,2.688,2.688v16.126C23.729,21.568,22.523,22.773,21.04,22.773z"/>
<path fill="#273992" stroke="#273992" stroke-miterlimit="10" d="M22.995,6.159H1.005c-0.404,0-0.733-0.328-0.733-0.733
	s0.329-0.733,0.733-0.733h21.99c0.404,0,0.733,0.329,0.733,0.733S23.399,6.159,22.995,6.159z"/>
</svg>
