<?xml version="1.0" encoding="utf-8"?>
<!-- Generator: Adobe Illustrator 16.0.0, SVG Export Plug-In . SVG Version: 6.00 Build 0)  -->
<!DOCTYPE svg PUBLIC "-//W3C//DTD SVG 1.1//EN" "http://www.w3.org/Graphics/SVG/1.1/DTD/svg11.dtd">
<svg version="1.1" id="Layer_1" xmlns="http://www.w3.org/2000/svg" xmlns:xlink="http://www.w3.org/1999/xlink" x="0px" y="0px"
	 width="24px" height="24px" viewBox="0 0 24 24" enable-background="new 0 0 24 24" xml:space="preserve">
<g>
	<rect x="-0.833" y="-0.833" fill="none" width="25.666" height="25.666"/>
</g>
<g>
	<g>
		<path fill="#273992" stroke="#273992" stroke-miterlimit="10" d="M20.555,5.583v14.971H5.583v2.14h14.971
			c1.177,0,2.14-0.963,2.14-2.14V5.583H20.555z"/>
		<path fill="#273992" stroke="#273992" stroke-miterlimit="10" d="M16.278,1.306H3.444c-1.176,0-2.138,0.962-2.138,2.138v12.834
			c0,1.176,0.962,2.138,2.138,2.138h12.834c1.176,0,2.138-0.962,2.138-2.138V3.444C18.416,2.268,17.454,1.306,16.278,1.306z
			 M8.792,16.278H3.444v-5.348h5.348V16.278z M16.278,16.278h-5.348v-5.348h5.348V16.278z M16.278,8.792H3.444V3.444h12.834V8.792z"
			/>
	</g>
</g>
<g>
</g>
<rect x="34.334" y="2.275" fill="none" width="24" height="24"/>
<g>
	<path fill="#89DBD4" stroke="#89DBD4" stroke-miterlimit="10" d="M20.555,5.583v14.971H5.583v2.14h14.971
		c1.177,0,2.14-0.963,2.14-2.14V5.583H20.555z"/>
</g>
</svg>
