<?xml version="1.0" encoding="utf-8"?>
<!-- Generator: Adobe Illustrator 24.1.2, SVG Export Plug-In . SVG Version: 6.00 Build 0)  -->
<svg version="1.1" id="Layer_1" xmlns="http://www.w3.org/2000/svg" xmlns:xlink="http://www.w3.org/1999/xlink" x="0px" y="0px"
	 viewBox="0 0 250 250" style="enable-background:new 0 0 250 250;" xml:space="preserve">
<style type="text/css">
	.st0{fill:#FFFFFF;}
</style>
<g>
	<path class="st0" d="M224.8,103.7c-0.4,0-0.8,0-1.1,0l-13.9-33.5c4.3-3.9,7.1-9.5,7.1-15.8c0-11.7-9.6-21.3-21.3-21.3
		c-6.3,0-11.9,2.7-15.8,7.1l-33.5-13.9c0-0.4,0-0.7,0-1.1c0-11.7-9.6-21.3-21.3-21.3s-21.3,9.6-21.3,21.3c0,0.4,0,0.8,0,1.1
		L70.2,40.1c-3.9-4.3-9.5-7.1-15.8-7.1c-11.7,0-21.3,9.6-21.3,21.3c0,6.3,2.7,11.9,7.1,15.8l-13.9,33.5c-0.4,0-0.7,0-1.1,0
		c-11.7,0-21.3,9.6-21.3,21.3s9.6,21.3,21.3,21.3c0.4,0,0.8,0,1.1,0l13.9,33.5c-4.3,3.9-7.1,9.5-7.1,15.8c0,11.7,9.6,21.3,21.3,21.3
		c6.3,0,11.9-2.7,15.8-7.1l33.5,13.9c0,0.4,0,0.7,0,1.1c0,11.7,9.6,21.3,21.3,21.3s21.3-9.6,21.3-21.3c0-0.4,0-0.8,0-1.1l33.5-13.9
		c3.9,4.3,9.5,7.1,15.8,7.1c11.7,0,21.3-9.6,21.3-21.3c0-6.3-2.7-11.9-7.1-15.8l13.9-33.5c0.4,0,0.7,0,1.1,0
		c11.7,0,21.3-9.6,21.3-21.3S236.6,103.7,224.8,103.7L224.8,103.7z M195.6,47.3c3.9,0,7.1,3.2,7.1,7.1c0,3.9-3.2,7.1-7.1,7.1
		s-7.1-3.2-7.1-7.1C188.5,50.6,191.7,47.3,195.6,47.3z M125,18c3.9,0,7.1,3.2,7.1,7.1s-3.2,7.1-7.1,7.1c-3.9,0-7.1-3.2-7.1-7.1
		C117.9,21.2,121.1,18,125,18z M54.4,47.3c3.9,0,7.1,3.2,7.1,7.1c0,3.9-3.2,7.1-7.1,7.1c-3.9,0-7.1-3.2-7.1-7.1
		C47.3,50.6,50.5,47.3,54.4,47.3z M18.1,125c0-3.9,3.2-7.1,7.1-7.1s7.1,3.2,7.1,7.1c0,3.9-3.2,7.1-7.1,7.1S18.1,128.9,18.1,125z
		 M54.4,202.8c-3.9,0-7.1-3.2-7.1-7.1s3.2-7.1,7.1-7.1c3.9,0,7.1,3.2,7.1,7.1S58.3,202.8,54.4,202.8z M125,231.9
		c-3.9,0-7.1-3.2-7.1-7.1s3.2-7.1,7.1-7.1c3.9,0,7.1,3.2,7.1,7.1S128.9,231.9,125,231.9z M195.6,202.8c-3.9,0-7.1-3.2-7.1-7.1
		s3.2-7.1,7.1-7.1s7.1,3.2,7.1,7.1S199.5,202.8,195.6,202.8z M196.7,174.3c-0.4,0-0.7,0-1.1,0c-11.7,0-21.3,9.6-21.3,21.3
		c0,0.4,0,0.8,0,1.1l-33.5,13.9c-3.9-4.3-9.5-7.1-15.8-7.1c-6.3,0-11.9,2.7-15.8,7.1l-33.5-13.9c0-0.4,0-0.7,0-1.1
		c0-11.7-9.6-21.3-21.3-21.3c-0.4,0-0.8,0-1.1,0l-13.9-33.5c4.3-3.9,7.1-9.5,7.1-15.8s-2.7-11.9-7.1-15.8l13.9-33.5
		c0.4,0,0.7,0,1.1,0c11.7,0,21.3-9.6,21.3-21.3c0-0.4,0-0.8,0-1.1l33.5-13.9c3.9,4.3,9.5,7.1,15.8,7.1c6.3,0,11.9-2.7,15.8-7.1
		l33.5,13.9c0,0.4,0,0.7,0,1.1c0,11.7,9.6,21.3,21.3,21.3c0.4,0,0.8,0,1.1,0l13.9,33.5c-4.3,3.9-7.1,9.5-7.1,15.8s2.7,11.9,7.1,15.8
		L196.7,174.3z M224.8,132.1c-3.9,0-7.1-3.2-7.1-7.1s3.2-7.1,7.1-7.1s7.1,3.2,7.1,7.1C231.9,128.9,228.7,132.1,224.8,132.1z"/>
	<path class="st0" d="M125,61.1c-35.2,0-63.9,28.7-63.9,63.9s28.7,63.9,63.9,63.9s63.9-28.7,63.9-63.9S160.2,61.1,125,61.1z
		 M167.3,99h-9.8c-1.3-5.6-3.1-10.8-5.3-15.5C158.4,87.5,163.5,92.8,167.3,99z M174.7,125c0,4.1-0.5,8-1.4,11.8H160
		c0.4-3.9,0.6-7.8,0.6-11.8s-0.2-8-0.6-11.8h13.3C174.2,116.9,174.7,120.9,174.7,125z M75.3,125c0-4.1,0.5-8,1.4-11.8H90
		c-0.4,3.9-0.6,7.8-0.6,11.8s0.2,8,0.6,11.8H76.7C75.8,133,75.3,129.1,75.3,125z M103.7,125c0-4.1,0.2-8.1,0.7-11.8h13.5v23.7h-13.5
		C103.9,133,103.7,129.1,103.7,125z M132.1,78.6c4.2,3.9,8.1,11,10.8,20.3h-10.8V78.6z M117.9,78.6v20.3h-10.8
		C109.8,89.7,113.7,82.5,117.9,78.6z M117.9,151v20.3c-4.2-3.9-8.1-11-10.8-20.3H117.9z M132.1,171.3V151h10.8
		C140.2,160.3,136.3,167.4,132.1,171.3z M132.1,136.8v-23.7h13.5c0.4,3.8,0.7,7.7,0.7,11.8s-0.2,8.1-0.7,11.8L132.1,136.8
		L132.1,136.8z M97.7,83.5c-2.2,4.7-3.9,9.9-5.3,15.5h-9.8C86.5,92.8,91.6,87.5,97.7,83.5L97.7,83.5z M82.7,151h9.8
		c1.3,5.6,3.1,10.8,5.3,15.5C91.6,162.5,86.5,157.3,82.7,151L82.7,151z M152.3,166.5c2.2-4.7,3.9-9.9,5.3-15.5h9.8
		C163.5,157.3,158.4,162.5,152.3,166.5z"/>
</g>
</svg>
