<?xml version="1.0" encoding="utf-8"?>
<!-- Generator: Adobe Illustrator 16.0.0, SVG Export Plug-In . SVG Version: 6.00 Build 0)  -->
<!DOCTYPE svg PUBLIC "-//W3C//DTD SVG 1.1//EN" "http://www.w3.org/Graphics/SVG/1.1/DTD/svg11.dtd">
<svg version="1.1" id="Layer_1" xmlns="http://www.w3.org/2000/svg" xmlns:xlink="http://www.w3.org/1999/xlink" x="0px" y="0px"
	 width="24px" height="24px" viewBox="0 0 24 24" enable-background="new 0 0 24 24" xml:space="preserve">
<g>
	<g>
		<path fill="#273992" stroke="#273992" stroke-miterlimit="10" d="M19.476,15.74c1.159-1.572,1.804-3.492,1.804-5.521
			c0-5.141-4.183-9.324-9.324-9.324c-5.141,0-9.323,4.183-9.323,9.324c0,2.045,0.656,3.979,1.831,5.561
			c-1.1,0.708-1.831,1.943-1.831,3.348c0,2.192,1.784,3.978,3.978,3.978c2.193,0,3.978-1.785,3.978-3.978
			c0-1.474-0.855-2.64-2.027-3.455c-1.251-0.871-2.223-1.95-2.711-3.423c-0.217-0.654-0.326-1.342-0.326-2.03
			c0-3.547,2.885-6.432,6.431-6.432c3.547,0,6.432,2.885,6.432,6.432c0,1.132-0.297,2.258-0.868,3.238
			c-0.638,1.095-1.622,1.783-2.595,2.551c-0.947,0.748-1.512,1.912-1.512,3.119c0,2.192,1.784,3.978,3.978,3.978
			c2.194,0,3.979-1.785,3.979-3.978C21.368,17.698,20.61,16.442,19.476,15.74z M6.61,18.04c0.132,0,0.259,0.024,0.376,0.069
			c0.012,0.007,0.023,0.015,0.036,0.022l0.006-0.008c0.391,0.163,0.667,0.552,0.667,1.003c0,0.599-0.486,1.085-1.085,1.085
			c-0.599,0-1.086-0.486-1.086-1.085C5.524,18.527,6.011,18.04,6.61,18.04z M17.39,20.212c-0.599,0-1.086-0.486-1.086-1.085
			c0-0.6,0.487-1.087,1.086-1.087c0.6,0,1.087,0.487,1.087,1.087C18.477,19.726,17.989,20.212,17.39,20.212z"/>
	</g>
</g>
<g>
	<g>
		<path fill="#89DBD4" stroke="#89DBD4" stroke-width="0.75" stroke-miterlimit="10" d="M9.081,8.664
			c-0.453,0.614-0.704,1.364-0.704,2.156c0,2.008,1.633,3.641,3.641,3.641s3.642-1.633,3.642-3.641c0-0.799-0.256-1.555-0.716-2.171
			c0.43-0.277,0.716-0.76,0.716-1.308c0-0.856-0.697-1.553-1.554-1.553c-0.857,0-1.554,0.697-1.554,1.553
			c0,0.576,0.333,1.031,0.792,1.349c0.488,0.34,0.868,0.762,1.058,1.338c0.085,0.255,0.128,0.524,0.128,0.792
			c0,1.385-1.126,2.513-2.512,2.513c-1.385,0-2.511-1.128-2.511-2.513c0-0.442,0.116-0.882,0.339-1.265
			c0.249-0.428,0.634-0.697,1.014-0.996c0.369-0.292,0.591-0.747,0.591-1.218c0-0.856-0.697-1.553-1.555-1.553
			c-0.856,0-1.554,0.697-1.554,1.553C8.341,7.9,8.638,8.39,9.081,8.664z M14.105,7.766c-0.053,0-0.102-0.01-0.147-0.027
			c-0.005-0.003-0.009-0.006-0.014-0.009l-0.003,0.003c-0.152-0.063-0.26-0.215-0.26-0.392c0-0.233,0.189-0.424,0.424-0.424
			c0.232,0,0.424,0.19,0.424,0.424C14.529,7.576,14.338,7.766,14.105,7.766z M9.895,6.917c0.234,0,0.425,0.19,0.425,0.424
			c0,0.234-0.191,0.425-0.425,0.425c-0.233,0-0.423-0.19-0.423-0.425C9.471,7.108,9.662,6.917,9.895,6.917z"/>
	</g>
</g>
</svg>
