<?xml version="1.0" encoding="utf-8"?>
<!-- Generator: Adobe Illustrator 16.0.0, SVG Export Plug-In . SVG Version: 6.00 Build 0)  -->
<!DOCTYPE svg PUBLIC "-//W3C//DTD SVG 1.1//EN" "http://www.w3.org/Graphics/SVG/1.1/DTD/svg11.dtd">
<svg version="1.1" id="Capa_1" xmlns="http://www.w3.org/2000/svg" xmlns:xlink="http://www.w3.org/1999/xlink" x="0px" y="0px"
	 width="250px" height="250px" viewBox="0 0 250 250" enable-background="new 0 0 250 250" xml:space="preserve">
<g>
	<g>
		<path fill="#89DBD4" stroke="#89DBD4" stroke-width="0.75" stroke-miterlimit="10" d="M207.163,188.649v-6.592
			c0-33.398-24.867-61.093-57.058-65.554v-7.479c0-5.042-4.087-9.129-9.129-9.129h-31.953c-5.042,0-9.129,4.087-9.129,9.129v5.971
			c-22.076-4.275-38.799-23.746-38.799-47.053v-6.591c10.625-3.769,18.258-13.916,18.258-25.817
			c0-15.102-12.286-27.388-27.388-27.388S24.578,20.432,24.578,35.533c0,11.901,7.633,22.049,18.258,25.817v6.591
			c0,33.399,24.867,61.093,57.058,65.555v7.479c0,5.042,4.087,9.129,9.129,9.129h31.953c5.042,0,9.129-4.087,9.129-9.129v-5.971
			c22.076,4.274,38.8,23.745,38.8,47.052v6.592c-10.626,3.769-18.259,13.916-18.259,25.817c0,15.102,12.286,27.388,27.388,27.388
			s27.388-12.286,27.388-27.388C225.422,202.565,217.789,192.418,207.163,188.649z M51.966,44.663c-5.034,0-9.129-4.096-9.129-9.129
			s4.096-9.129,9.129-9.129c5.034,0,9.129,4.096,9.129,9.129S57,44.663,51.966,44.663z M131.847,131.847h-13.694v-13.694h13.694
			V131.847z M198.034,223.596c-5.034,0-9.129-4.095-9.129-9.129s4.095-9.129,9.129-9.129s9.129,4.095,9.129,9.129
			S203.068,223.596,198.034,223.596z"/>
	</g>
</g>
<g>
	<g>
		<path fill="#273992" stroke="#273992" stroke-miterlimit="10" d="M203.163,190.795v-6.592c0-33.398-24.867-61.094-57.058-65.554
			v-7.479c0-5.042-4.087-9.129-9.129-9.129h-31.953c-5.041,0-9.129,4.087-9.129,9.129v5.971
			c-22.076-4.275-38.799-23.746-38.799-47.053v-6.591c10.625-3.769,18.258-13.916,18.258-25.817
			c0-15.102-12.286-27.388-27.388-27.388S20.578,22.577,20.578,37.679c0,11.901,7.633,22.049,18.258,25.817v6.591
			c0,33.399,24.867,61.093,57.059,65.555v7.479c0,5.042,4.088,9.129,9.129,9.129h31.953c5.042,0,9.129-4.087,9.129-9.129v-5.971
			c22.076,4.274,38.8,23.745,38.8,47.052v6.592c-10.626,3.769-18.259,13.916-18.259,25.817c0,15.102,12.286,27.388,27.388,27.388
			s27.388-12.286,27.388-27.388C221.422,204.711,213.789,194.563,203.163,190.795z M47.966,46.808c-5.034,0-9.13-4.096-9.13-9.129
			s4.096-9.129,9.13-9.129s9.13,4.096,9.13,9.129S53,46.808,47.966,46.808z M127.847,133.992h-13.694v-13.693h13.694V133.992z
			 M194.034,225.741c-5.034,0-9.129-4.095-9.129-9.129s4.095-9.129,9.129-9.129s9.129,4.095,9.129,9.129
			S199.068,225.741,194.034,225.741z"/>
	</g>
</g>
</svg>
