<?xml version="1.0" encoding="utf-8"?>
<!-- Generator: Adobe Illustrator 24.1.2, SVG Export Plug-In . SVG Version: 6.00 Build 0)  -->
<svg version="1.1" id="Layer_1" xmlns="http://www.w3.org/2000/svg" xmlns:xlink="http://www.w3.org/1999/xlink" x="0px" y="0px"
	 viewBox="0 0 250 250" style="enable-background:new 0 0 250 250;" xml:space="preserve">
<style type="text/css">
	.st0{fill:#3F51B5;}
</style>
<g>
	<path class="st0" d="M224.8,105.6c-0.4,0-0.8,0-1.1,0l-13.9-33.5c4.3-3.9,7.1-9.5,7.1-15.8c0-11.7-9.6-21.3-21.3-21.3
		c-6.3,0-11.9,2.7-15.8,7.1l-33.5-13.9c0-0.4,0-0.7,0-1.1c0-11.7-9.6-21.3-21.3-21.3s-21.3,9.6-21.3,21.3c0,0.4,0,0.8,0,1.1L70.2,42
		c-3.9-4.3-9.5-7.1-15.8-7.1c-11.7,0-21.3,9.6-21.3,21.3c0,6.3,2.7,11.9,7.1,15.8l-13.9,33.5c-0.4,0-0.7,0-1.1,0
		c-11.7,0-21.3,9.6-21.3,21.3s9.6,21.3,21.3,21.3c0.4,0,0.8,0,1.1,0l13.9,33.5c-4.3,3.9-7.1,9.5-7.1,15.8c0,11.7,9.6,21.3,21.3,21.3
		c6.3,0,11.9-2.7,15.8-7.1l33.5,13.9c0,0.4,0,0.7,0,1.1c0,11.7,9.6,21.3,21.3,21.3s21.3-9.6,21.3-21.3c0-0.4,0-0.8,0-1.1l33.5-13.9
		c3.9,4.3,9.5,7.1,15.8,7.1c11.7,0,21.3-9.6,21.3-21.3c0-6.3-2.7-11.9-7.1-15.8l13.9-33.5c0.4,0,0.7,0,1.1,0
		c11.7,0,21.3-9.6,21.3-21.3S236.6,105.6,224.8,105.6L224.8,105.6z M195.6,49.2c3.9,0,7.1,3.2,7.1,7.1s-3.2,7.1-7.1,7.1
		s-7.1-3.2-7.1-7.1S191.7,49.2,195.6,49.2z M125,19.9c3.9,0,7.1,3.2,7.1,7.1s-3.2,7.1-7.1,7.1s-7.1-3.2-7.1-7.1
		C117.9,23.1,121.1,19.9,125,19.9z M54.4,49.2c3.9,0,7.1,3.2,7.1,7.1s-3.2,7.1-7.1,7.1s-7.1-3.2-7.1-7.1S50.5,49.2,54.4,49.2z
		 M18.1,126.9c0-3.9,3.2-7.1,7.1-7.1s7.1,3.2,7.1,7.1c0,3.9-3.2,7.1-7.1,7.1S18.1,130.8,18.1,126.9z M54.4,204.6
		c-3.9,0-7.1-3.2-7.1-7.1s3.2-7.1,7.1-7.1s7.1,3.2,7.1,7.1S58.3,204.6,54.4,204.6z M125,233.8c-3.9,0-7.1-3.2-7.1-7.1
		s3.2-7.1,7.1-7.1c3.9,0,7.1,3.2,7.1,7.1S128.9,233.8,125,233.8z M195.6,204.6c-3.9,0-7.1-3.2-7.1-7.1s3.2-7.1,7.1-7.1
		s7.1,3.2,7.1,7.1S199.5,204.6,195.6,204.6z M196.7,176.2c-0.4,0-0.7,0-1.1,0c-11.7,0-21.3,9.6-21.3,21.3c0,0.4,0,0.8,0,1.1
		l-33.5,13.9c-3.9-4.3-9.5-7.1-15.8-7.1s-11.9,2.7-15.8,7.1l-33.5-13.9c0-0.4,0-0.7,0-1.1c0-11.7-9.6-21.3-21.3-21.3
		c-0.4,0-0.8,0-1.1,0l-13.9-33.5c4.3-3.9,7.1-9.5,7.1-15.8s-2.7-11.9-7.1-15.8l13.9-33.5c0.4,0,0.7,0,1.1,0
		c11.7,0,21.3-9.6,21.3-21.3c0-0.4,0-0.8,0-1.1l33.5-13.9c3.9,4.3,9.5,7.1,15.8,7.1s11.9-2.7,15.8-7.1l33.5,13.9c0,0.4,0,0.7,0,1.1
		c0,11.7,9.6,21.3,21.3,21.3c0.4,0,0.8,0,1.1,0l13.9,33.5c-4.3,3.9-7.1,9.5-7.1,15.8s2.7,11.9,7.1,15.8L196.7,176.2z M224.8,134
		c-3.9,0-7.1-3.2-7.1-7.1s3.2-7.1,7.1-7.1s7.1,3.2,7.1,7.1C231.9,130.8,228.7,134,224.8,134z"/>
	<path class="st0" d="M125,63c-35.2,0-63.9,28.7-63.9,63.9s28.7,63.9,63.9,63.9s63.9-28.7,63.9-63.9S160.2,63,125,63z M167.3,100.9
		h-9.8c-1.3-5.6-3.1-10.8-5.3-15.5C158.4,89.4,163.5,94.7,167.3,100.9z M174.7,126.9c0,4.1-0.5,8-1.4,11.8H160
		c0.4-3.9,0.6-7.8,0.6-11.8s-0.2-8-0.6-11.8h13.3C174.2,118.8,174.7,122.8,174.7,126.9z M75.3,126.9c0-4.1,0.5-8,1.4-11.8H90
		c-0.4,3.9-0.6,7.8-0.6,11.8s0.2,8,0.6,11.8H76.7C75.8,134.9,75.3,131,75.3,126.9z M103.7,126.9c0-4.1,0.2-8.1,0.7-11.8h13.5v23.7
		h-13.5C103.9,134.9,103.7,131,103.7,126.9z M132.1,80.5c4.2,3.9,8.1,11,10.8,20.3h-10.8V80.5z M117.9,80.5v20.3h-10.8
		C109.8,91.6,113.7,84.4,117.9,80.5z M117.9,152.9v20.3c-4.2-3.9-8.1-11-10.8-20.3H117.9z M132.1,173.2v-20.3h10.8
		C140.2,162.2,136.3,169.3,132.1,173.2z M132.1,138.7V115h13.5c0.4,3.8,0.7,7.7,0.7,11.8s-0.2,8.1-0.7,11.8L132.1,138.7L132.1,138.7
		z M97.7,85.4c-2.2,4.7-3.9,9.9-5.3,15.5h-9.8C86.5,94.7,91.6,89.4,97.7,85.4L97.7,85.4z M82.7,152.9h9.8c1.3,5.6,3.1,10.8,5.3,15.5
		C91.6,164.4,86.5,159.1,82.7,152.9L82.7,152.9z M152.3,168.4c2.2-4.7,3.9-9.9,5.3-15.5h9.8C163.5,159.1,158.4,164.4,152.3,168.4z"
		/>
</g>
</svg>
