<?xml version="1.0" encoding="utf-8"?>
<!-- Generator: Adobe Illustrator 16.0.0, SVG Export Plug-In . SVG Version: 6.00 Build 0)  -->
<!DOCTYPE svg PUBLIC "-//W3C//DTD SVG 1.1//EN" "http://www.w3.org/Graphics/SVG/1.1/DTD/svg11.dtd">
<svg version="1.1" id="Layer_1" xmlns="http://www.w3.org/2000/svg" xmlns:xlink="http://www.w3.org/1999/xlink" x="0px" y="0px"
	 width="24px" height="24px" viewBox="0 0 24 24" enable-background="new 0 0 24 24" xml:space="preserve">
<path fill="none" d="M-1.185-0.833h25.666v25.666H-1.185V-0.833z"/>
<path fill="#273992" stroke="#273992" stroke-miterlimit="10" d="M8.44,10.931c1.775,0,3.198-1.433,3.198-3.208
	S10.216,4.514,8.44,4.514S5.232,5.947,5.232,7.722S6.665,10.931,8.44,10.931z M8.44,13.069c-2.492,0-7.486,1.251-7.486,3.743v2.674
	H8.44V17.08c0-0.909,0.353-2.503,2.534-3.711C10.044,13.176,9.146,13.069,8.44,13.069z"/>
<path fill="#89DBD4" stroke="#89DBD4" stroke-miterlimit="10" d="M16.96,12.074c1.476,0,2.663-1.199,2.663-2.674
	c0-1.477-1.188-2.673-2.663-2.673S14.286,7.924,14.286,9.4C14.286,10.875,15.484,12.074,16.96,12.074z"/>
<path fill="#89DBD4" stroke="#89DBD4" stroke-miterlimit="10" d="M16.96,14.213c-1.957,0-5.882,0.984-5.882,2.941v2.406h11.764
	v-2.406C22.842,15.197,18.917,14.213,16.96,14.213z"/>
</svg>
