<?xml version="1.0" encoding="utf-8"?>
<!-- Generator: Adobe Illustrator 16.0.0, SVG Export Plug-In . SVG Version: 6.00 Build 0)  -->
<!DOCTYPE svg PUBLIC "-//W3C//DTD SVG 1.1//EN" "http://www.w3.org/Graphics/SVG/1.1/DTD/svg11.dtd">
<svg version="1.1" id="Layer_1" xmlns="http://www.w3.org/2000/svg" xmlns:xlink="http://www.w3.org/1999/xlink" x="0px" y="0px"
	 width="24px" height="24px" viewBox="0 0 24 24" enable-background="new 0 0 24 24" xml:space="preserve">
<path fill="none" d="M363.055-17.116h24v24h-24V-17.116z"/>
<g>
	<g>
		<g>
			<rect x="5.764" y="9.107" fill="#89DBD4" stroke="#273992" stroke-miterlimit="10" width="12.576" height="1.258"/>
			<rect x="5.764" y="11.622" fill="#89DBD4" stroke="#273992" stroke-miterlimit="10" width="7.923" height="1.258"/>
			<rect x="5.764" y="14.138" fill="#89DBD4" stroke="#273992" stroke-miterlimit="10" width="7.923" height="1.258"/>
			<path fill="#89DBD4" stroke="#273992" stroke-miterlimit="10" d="M19.912,18.603c0,0.691-0.566,1.258-1.258,1.258h-0.88
				l-1.761,2.2h4.212c1.069,0,1.887-0.817,1.887-1.887v-5.658l-2.2,2.703V18.603z"/>
			<path fill="#89DBD4" stroke="#273992" stroke-miterlimit="10" d="M20.226,1.939H3.877c-1.069,0-1.886,0.817-1.886,1.886v16.348
				c0,1.069,0.817,1.887,1.886,1.887h9.747l-1.636-2.2H5.449c-0.691,0-1.257-0.566-1.257-1.258V7.284
				c0-0.691,0.566-1.258,1.257-1.258h5.345c1.258,0,1.258,0,1.258-0.629c0-0.754,0.565-1.257,1.258-1.257h5.345
				c0.691,0,1.258,0.565,1.258,1.257v6.666h2.2V3.826C22.112,2.757,21.295,1.939,20.226,1.939z M4.821,4.769
				c-0.377,0-0.755-0.314-0.755-0.754c0-0.44,0.314-0.755,0.755-0.755c0.439,0,0.754,0.314,0.754,0.755
				C5.575,4.455,5.198,4.769,4.821,4.769z M6.896,4.769c-0.377,0-0.754-0.314-0.754-0.754c0-0.44,0.315-0.755,0.754-0.755
				c0.44,0,0.755,0.314,0.755,0.755C7.65,4.455,7.336,4.769,6.896,4.769z M9.034,4.769c-0.378,0-0.755-0.314-0.755-0.754
				c0-0.44,0.314-0.755,0.755-0.755c0.376,0,0.754,0.314,0.754,0.755C9.788,4.455,9.41,4.769,9.034,4.769z"/>
			<polygon fill="#89DBD4" stroke="#273992" stroke-miterlimit="10" points="14.756,18.665 12.806,16.15 10.354,16.15 
				14.756,22.061 22.112,13.006 19.659,13.006 			"/>
		</g>
	</g>
</g>
</svg>
