<?xml version="1.0" encoding="utf-8"?>
<!-- Generator: Adobe Illustrator 16.0.0, SVG Export Plug-In . SVG Version: 6.00 Build 0)  -->
<!DOCTYPE svg PUBLIC "-//W3C//DTD SVG 1.1//EN" "http://www.w3.org/Graphics/SVG/1.1/DTD/svg11.dtd">
<svg version="1.1" id="Layer_1" xmlns="http://www.w3.org/2000/svg" xmlns:xlink="http://www.w3.org/1999/xlink" x="0px" y="0px"
	 width="24px" height="24px" viewBox="0 0 24 24" enable-background="new 0 0 24 24" xml:space="preserve">
<path fill="none" d="M363.055-17.116h24v24h-24V-17.116z"/>
<g>
	<g>
		<path fill="#273992" stroke="#273992" stroke-width="2" stroke-miterlimit="10" d="M19.071,5.929C17.182,4.04,14.671,3,12,3
			c-1.797,0-3.542,0.477-5.076,1.383L5.712,3.172C5.543,3.004,5.292,2.954,5.074,3.045c-0.219,0.09-0.363,0.304-0.363,0.541V6.39
			c0,0.323,0.263,0.586,0.586,0.586h2.805c0.236,0,0.45-0.143,0.541-0.362c0.09-0.219,0.04-0.472-0.127-0.639L7.783,5.243
			C9.072,4.541,10.516,4.172,12,4.172c4.868,0,8.828,3.96,8.828,8.828c0,4.868-3.96,8.828-8.828,8.828S3.172,17.868,3.172,13
			c0-0.323-0.262-0.586-0.586-0.586S2,12.677,2,13c0,2.671,1.041,5.183,2.929,7.071S9.329,23,12,23s5.182-1.04,7.071-2.929
			C20.96,18.183,22,15.671,22,13S20.96,7.818,19.071,5.929z"/>
	</g>
</g>
<g>
	<g>
		<path fill="#89DBD4" stroke="#89DBD4" stroke-width="2" stroke-miterlimit="10" d="M15.766,12.414h-3.18v-3.18
			c0-0.324-0.262-0.586-0.586-0.586s-0.586,0.262-0.586,0.586V13c0,0.323,0.262,0.586,0.586,0.586h3.766
			c0.323,0,0.586-0.263,0.586-0.586S16.089,12.414,15.766,12.414z"/>
	</g>
</g>
</svg>
