<?xml version="1.0" encoding="utf-8"?>
<!-- Generator: Adobe Illustrator 16.0.0, SVG Export Plug-In . SVG Version: 6.00 Build 0)  -->
<!DOCTYPE svg PUBLIC "-//W3C//DTD SVG 1.1//EN" "http://www.w3.org/Graphics/SVG/1.1/DTD/svg11.dtd">
<svg version="1.1" id="Layer_1" xmlns="http://www.w3.org/2000/svg" xmlns:xlink="http://www.w3.org/1999/xlink" x="0px" y="0px"
	 width="512px" height="512px" viewBox="0 0 512 512" enable-background="new 0 0 512 512" xml:space="preserve">
<g>
	<g>
		<path fill="#273992" stroke="#273992" stroke-width="14" stroke-miterlimit="10" d="M436.114,365.272h-10.692v-19.725
			c0-5.147-4.172-9.32-9.317-9.32s-9.317,4.173-9.317,9.32v19.725h-10.693c-5.146,0-9.318,4.173-9.318,9.316v40.021
			c0,5.145,4.174,9.32,9.318,9.32h40.017c5.146,0,9.32-4.176,9.32-9.32v-40.021C445.431,369.445,441.261,365.272,436.114,365.272z
			 M405.411,405.294v-21.385h21.384v21.385H405.411z"/>
	</g>
</g>
<g>
	<g>
		<path fill="#273992" stroke="#273992" stroke-width="30" stroke-miterlimit="10" d="M483.814,95.058h-40.02
			c-5.147,0-9.32,4.172-9.32,9.317v10.695H264.838v-10.694c0-5.146-4.175-9.318-9.319-9.318c-5.145,0-9.317,4.172-9.317,9.318
			v10.693H76.566v-10.695c0-5.145-4.174-9.317-9.318-9.317H27.227c-5.146,0-9.319,4.171-9.319,9.317v40.021
			c0,5.146,4.173,9.318,9.319,9.318h40.021c5.146,0,9.319-4.173,9.319-9.318v-10.692h101.632
			c-54.918,28.186-92.581,85.41-92.581,151.266v80.303H74.924c-5.144,0-9.316,4.172-9.316,9.316v40.02
			c0,5.146,4.174,9.32,9.316,9.32h40.021c5.146,0,9.318-4.177,9.318-9.32v-40.02c0-5.145-4.175-9.316-9.318-9.316h-10.692V284.97
			c0-80.279,62.864-146.14,141.947-150.971v10.397c0,5.146,4.175,9.318,9.318,9.318c5.145,0,9.32-4.172,9.32-9.318v-10.397
			c79.082,4.831,141.943,70.692,141.943,150.971c0,5.146,4.176,9.319,9.318,9.319c5.148,0,9.319-4.176,9.319-9.319
			c0-65.856-37.663-123.08-92.578-151.266h101.631v10.692c0,5.146,4.174,9.318,9.319,9.318h40.02c5.146,0,9.317-4.173,9.317-9.318
			v-40.021C493.131,99.229,488.958,95.058,483.814,95.058z M57.928,135.078H36.543v-21.385h21.385V135.078z M105.628,383.909v21.385
			H84.244v-21.385H105.628z M474.497,135.078h-21.386v-21.385h21.386V135.078z"/>
	</g>
</g>
<g>
	<g>
		<path fill="#273992" stroke="#273992" stroke-width="14" stroke-miterlimit="10" d="M414.858,305.151
			c-11.989,0-12.009,18.637,0,18.637C426.851,323.79,426.87,305.151,414.858,305.151z"/>
	</g>
</g>
<path fill="#89DBD4" d="M64.188,131.063c0,5.146-4.171,9.318-9.317,9.318H38.565c-5.145,0-9.318-4.172-9.318-9.318v-16.305
	c0-5.146,4.173-9.318,9.318-9.318h16.306c5.146,0,9.317,4.171,9.317,9.318V131.063z"/>
<path fill="#89DBD4" d="M113.105,405.703c0,5.146-4.171,9.32-9.318,9.32H87.482c-5.146,0-9.318-4.175-9.318-9.32v-16.306
	c0-5.145,4.172-9.317,9.318-9.317h16.305c5.147,0,9.318,4.173,9.318,9.317V405.703z"/>
<path fill="#89DBD4" d="M433.572,400.111c0,5.146-4.17,9.317-9.315,9.317h-16.308c-5.146,0-9.317-4.172-9.317-9.317v-16.305
	c0-5.148,4.172-9.319,9.317-9.319h16.308c5.146,0,9.315,4.171,9.315,9.319V400.111z"/>
<path fill="#89DBD4" d="M482.318,131.063c0,5.147-4.174,9.318-9.318,9.318h-16.304c-5.146,0-9.321-4.171-9.321-9.318v-16.305
	c0-5.146,4.176-9.318,9.321-9.318H473c5.145,0,9.318,4.171,9.318,9.318V131.063z"/>
</svg>
