<?xml version="1.0" encoding="utf-8"?>
<!-- Generator: Adobe Illustrator 16.0.0, SVG Export Plug-In . SVG Version: 6.00 Build 0)  -->
<!DOCTYPE svg PUBLIC "-//W3C//DTD SVG 1.1//EN" "http://www.w3.org/Graphics/SVG/1.1/DTD/svg11.dtd">
<svg version="1.1" id="Layer_1" xmlns="http://www.w3.org/2000/svg" xmlns:xlink="http://www.w3.org/1999/xlink" x="0px" y="0px"
	 width="24px" height="24px" viewBox="0 0 24 24" enable-background="new 0 0 24 24" xml:space="preserve">
<g>
	<g transform="translate(-641.000000, -297.000000)">
		<g transform="translate(641.000000, 297.000000)">
			<path fill="#273992" stroke="#273992" stroke-miterlimit="10" d="M17.345,5.25c-0.592,0-1.074-0.482-1.074-1.075
				s0.482-1.074,1.074-1.074c0.593,0,1.074,0.481,1.074,1.074S17.938,5.25,17.345,5.25L17.345,5.25z M20.657,2.945
				c-0.502-1.344-1.795-2.306-3.313-2.306c-1.517,0-2.81,0.962-3.311,2.306H0.998v2.463h13.037c0.501,1.344,1.795,2.306,3.311,2.306
				c1.517,0,2.811-0.962,3.313-2.306h2.371V2.945H20.657z"/>
			<path fill="#273992" stroke="#273992" stroke-miterlimit="10" d="M6.681,20.898c-0.592,0-1.074-0.483-1.074-1.075
				c0-0.593,0.481-1.073,1.074-1.073s1.075,0.48,1.075,1.073C7.756,20.415,7.273,20.898,6.681,20.898 M6.681,16.287
				c-1.517,0-2.81,0.962-3.311,2.305H0.998v2.463H3.37c0.501,1.345,1.795,2.307,3.311,2.307c1.517,0,2.81-0.962,3.312-2.307h13.036
				v-2.463H9.993C9.491,17.249,8.199,16.287,6.681,16.287"/>
			<path fill="#273992" stroke="#273992" stroke-miterlimit="10" d="M11.986,10.925c0.592,0,1.074,0.481,1.074,1.074
				s-0.481,1.075-1.074,1.075c-0.593,0-1.075-0.482-1.075-1.075S11.393,10.925,11.986,10.925 M11.986,15.536
				c1.516,0,2.809-0.962,3.311-2.305h7.704v-2.462h-7.703c-0.501-1.346-1.795-2.308-3.312-2.308s-2.812,0.962-3.312,2.308H0.971
				v2.462h7.704C9.176,14.574,10.47,15.536,11.986,15.536"/>
		</g>
	</g>
</g>
<g transform="translate(641.000000, 297.000000)">
	<path fill="#89DBD4" stroke="#89DBD4" stroke-miterlimit="10" d="M-629.014-286.075c0.592,0,1.074,0.481,1.074,1.074
		s-0.481,1.075-1.074,1.075c-0.593,0-1.075-0.482-1.075-1.075S-629.607-286.075-629.014-286.075 M-629.014-281.464
		c1.516,0,2.809-0.962,3.311-2.305h7.704v-2.462h-7.703c-0.501-1.346-1.795-2.308-3.312-2.308s-2.812,0.962-3.312,2.308h-7.703
		v2.462h7.704C-631.824-282.426-630.53-281.464-629.014-281.464"/>
</g>
</svg>
