<?xml version="1.0" encoding="utf-8"?>
<!-- Generator: Adobe Illustrator 16.0.0, SVG Export Plug-In . SVG Version: 6.00 Build 0)  -->
<!DOCTYPE svg PUBLIC "-//W3C//DTD SVG 1.1//EN" "http://www.w3.org/Graphics/SVG/1.1/DTD/svg11.dtd">
<svg version="1.1" id="Layer_1" xmlns="http://www.w3.org/2000/svg" xmlns:xlink="http://www.w3.org/1999/xlink" x="0px" y="0px"
	 width="24px" height="24px" viewBox="0 0 24 24" enable-background="new 0 0 24 24" xml:space="preserve">
<g>
	<path fill="#89DBD4" stroke="#89DBD4" stroke-miterlimit="10" d="M20.459,12.64c-0.408-0.409-1.048-0.409-1.457,0
		c-0.409,0.408-0.409,1.047,0,1.456l0.997,0.996h-3.194c-0.256,0-0.511-0.102-0.689-0.28l-2.07-2.097l-1.457,1.457l2.096,2.096
		c0.563,0.563,1.328,0.895,2.121,0.895h3.194l-0.997,0.972c-0.409,0.408-0.409,1.048,0,1.456c0.205,0.204,0.461,0.307,0.716,0.307
		c0.256,0,0.512-0.103,0.716-0.307l2.734-2.734c0.409-0.408,0.409-1.048,0-1.456L20.459,12.64z"/>
	<path fill="#89DBD4" stroke="#89DBD4" stroke-miterlimit="10" d="M1.522,8.908H6.94c0.255,0,0.511,0.102,0.69,0.281l2.095,2.096
		l1.431-1.457L9.062,7.732C8.499,7.17,7.732,6.838,6.915,6.838H1.522C0.96,6.838,0.5,7.298,0.5,7.86
		C0.5,8.448,0.96,8.908,1.522,8.908z"/>
	<path fill="#273992" stroke="#273992" stroke-width="0.5" stroke-miterlimit="10" d="M16.805,8.908h3.194l-0.997,0.997
		c0,0,0,0.025-0.025,0.025c-0.384,0.409-0.384,1.022,0.025,1.432c0.205,0.205,0.461,0.307,0.716,0.307
		c0.256,0,0.512-0.102,0.716-0.307l2.734-2.735c0.23-0.204,0.332-0.46,0.332-0.741c0-0.281-0.102-0.537-0.306-0.716l-2.735-2.76
		c-0.408-0.409-1.048-0.409-1.457,0c-0.383,0.383-0.383,1.022-0.025,1.431c0,0,0,0.026,0.025,0.026l0.997,0.997h-3.194
		c-0.793,0-1.559,0.307-2.121,0.895L7.63,14.812c-0.179,0.179-0.435,0.28-0.69,0.28H1.522c-0.562,0-1.022,0.461-1.022,1.022
		c0,0.563,0.46,1.022,1.022,1.022H6.94c0.818,0,1.559-0.307,2.147-0.895l7.053-7.053C16.319,9.01,16.549,8.908,16.805,8.908z"/>
</g>
</svg>
