<?xml version="1.0" encoding="utf-8"?>
<!-- Generator: Adobe Illustrator 16.0.0, SVG Export Plug-In . SVG Version: 6.00 Build 0)  -->
<!DOCTYPE svg PUBLIC "-//W3C//DTD SVG 1.1//EN" "http://www.w3.org/Graphics/SVG/1.1/DTD/svg11.dtd">
<svg version="1.1" id="Layer_1" xmlns="http://www.w3.org/2000/svg" xmlns:xlink="http://www.w3.org/1999/xlink" x="0px" y="0px"
	 width="24px" height="24px" viewBox="0 0 24 24" enable-background="new 0 0 24 24" xml:space="preserve">
<g>
	<g>
		<path fill="#89DBD4" stroke="#89DBD4" stroke-miterlimit="10" d="M12,2.271c-0.235,0-0.423,0.189-0.423,0.423v2.52
			c0,0.234,0.188,0.424,0.423,0.424c0.233,0,0.423-0.189,0.423-0.424v-2.52C12.423,2.46,12.233,2.271,12,2.271z"/>
	</g>
</g>
<g>
	<g>
		<path fill="#89DBD4" stroke="#89DBD4" stroke-miterlimit="10" d="M9.6,5.887L8.587,4.874c-0.166-0.165-0.434-0.165-0.6,0
			c-0.164,0.166-0.164,0.434,0.001,0.6l1.014,1.012C9.084,6.568,9.192,6.61,9.3,6.61c0.109,0,0.217-0.042,0.3-0.125
			C9.766,6.32,9.766,6.052,9.6,5.887z"/>
	</g>
</g>
<g>
	<g>
		<path fill="#89DBD4" stroke="#89DBD4" stroke-miterlimit="10" d="M16.014,4.875c-0.166-0.166-0.435-0.165-0.599,0l-1.078,1.079
			c-0.166,0.165-0.166,0.434,0,0.599c0.083,0.083,0.19,0.124,0.3,0.124c0.107,0,0.217-0.042,0.301-0.124l1.076-1.079
			C16.18,5.309,16.18,5.041,16.014,4.875z"/>
	</g>
</g>
<g>
	<g>
		<path fill="#273992" stroke="#273992" stroke-miterlimit="10" d="M20.068,13.452h-0.34c0.277-0.364,0.443-0.817,0.443-1.311
			v-0.597c0-1.19-0.969-2.158-2.158-2.158c-1.188,0-2.156,0.968-2.156,2.158v0.464L12.67,8.821C12.494,8.645,12.235,8.588,12,8.672
			c-0.233-0.084-0.492-0.027-0.67,0.15l-3.186,3.186v-0.464c0-1.19-0.968-2.158-2.159-2.158c-1.189,0-2.157,0.968-2.157,2.158v0.597
			c0,0.494,0.167,0.947,0.446,1.311H3.931c-1.529,0-2.774,1.243-2.774,2.772v5.612c0,0.233,0.19,0.424,0.423,0.424h1.79
			c0.042,0,0.084-0.006,0.122-0.018c0.039,0.012,0.08,0.018,0.122,0.018h4.744c0.235,0,0.423-0.188,0.423-0.424v-1.44
			c0-0.231-0.188-0.422-0.423-0.422c-0.233,0-0.423,0.189-0.423,0.422v1.018H4.037v-4.825c0-0.233-0.189-0.424-0.423-0.424
			c-0.233,0-0.424,0.188-0.424,0.424v4.825H2.004v-5.188c0-1.063,0.865-1.928,1.927-1.928h2.944c0.117,0,0.222-0.047,0.299-0.123
			l0,0l4.4-4.4c-0.03,0.88-0.304,1.727-0.796,2.46l-2.772,4.118c-0.047,0.068-0.072,0.151-0.072,0.235v0.463
			c0,0.234,0.19,0.425,0.423,0.425c0.235,0,0.423-0.189,0.423-0.425v-0.333l2.7-4.011c0.207-0.306,0.379-0.63,0.519-0.966
			c0.141,0.336,0.314,0.66,0.519,0.966l2.7,4.011v5.119c0,0.234,0.19,0.424,0.425,0.424h4.744c0.041,0,0.082-0.006,0.12-0.018
			c0.039,0.012,0.08,0.018,0.122,0.018h1.789c0.234,0,0.424-0.188,0.424-0.424v-5.611C22.843,14.695,21.6,13.452,20.068,13.452z
			 M7.297,12.141c0,0.723-0.588,1.311-1.312,1.311c-0.722,0-1.31-0.588-1.31-1.311v-0.597c0-0.723,0.588-1.311,1.31-1.311
			c0.724,0,1.312,0.588,1.312,1.311V12.141z M16.705,11.544c0-0.723,0.588-1.311,1.311-1.311s1.312,0.588,1.312,1.311v0.597
			c0,0.723-0.589,1.311-1.312,1.311s-1.311-0.588-1.311-1.311V11.544z M21.996,21.414L21.996,21.414h-1.186v-3.135
			c0-0.232-0.188-0.424-0.424-0.424c-0.232,0-0.424,0.19-0.424,0.424v3.135h-3.896v-4.825c0-0.084-0.024-0.167-0.071-0.235
			l-2.771-4.118c-0.494-0.732-0.769-1.58-0.795-2.46l4.4,4.4c0.005,0.006,0.01,0.01,0.017,0.014
			c0.073,0.068,0.172,0.109,0.281,0.109h2.943c1.063,0,1.928,0.864,1.928,1.928v5.188H21.996z"/>
	</g>
</g>
</svg>
