<?xml version="1.0" encoding="utf-8"?>
<!-- Generator: Adobe Illustrator 16.0.0, SVG Export Plug-In . SVG Version: 6.00 Build 0)  -->
<!DOCTYPE svg PUBLIC "-//W3C//DTD SVG 1.1//EN" "http://www.w3.org/Graphics/SVG/1.1/DTD/svg11.dtd">
<svg version="1.1" id="Layer_1" xmlns="http://www.w3.org/2000/svg" xmlns:xlink="http://www.w3.org/1999/xlink" x="0px" y="0px"
	 width="24px" height="24px" viewBox="0 0 24 24" enable-background="new 0 0 24 24" xml:space="preserve">
<path fill="none" d="M-1.185-0.833h25.666v25.666H-1.185V-0.833z"/>
<g>
	<g>
		<path fill="#273992" stroke="#273992" stroke-miterlimit="10" d="M21.342,8.175l-2.043-3.53c-0.222-0.408-0.702-0.621-1.207-0.435
			l-2.306,0.927c-0.438-0.315-0.898-0.583-1.375-0.798l-0.351-2.448C14,1.414,13.588,1.054,13.099,1.054H9.004
			c-0.489,0-0.903,0.36-0.961,0.829L7.691,4.338C7.229,4.547,6.776,4.811,6.318,5.137l-2.313-0.93
			C3.561,4.037,3.03,4.229,2.809,4.633L0.764,8.17C0.518,8.587,0.62,9.127,1.001,9.429l1.955,1.527
			c-0.03,0.295-0.046,0.553-0.046,0.797c0,0.245,0.016,0.503,0.045,0.796L1,14.08c-0.373,0.295-0.475,0.817-0.237,1.253l2.042,3.53
			c0.223,0.407,0.703,0.618,1.206,0.436l2.307-0.928c0.438,0.314,0.899,0.582,1.375,0.798l0.352,2.445
			c0.058,0.479,0.473,0.838,0.961,0.838h3.207c0.173,0,0.332-0.096,0.412-0.249c0.08-0.154,0.067-0.34-0.03-0.481
			c-0.711-1.019-1.088-2.216-1.088-3.455c0-0.58,0.084-1.158,0.251-1.723c0.042-0.146,0.014-0.302-0.081-0.421
			c-0.093-0.118-0.237-0.182-0.389-0.178c-0.05,0.004-0.101,0.01-0.226,0.025c-2.314,0-4.196-1.883-4.196-4.196
			c0-2.314,1.882-4.197,4.196-4.197c2.313,0,4.196,1.882,4.188,4.273C15.239,11.9,15.233,11.95,15.231,12
			c-0.008,0.152,0.058,0.297,0.175,0.391c0.12,0.093,0.277,0.121,0.421,0.081c0.906-0.271,1.798-0.336,2.808-0.151
			c0.123,0.021,0.261-0.035,0.364-0.111c0.104-0.077,0.172-0.22,0.186-0.349c0.002-0.017,0.009-0.092,0.009-0.109
			c0-0.29-0.022-0.562-0.046-0.797l1.954-1.527C21.475,9.134,21.577,8.61,21.342,8.175z"/>
	</g>
</g>
<g>
	<g>
		<path fill="#89DBD4" stroke="#89DBD4" stroke-miterlimit="10" d="M22.203,14.08c-0.258,0-0.465,0.209-0.465,0.465v1.135
			c-0.702-1.234-2.103-2.531-4.188-2.531c-2.822,0-5.117,2.296-5.117,5.118c0,2.821,2.294,5.117,5.117,5.117
			c0.258,0,0.465-0.209,0.465-0.465c0-0.259-0.207-0.467-0.465-0.467c-2.31,0-4.187-1.877-4.187-4.186
			c0-2.308,1.877-4.187,4.187-4.187c2.194,0,3.401,1.812,3.696,2.791h-1.835c-0.257,0-0.467,0.209-0.467,0.465
			c0,0.257,0.21,0.464,0.467,0.464h2.791c0.257,0,0.465-0.207,0.465-0.464v-2.791C22.668,14.289,22.46,14.08,22.203,14.08z"/>
	</g>
</g>
</svg>
