<?xml version="1.0" encoding="utf-8"?>
<!-- Generator: Adobe Illustrator 16.0.0, SVG Export Plug-In . SVG Version: 6.00 Build 0)  -->
<!DOCTYPE svg PUBLIC "-//W3C//DTD SVG 1.1//EN" "http://www.w3.org/Graphics/SVG/1.1/DTD/svg11.dtd">
<svg version="1.1" id="Layer_1" xmlns="http://www.w3.org/2000/svg" xmlns:xlink="http://www.w3.org/1999/xlink" x="0px" y="0px"
	 width="24px" height="24px" viewBox="0 0 24 24" enable-background="new 0 0 24 24" xml:space="preserve">
<g>
	<path fill-rule="evenodd" clip-rule="evenodd" fill="#273992" stroke="#273992" stroke-miterlimit="10" d="M9.082,4.57
		c2.271-0.517,4.544-1.035,6.815-1.552c0.517,0.325,1.033,0.649,1.549,0.975c0.519,2.272,1.036,4.543,1.554,6.816
		c-1.8,2.855-3.594,5.715-5.407,8.563c-0.317,0.498-0.72,0.941-1.084,1.41c-0.293,0.068-0.588,0.135-0.883,0.201
		c-0.484-0.213-1.002-0.377-1.451-0.652c-1.963-1.207-3.914-2.434-5.852-3.682c-0.443-0.285-0.815-0.68-1.22-1.023
		c-0.067-0.295-0.134-0.59-0.201-0.883c0.265-0.533,0.493-1.088,0.804-1.59C5.488,10.285,7.288,7.43,9.082,4.57z M12.771,4.734
		c-0.864,0.197-1.734,0.367-2.583,0.604C9.911,5.417,9.596,5.618,9.444,5.855c-1.765,2.761-3.505,5.539-5.246,8.317
		c-0.414,0.658-0.333,1.047,0.314,1.455c2.169,1.373,4.341,2.74,6.518,4.1c0.611,0.383,1.021,0.289,1.409-0.326
		c1.774-2.807,3.54-5.617,5.295-8.437c0.113-0.181,0.184-0.453,0.141-0.654c-0.396-1.833-0.813-3.663-1.243-5.489
		c-0.157-0.662-0.475-0.841-1.148-0.699C14.575,4.313,13.674,4.529,12.771,4.734z"/>
</g>
</svg>
