<?xml version="1.0" encoding="utf-8"?>
<!-- Generator: Adobe Illustrator 16.0.0, SVG Export Plug-In . SVG Version: 6.00 Build 0)  -->
<!DOCTYPE svg PUBLIC "-//W3C//DTD SVG 1.1//EN" "http://www.w3.org/Graphics/SVG/1.1/DTD/svg11.dtd">
<svg version="1.1" id="Layer_1" xmlns="http://www.w3.org/2000/svg" xmlns:xlink="http://www.w3.org/1999/xlink" x="0px" y="0px"
	 width="24px" height="24px" viewBox="0 0 24 24" enable-background="new 0 0 24 24" xml:space="preserve">
<g>
	<path fill-rule="evenodd" clip-rule="evenodd" fill="#273992" stroke="#273992" stroke-miterlimit="10" d="M1,12.516
		c0-0.343,0-0.688,0-1.031c1.521-2.644,3.056-5.28,4.559-7.935c0.535-0.945,1.278-1.372,2.37-1.358
		c2.685,0.034,5.371,0.042,8.056-0.004c1.162-0.018,1.938,0.427,2.504,1.433c1.479,2.635,3.004,5.244,4.511,7.863
		c0,0.344,0,0.688,0,1.031c-1.521,2.644-3.056,5.279-4.558,7.935c-0.535,0.945-1.278,1.371-2.371,1.357
		c-2.686-0.035-5.372-0.041-8.056,0.004c-1.162,0.019-1.938-0.428-2.504-1.435C4.032,17.745,2.508,15.135,1,12.516z"/>
</g>
<g>
	<path fill-rule="evenodd" clip-rule="evenodd" fill="#FFFFFF" stroke="#273992" stroke-miterlimit="10" d="M3.102,12.417
		c0-0.278,0-0.556,0-0.834c1.23-2.139,2.472-4.271,3.688-6.418C7.222,4.4,7.824,4.056,8.707,4.066
		c2.172,0.027,4.344,0.034,6.517-0.003c0.94-0.015,1.567,0.345,2.025,1.159c1.197,2.132,2.43,4.242,3.649,6.361
		c0,0.278,0,0.556,0,0.834c-1.231,2.139-2.472,4.27-3.688,6.418c-0.433,0.766-1.033,1.109-1.918,1.098
		c-2.172-0.027-4.345-0.033-6.517,0.004c-0.94,0.014-1.568-0.346-2.025-1.16C5.555,16.648,4.322,14.537,3.102,12.417z"/>
</g>
</svg>
