<?xml version="1.0" encoding="utf-8"?>
<!-- Generator: Adobe Illustrator 16.0.0, SVG Export Plug-In . SVG Version: 6.00 Build 0)  -->
<!DOCTYPE svg PUBLIC "-//W3C//DTD SVG 1.1//EN" "http://www.w3.org/Graphics/SVG/1.1/DTD/svg11.dtd">
<svg version="1.1" id="Layer_1" xmlns="http://www.w3.org/2000/svg" xmlns:xlink="http://www.w3.org/1999/xlink" x="0px" y="0px"
	 width="24px" height="24px" viewBox="0 0 24 24" enable-background="new 0 0 24 24" xml:space="preserve">
<g>
	<g>
		<path fill="#273992" stroke="#273992" stroke-width="3" stroke-miterlimit="10" d="M22.021,17.705L13.509,3.617
			c-0.688-1.148-2.35-1.144-3.036-0.001L1.979,17.707c0,0,0,0-0.001,0c-0.708,1.18,0.141,2.682,1.519,2.682h17.007
			C21.878,20.389,22.731,18.891,22.021,17.705z M20.503,19.185H3.496c-0.44,0-0.712-0.478-0.486-0.856l8.495-14.091
			c0.219-0.366,0.75-0.369,0.972,0.001l8.511,14.088C21.215,18.705,20.943,19.185,20.503,19.185z"/>
	</g>
</g>
</svg>
