<?xml version="1.0" encoding="utf-8"?>
<!-- Generator: Adobe Illustrator 16.0.0, SVG Export Plug-In . SVG Version: 6.00 Build 0)  -->
<!DOCTYPE svg PUBLIC "-//W3C//DTD SVG 1.1//EN" "http://www.w3.org/Graphics/SVG/1.1/DTD/svg11.dtd">
<svg version="1.1" id="Layer_1" xmlns="http://www.w3.org/2000/svg" xmlns:xlink="http://www.w3.org/1999/xlink" x="0px" y="0px"
	 width="24px" height="24px" viewBox="0 0 24 24" enable-background="new 0 0 24 24" xml:space="preserve">
<g>
	<path fill="#273992" stroke="#273992" stroke-miterlimit="10" d="M21.162,5.953C20.493,5.697,8.97,1.298,8.23,1.017L2.048,5.009
		l5.255,17.975l15.808-9.937L21.162,5.953z M7.598,7.826l-0.419,10.04L3.823,6.385L7.598,7.826z M8.896,8.321l6.909,2.638
		l-7.398,9.083L8.896,8.321z M17.1,11.453l3.779,1.443l-10.149,6.378L17.1,11.453z M20.068,6.946l1.297,4.726l-3.795-1.449
		l0.198-4.155L20.068,6.946z M16.473,5.573l-0.196,4.156L9.36,7.088l2.621-3.23L16.473,5.573z M8.386,2.486l2.299,0.878l-2.621,3.23
		L4.268,5.145L8.386,2.486z"/>
</g>
</svg>
