<?xml version="1.0" encoding="utf-8"?>
<!-- Generator: Adobe Illustrator 16.0.0, SVG Export Plug-In . SVG Version: 6.00 Build 0)  -->
<!DOCTYPE svg PUBLIC "-//W3C//DTD SVG 1.1//EN" "http://www.w3.org/Graphics/SVG/1.1/DTD/svg11.dtd">
<svg version="1.1" id="Layer_1" xmlns="http://www.w3.org/2000/svg" xmlns:xlink="http://www.w3.org/1999/xlink" x="0px" y="0px"
	 width="24px" height="24px" viewBox="0 0 24 24" enable-background="new 0 0 24 24" xml:space="preserve">
<path fill="none" d="M0,0h24v24H0V0z"/>
<g>
	<g>
		<path fill="#273992" stroke="#273992" stroke-miterlimit="10" d="M18.589,4.145H5.411c-2.526,0-4.582,2.056-4.582,4.582v6.545
			c0,2.526,2.056,4.582,4.582,4.582h13.178c2.526,0,4.583-2.056,4.583-4.582V8.727C23.172,6.201,21.115,4.145,18.589,4.145z
			 M21.862,15.272c0,1.805-1.469,3.273-3.273,3.273H5.411c-1.805,0-3.273-1.469-3.273-3.273V8.727c0-1.805,1.468-3.273,3.273-3.273
			h13.178c1.805,0,3.273,1.468,3.273,3.273V15.272z"/>
	</g>
</g>
</svg>
