<?xml version="1.0" encoding="utf-8"?>
<!-- Generator: Adobe Illustrator 16.0.0, SVG Export Plug-In . SVG Version: 6.00 Build 0)  -->
<!DOCTYPE svg PUBLIC "-//W3C//DTD SVG 1.1//EN" "http://www.w3.org/Graphics/SVG/1.1/DTD/svg11.dtd">
<svg version="1.1" id="Layer_1" xmlns="http://www.w3.org/2000/svg" xmlns:xlink="http://www.w3.org/1999/xlink" x="0px" y="0px"
	 width="24px" height="24px" viewBox="0 0 24 24" enable-background="new 0 0 24 24" xml:space="preserve">
<path fill="#273992" d="M18.364,0.545H3.09c-1.413,0-2.545,1.146-2.545,2.545v17.819c0,1.399,1.133,2.546,2.545,2.546h17.819
	c1.399,0,2.546-1.146,2.546-2.546V5.636L18.364,0.545z M12,20.909c-2.113,0-3.818-1.705-3.818-3.818
	c0-2.112,1.706-3.818,3.818-3.818c2.113,0,3.818,1.706,3.818,3.818C15.818,19.204,14.113,20.909,12,20.909z M15.818,8.182H3.09V3.09
	h12.728V8.182z"/>
<rect x="2.872" y="2.709" fill="#89DBD4" width="13.265" height="6.303"/>
<circle fill="#89DBD4" cx="12" cy="17.176" r="3.869"/>
</svg>
