<?xml version="1.0" encoding="utf-8"?>
<!-- Generator: Adobe Illustrator 16.0.0, SVG Export Plug-In . SVG Version: 6.00 Build 0)  -->
<!DOCTYPE svg PUBLIC "-//W3C//DTD SVG 1.1//EN" "http://www.w3.org/Graphics/SVG/1.1/DTD/svg11.dtd">
<svg version="1.1" id="Layer_1" xmlns="http://www.w3.org/2000/svg" xmlns:xlink="http://www.w3.org/1999/xlink" x="0px" y="0px"
	 width="24px" height="24px" viewBox="0 0 24 24" enable-background="new 0 0 24 24" xml:space="preserve">
<g>
	<g>
		<path fill="#273992" d="M22.041,8.021L19.2,9.367c1.138,2.458,0.787,5.434-1.06,7.57l-1.548-1.547v5.385h5.387l-1.604-1.603
			C23.185,16.07,23.736,11.648,22.041,8.021z"/>
		<path fill="#273992" d="M15.991,22.054l-1.347-2.841C12.188,20.352,9.21,20,7.074,18.154l1.548-1.549H3.236v5.388l1.603-1.604
			C7.941,23.198,12.364,23.749,15.991,22.054z"/>
		<path fill="#273992" d="M5.858,7.087l1.547,1.548V3.249H2.02l1.603,1.603c-2.807,3.104-3.359,7.526-1.664,11.153l2.84-1.346
			C3.661,12.2,4.011,9.224,5.858,7.087z"/>
		<path fill="#273992" d="M20.764,7.418V2.032L19.16,3.635c-3.104-2.807-7.526-3.359-11.152-1.664l1.347,2.84
			c2.458-1.138,5.434-0.788,7.571,1.059l-1.548,1.548H20.764L20.764,7.418z"/>
		<circle fill="#273992" cx="11.999" cy="12.012" r="4.303"/>
	</g>
</g>
</svg>
