<?xml version="1.0" encoding="utf-8"?>
<!-- Generator: Adobe Illustrator 16.0.0, SVG Export Plug-In . SVG Version: 6.00 Build 0)  -->
<!DOCTYPE svg PUBLIC "-//W3C//DTD SVG 1.1//EN" "http://www.w3.org/Graphics/SVG/1.1/DTD/svg11.dtd">
<svg version="1.1" id="Layer_1" xmlns="http://www.w3.org/2000/svg" xmlns:xlink="http://www.w3.org/1999/xlink" x="0px" y="0px"
	 width="24px" height="24px" viewBox="0 0 24 24" enable-background="new 0 0 24 24" xml:space="preserve">
<g>
	<path fill="#89DBD4" stroke="#89DBD4" stroke-miterlimit="10" d="M3.347,14.399V3.316h11.084v4.282l2.221,0.733V2.217
		c0-0.619-0.481-1.099-1.1-1.099H2.226c-0.597,0-1.1,0.48-1.1,1.099v13.304c0,0.618,0.503,1.1,1.1,1.1h6.113l-0.732-2.221H3.347
		L3.347,14.399z"/>
	<path fill="#273992" stroke="#273992" stroke-width="0.25" stroke-miterlimit="10" d="M22.375,19.895l-4.099-4.1l2.771-1.945
		c0.709-0.481,0.549-1.557-0.275-1.832L9.735,8.399c-0.8-0.274-1.58,0.504-1.306,1.306l3.618,11.06
		c0.275,0.802,1.351,0.962,1.832,0.274l1.947-2.771l4.099,4.099c0.686,0.688,1.786,0.688,2.449,0
		C23.04,21.658,23.04,20.559,22.375,19.895z"/>
</g>
</svg>
