<?xml version="1.0" encoding="utf-8"?>
<!-- Generator: Adobe Illustrator 24.1.3, SVG Export Plug-In . SVG Version: 6.00 Build 0)  -->
<svg version="1.1" id="Capa_1" xmlns="http://www.w3.org/2000/svg" xmlns:xlink="http://www.w3.org/1999/xlink" x="0px" y="0px"
	 viewBox="0 0 168.1 168.1" style="enable-background:new 0 0 168.1 168.1;" xml:space="preserve">
<style type="text/css">
	.st0{fill:#45AAF2;stroke:#45AAF2;stroke-width:6;stroke-miterlimit:10;}
</style>
<g>
	<path class="st0" d="M84.1,53.5c-16.8,0-30.5,13.7-30.5,30.5s13.7,30.5,30.5,30.5c16.8,0,30.5-13.7,30.5-30.5S100.9,53.5,84.1,53.5
		z M84.1,100.9c-9.3,0-16.9-7.6-16.9-16.9s7.6-16.9,16.9-16.9s16.9,7.6,16.9,16.9S93.4,100.9,84.1,100.9z"/>
	<path class="st0" d="M150,75.7l-0.5-0.2c-1.8-0.8-2.2-2.4-2.4-3c-0.1-0.6-0.2-2.3,1.1-3.6l0.4-0.4c5.2-5.2,6.7-12.6,3.9-19.3
		c-2.8-6.7-9.2-11.1-16.3-11.1c-1.3,0-2.6,0.1-3.8,0.4l-0.5,0.1c-1.5,0.3-3-0.2-4-1.4c-0.5-0.5-1.2-1.7-0.9-3.3l0.1-0.5
		c0.9-5.2-0.5-10.3-3.9-14.3c-3.4-4-8.5-6.4-13.7-6.4c-5,0-9.6,2.1-13.1,5.9l-0.4,0.4c-1,1.1-2.2,1.4-3,1.4c-0.6,0-2.6-0.2-3.7-2.3
		l-0.2-0.5c-3.1-6.1-9-9.7-15.7-9.7c-9.3,0-16.8,6.7-17.7,15.9l-0.1,0.5c-0.3,2.4-2.3,3.7-4.1,3.7c-0.6,0-1.3-0.2-1.9-0.5l-0.5-0.2
		c-2.6-1.3-5.4-2-8.2-2c-6.3,0-12.2,3.5-15.4,9c-3.2,5.5-3.1,12.1,0.1,17.7l0.3,0.5c1,1.7,0.4,3.2,0.1,3.8c-0.3,0.6-1.1,2-3.1,2.3
		l-0.5,0.1C14.7,59.9,8.8,66,7.7,73.9c-1.1,7.9,3.1,15.3,10.4,18.6l0.5,0.2c1.8,0.8,2.2,2.4,2.4,3c0.1,0.6,0.2,2.3-1.1,3.6l-0.4,0.4
		c-5.2,5.2-6.7,12.6-3.9,19.3c2.8,6.7,9.2,11.1,16.3,11.1c1.3,0,2.6-0.1,3.8-0.4l0.5-0.1c1.5-0.3,3,0.2,4,1.4
		c0.5,0.5,1.2,1.7,0.9,3.3l-0.1,0.5c-0.9,5.2,0.5,10.3,3.9,14.3c3.4,4,8.5,6.4,13.7,6.4c5,0,9.6-2.1,13.1-5.9L72,149
		c1-1.1,2.2-1.4,3-1.4c0.6,0,2.6,0.2,3.7,2.3l0.2,0.5c3.1,6.1,9,9.7,15.7,9.7c9.3,0,16.8-6.7,17.7-15.9l0.1-0.5
		c0.3-2.4,2.3-3.7,4.1-3.7c0.6,0,1.3,0.2,1.9,0.5l0.5,0.2c2.6,1.3,5.4,2,8.2,2c6.3,0,12.2-3.5,15.4-9c3.2-5.5,3.1-12.1-0.1-17.7
		l-0.3-0.5c-1-1.7-0.4-3.2-0.1-3.8c0.3-0.6,1.1-2,3.1-2.3l0.5-0.1c7.8-1.2,13.8-7.3,14.9-15.2C161.4,86.4,157.3,78.9,150,75.7z
		 M146.9,92.4c-0.1,0.9-0.7,3.1-3.4,3.5l-0.5,0.1c-5.8,0.9-10.8,4.6-13.3,9.9c-2.5,5.3-2.3,11.5,0.6,16.5l0.3,0.5
		c0.8,1.4,0.8,2.7,0.1,4c-0.8,1.3-2.2,2.2-3.5,2.2c-0.6,0-1.3-0.2-1.9-0.5l-0.5-0.2c-2.5-1.3-5.3-2-8.1-2c-9.1,0-16.7,6.8-17.7,15.9
		l-0.1,0.5c-0.3,2.9-2.8,3.7-4.2,3.7c-1.1,0-2.6-0.4-3.6-2.3l-0.2-0.5c-3-6-9.1-9.7-15.9-9.7c-5,0-9.8,2.1-13.2,5.9l-0.4,0.4
		c-0.8,0.9-1.8,1.4-2.9,1.4c-1.2,0-2.5-0.6-3.3-1.6c-0.7-0.9-1-2-0.8-3.2l0.1-0.5c0.8-5.1-0.6-10.4-4-14.3c-3.4-4-8.3-6.3-13.5-6.3
		c-1.2,0-2.5,0.1-3.7,0.4l-0.5,0.1c-0.3,0.1-0.7,0.1-1,0.1c-1.9,0-3.1-1.3-3.6-2.6c-0.4-0.9-0.8-2.7,0.9-4.4l0.4-0.4
		c4.2-4.1,6-10,4.9-15.8c-1.1-5.8-4.9-10.6-10.2-13L23.6,80c-2.5-1.1-2.5-3.4-2.4-4.3c0.1-0.9,0.7-3.1,3.4-3.5l0.5-0.1
		c5.8-0.9,10.8-4.6,13.3-9.9c2.5-5.3,2.3-11.5-0.6-16.5l-0.3-0.5c-0.8-1.4-0.8-2.7-0.1-4c0.8-1.3,2.2-2.2,3.5-2.2
		c0.6,0,1.3,0.2,1.9,0.5l0.5,0.2c2.5,1.3,5.3,2,8.1,2c9.1,0,16.7-6.8,17.7-15.9l0.1-0.5c0.3-2.9,2.8-3.7,4.2-3.7
		c1.1,0,2.6,0.4,3.6,2.3l0.2,0.5c3,6,9.1,9.7,15.9,9.7c5,0,9.8-2.1,13.2-5.9l0.4-0.4c0.8-0.9,1.8-1.4,2.9-1.4c1.2,0,2.5,0.6,3.3,1.5
		c0.7,0.9,1,2,0.8,3.2l-0.1,0.5c-0.8,5.1,0.6,10.4,4,14.3c3.4,4,8.3,6.3,13.5,6.3c1.2,0,2.5-0.1,3.7-0.4l0.5-0.1
		c0.3-0.1,0.7-0.1,1-0.1c1.9,0,3.1,1.3,3.7,2.6c0.4,0.9,0.8,2.7-0.9,4.4l-0.4,0.4c-4.2,4.1-6,10-4.9,15.8c1.1,5.8,4.9,10.6,10.2,13
		l0.5,0.2C147,89.3,147,91.5,146.9,92.4z"/>
</g>
</svg>
