<?xml version="1.0" encoding="utf-8"?>
<!-- Generator: Adobe Illustrator 16.0.0, SVG Export Plug-In . SVG Version: 6.00 Build 0)  -->
<!DOCTYPE svg PUBLIC "-//W3C//DTD SVG 1.1//EN" "http://www.w3.org/Graphics/SVG/1.1/DTD/svg11.dtd">
<svg version="1.1" id="Layer_1" xmlns="http://www.w3.org/2000/svg" xmlns:xlink="http://www.w3.org/1999/xlink" x="0px" y="0px"
	 width="24px" height="24px" viewBox="0 0 24 24" enable-background="new 0 0 24 24" xml:space="preserve">
<g>
	<path fill="#273992" stroke="#273992" stroke-miterlimit="10" d="M14.444,5.148l4.998-2.501c-0.473-0.572-0.818-1.251-0.998-1.994
		l-4.998,2.501C13.918,3.726,14.264,4.405,14.444,5.148z"/>
	<path fill="#273992" stroke="#273992" stroke-miterlimit="10" d="M12.427,21.24c-0.449-0.611-0.762-1.33-0.893-2.111l-7.397,1.234
		c0.123,0.431,0.19,0.887,0.19,1.357c0,0.303-0.029,0.599-0.08,0.884L12.427,21.24z"/>
	<path fill="#273992" stroke="#273992" stroke-miterlimit="10" d="M15.149,13.488l-2.274-3.412
		c-0.563,0.491-1.234,0.857-1.975,1.057l2.272,3.412C13.735,14.057,14.408,13.688,15.149,13.488z"/>
	<path fill="#273992" stroke="#273992" stroke-miterlimit="10" d="M16.444,14.878c-1.889,0-3.42,1.53-3.42,3.422
		c0,1.891,1.531,3.421,3.42,3.421s3.42-1.53,3.42-3.421C19.864,16.408,18.333,14.878,16.444,14.878z"/>
	<ellipse fill="#89DBD4" stroke="#89DBD4" stroke-miterlimit="10" cx="9.604" cy="6.323" rx="3.422" ry="3.422"/>
</g>
</svg>
