<?xml version="1.0" encoding="utf-8"?>
<!-- Generator: Adobe Illustrator 16.0.0, SVG Export Plug-In . SVG Version: 6.00 Build 0)  -->
<!DOCTYPE svg PUBLIC "-//W3C//DTD SVG 1.1//EN" "http://www.w3.org/Graphics/SVG/1.1/DTD/svg11.dtd">
<svg version="1.1" id="Layer_1" xmlns="http://www.w3.org/2000/svg" xmlns:xlink="http://www.w3.org/1999/xlink" x="0px" y="0px"
	 width="24px" height="24px" viewBox="0 0 24 24" enable-background="new 0 0 24 24" xml:space="preserve">
<g>
	<path fill="#89DBD4" stroke="#89DBD4" stroke-miterlimit="10" d="M21.79,22.415L12.258,1.343c-0.136-0.301-0.655-0.31-0.801-0.014
		L1.213,22.056c-0.152,0.308,0.256,0.604,0.61,0.44l9.472-4.342c0.134-0.062,0.298-0.059,0.431,0.008l9.441,4.674
		C21.516,23.007,21.933,22.727,21.79,22.415z M5.471,18.781c-0.245,0.111-0.495-0.146-0.375-0.386l6.317-12.78
		c0.095-0.194,0.387-0.127,0.388,0.091l0.041,10.424C11.503,16.13,5.471,18.781,5.471,18.781z"/>
</g>
<g>
	<path fill="#273992" stroke="#273992" stroke-width="0.25" stroke-miterlimit="10" d="M22.291,22.415L12.759,1.343
		c-0.136-0.301-0.655-0.31-0.801-0.014L1.714,22.056c-0.152,0.308,0.256,0.604,0.61,0.44l9.472-4.342
		c0.135-0.062,0.299-0.059,0.432,0.008l9.441,4.674C22.017,23.007,22.434,22.727,22.291,22.415z M5.972,18.781
		c-0.245,0.111-0.495-0.146-0.375-0.386l6.316-12.78c0.096-0.194,0.388-0.127,0.389,0.091l0.041,10.424
		C12.004,16.13,5.972,18.781,5.972,18.781z"/>
</g>
</svg>
