<?xml version="1.0" encoding="utf-8"?>
<!-- Generator: Adobe Illustrator 16.0.0, SVG Export Plug-In . SVG Version: 6.00 Build 0)  -->
<!DOCTYPE svg PUBLIC "-//W3C//DTD SVG 1.1//EN" "http://www.w3.org/Graphics/SVG/1.1/DTD/svg11.dtd">
<svg version="1.1" id="Layer_1" xmlns="http://www.w3.org/2000/svg" xmlns:xlink="http://www.w3.org/1999/xlink" x="0px" y="0px"
	 width="24px" height="24px" viewBox="0 0 24 24" enable-background="new 0 0 24 24" xml:space="preserve">
<g>
	<path fill="#89DBD4" stroke="#89DBD4" stroke-width="0.75" stroke-miterlimit="10" d="M9.655,4.658V2.952
		C6.387,3.805,3.805,6.387,2.952,9.655h1.705C5.415,7.287,7.287,5.416,9.655,4.658z"/>
	<path fill="#273992" stroke="#273992" stroke-width="0.25" stroke-miterlimit="10" d="M19.343,9.655h1.705
		c-0.853-3.269-3.435-5.851-6.703-6.703v1.706C16.713,5.416,18.585,7.287,19.343,9.655z"/>
	<path fill="#273992" stroke="#273992" stroke-width="0.25" stroke-miterlimit="10" d="M4.657,14.345H2.952
		c0.853,3.269,3.435,5.851,6.703,6.703v-1.705C7.287,18.585,5.415,16.713,4.657,14.345z"/>
	<path fill="#89DBD4" stroke="#89DBD4" stroke-width="0.75" stroke-miterlimit="10" d="M14.345,19.343v1.705
		c3.269-0.853,5.851-3.435,6.703-6.703h-1.705C18.585,16.713,16.713,18.585,14.345,19.343z"/>
	<circle fill="#273992" stroke="#273992" stroke-width="0.25" stroke-miterlimit="10" cx="12" cy="12" r="1.848"/>
	<path fill="#273992" stroke="#273992" stroke-width="0.25" stroke-miterlimit="10" d="M22.422,11.171h-4.998
		c-0.355-2.369-2.227-4.239-4.596-4.595V1.579c0-0.45-0.355-0.829-0.828-0.829c-0.474,0-0.83,0.355-0.83,0.829V6.6
		c-2.368,0.355-4.239,2.226-4.594,4.595H1.579c-0.451,0-0.83,0.355-0.83,0.829c0,0.473,0.355,0.805,0.83,0.805H6.6
		c0.355,2.368,2.227,4.239,4.594,4.595v4.997c0,0.45,0.355,0.829,0.83,0.829c0.473,0,0.829-0.354,0.829-0.829v-4.997
		c2.368-0.355,4.24-2.227,4.595-4.595h4.975c0.449,0,0.828-0.355,0.828-0.829C23.25,11.526,22.896,11.171,22.422,11.171z M12,15.837
		c-2.131,0-3.837-1.729-3.837-3.837c0-2.131,1.729-3.837,3.837-3.837c2.132,0,3.837,1.729,3.837,3.837
		C15.837,14.132,14.132,15.837,12,15.837z"/>
</g>
</svg>
