<?xml version="1.0" encoding="utf-8"?>
<!-- Generator: Adobe Illustrator 16.0.0, SVG Export Plug-In . SVG Version: 6.00 Build 0)  -->
<!DOCTYPE svg PUBLIC "-//W3C//DTD SVG 1.1//EN" "http://www.w3.org/Graphics/SVG/1.1/DTD/svg11.dtd">
<svg version="1.1" id="Layer_1" xmlns="http://www.w3.org/2000/svg" xmlns:xlink="http://www.w3.org/1999/xlink" x="0px" y="0px"
	 width="24px" height="24px" viewBox="0 0 24 24" enable-background="new 0 0 24 24" xml:space="preserve">
<g>
	<path fill="#273992" stroke="#273992" stroke-width="0.5" stroke-miterlimit="10" d="M1.957,10.769l0.192-3.557l5.814,6.974
		c0.193-0.207,0.401-0.4,0.623-0.576L2.801,6.667L6.337,7.12l0.105-0.844L1.386,5.63l-0.277,5.091L1.957,10.769z"/>
	<path fill="#273992" stroke="#273992" stroke-width="0.5" stroke-miterlimit="10" d="M11.574,12.444
		c-1.124,0.087-2.153,0.507-2.987,1.165l2.987,3.584V12.444z"/>
	<path fill="#273992" stroke="#273992" stroke-width="0.5" stroke-miterlimit="10" d="M15.411,13.609
		c-0.834-0.658-1.863-1.078-2.987-1.163v4.749L15.411,13.609z"/>
	<path fill="#89DBD4" stroke="#89DBD4" stroke-miterlimit="10" d="M12.424,12.444V2.239l2.427,2.61l0.621-0.579L12,0.536L8.527,4.27
		l0.622,0.579l2.425-2.608v10.206c0.142-0.012,0.281-0.021,0.425-0.021C12.142,12.423,12.282,12.435,12.424,12.444z"/>
	<path fill="#273992" stroke="#273992" stroke-width="0.5" stroke-miterlimit="10" d="M21.849,7.21l0.193,3.559l0.85-0.047
		L22.614,5.63l-5.059,0.646l0.107,0.843l3.533-0.451l-5.785,6.94c0.223,0.176,0.432,0.369,0.623,0.578L21.849,7.21z"/>
	<path fill="#273992" stroke="#273992" stroke-width="0.5" stroke-miterlimit="10" d="M11.447,18.367l-3.483-4.182
		C7.046,15.172,6.48,16.49,6.48,17.943c0,3.047,2.472,5.52,5.52,5.52c3.05,0,5.521-2.473,5.521-5.52
		c0-1.453-0.566-2.771-1.482-3.758l-3.486,4.182H11.447z"/>
</g>
</svg>
