<?xml version="1.0" encoding="utf-8"?>
<!-- Generator: Adobe Illustrator 16.0.0, SVG Export Plug-In . SVG Version: 6.00 Build 0)  -->
<!DOCTYPE svg PUBLIC "-//W3C//DTD SVG 1.1//EN" "http://www.w3.org/Graphics/SVG/1.1/DTD/svg11.dtd">
<svg version="1.1" id="Layer_1" xmlns="http://www.w3.org/2000/svg" xmlns:xlink="http://www.w3.org/1999/xlink" x="0px" y="0px"
	 width="24px" height="24px" viewBox="0 0 24 24" enable-background="new 0 0 24 24" xml:space="preserve">
<path fill="#273992" d="M22.48,9.09l-7.125-0.661l-2.831-6.573c-0.199-0.46-0.851-0.46-1.048,0L8.645,8.429L1.519,9.09
	c-0.499,0.046-0.7,0.667-0.324,0.998l5.377,4.723l-1.574,6.981c-0.11,0.489,0.418,0.873,0.849,0.616L12,18.755l6.152,3.653
	c0.432,0.257,0.96-0.127,0.85-0.616l-1.573-6.981l5.376-4.723C23.181,9.757,22.98,9.136,22.48,9.09z"/>
<path fill="#89DBD4" d="M12.524,1.856c-0.199-0.46-0.851-0.46-1.048,0L8.645,8.429L1.519,9.09c-0.499,0.046-0.7,0.667-0.324,0.998
	l5.377,4.723l-1.574,6.981c-0.11,0.489,0.418,0.873,0.849,0.616l1.374-0.815c0.19-7.824,3.826-13.334,6.704-16.487L12.524,1.856z"/>
</svg>
