<?xml version="1.0" encoding="utf-8"?>
<!-- Generator: Adobe Illustrator 16.0.0, SVG Export Plug-In . SVG Version: 6.00 Build 0)  -->
<!DOCTYPE svg PUBLIC "-//W3C//DTD SVG 1.1//EN" "http://www.w3.org/Graphics/SVG/1.1/DTD/svg11.dtd">
<svg version="1.1" id="Capa_1" xmlns="http://www.w3.org/2000/svg" xmlns:xlink="http://www.w3.org/1999/xlink" x="0px" y="0px"
	 width="250px" height="250px" viewBox="0 0 250 250" enable-background="new 0 0 250 250" xml:space="preserve">
<g>
	<g>
		<polygon fill="#89DBD4" stroke="#89DBD4" stroke-width="4" stroke-miterlimit="10" points="124.987,46.938 90.509,99.664 
			118.232,99.657 118.232,210.689 131.768,210.689 131.768,99.653 159.491,99.647 		"/>
	</g>
</g>
<g>
	<g>
		<path fill="#273992" stroke="#273992" stroke-width="4" stroke-miterlimit="10" d="M206.671,45.311
			C184.856,23.496,155.852,11.481,125,11.481c-30.851,0-59.856,12.014-81.671,33.829C21.514,67.126,9.5,96.13,9.5,126.981
			c0,30.853,12.014,59.857,33.829,81.672c21.815,21.815,50.82,33.829,81.671,33.829c30.852,0,59.856-12.014,81.671-33.829
			c21.815-21.814,33.829-50.819,33.829-81.672C240.5,96.13,228.486,67.126,206.671,45.311z M125,228.947
			c-56.223,0-101.965-45.741-101.965-101.966C23.035,70.758,68.777,25.017,125,25.017c56.224,0,101.965,45.741,101.965,101.965
			C226.965,183.206,181.224,228.947,125,228.947z"/>
	</g>
</g>
</svg>
