<?xml version="1.0" encoding="utf-8"?>
<!-- Generator: Adobe Illustrator 24.1.2, SVG Export Plug-In . SVG Version: 6.00 Build 0)  -->
<svg version="1.1" id="Layer_1" xmlns="http://www.w3.org/2000/svg" xmlns:xlink="http://www.w3.org/1999/xlink" x="0px" y="0px"
	 viewBox="0 0 24 24" style="enable-background:new 0 0 24 24;" xml:space="preserve">
<style type="text/css">
	.st0{fill:#FFFFFF;}
</style>
<g>
	<path class="st0" d="M13.6,12l-1.9,1.9L9.8,12l1.9-1.9L13.6,12z M13.6,12l-1.9,1.9L9.8,12l1.9-1.9L13.6,12z M11.7,6.2l2,2l2.4-2.4
		l-4.4-4.4L7.3,5.9l2.4,2.4L11.7,6.2z M6,12l2-2L5.6,7.6L1.2,12l4.4,4.4L8,14L6,12z M17.5,12l-2,2l2.4,2.4l4.4-4.4l-4.4-4.4L15.4,10
		L17.5,12z M11.7,17.8l-2-2l-2.4,2.4l4.4,4.4l4.4-4.4l-2.4-2.4L11.7,17.8z"/>
</g>
</svg>
