<?xml version="1.0" encoding="utf-8"?>
<!-- Generator: Adobe Illustrator 24.1.2, SVG Export Plug-In . SVG Version: 6.00 Build 0)  -->
<svg version="1.1" id="Layer_1" xmlns="http://www.w3.org/2000/svg" xmlns:xlink="http://www.w3.org/1999/xlink" x="0px" y="0px"
	 viewBox="0 0 250 250" style="enable-background:new 0 0 250 250;" xml:space="preserve">
<style type="text/css">
	.st0{fill:#FFFFFF;}
</style>
<g>
	<path class="st0" d="M146.8,125l-22.4,22.4L102,125l22.4-22.4L146.8,125z M146.8,125l-22.4,22.4L102,125l22.4-22.4L146.8,125z
		 M124.4,56.6L148,80.2l28.3-28.3L124.4,0L72.5,53.1l28.3,28.3L124.4,56.6z M57.2,125l23.6-23.6L52.5,73.1L0.6,125l51.9,51.9
		l28.3-28.3L57.2,125z M192.8,125l-23.6,23.6l28.3,28.3l51.9-51.9l-51.9-51.9L168,101.4L192.8,125z M124.4,193.4l-23.6-23.6
		l-28.3,28.3l51.9,51.9l51.9-51.9L148,169.8L124.4,193.4z"/>
</g>
</svg>
