<?xml version="1.0" encoding="utf-8"?>
<!-- Generator: Adobe Illustrator 16.0.0, SVG Export Plug-In . SVG Version: 6.00 Build 0)  -->
<!DOCTYPE svg PUBLIC "-//W3C//DTD SVG 1.1//EN" "http://www.w3.org/Graphics/SVG/1.1/DTD/svg11.dtd">
<svg version="1.1" id="Layer_1" xmlns="http://www.w3.org/2000/svg" xmlns:xlink="http://www.w3.org/1999/xlink" x="0px" y="0px"
	 width="24px" height="24px" viewBox="0 0 24 24" enable-background="new 0 0 24 24" xml:space="preserve">
<g>
	<rect x="-0.778" y="-0.778" fill="none" width="25.555" height="25.555"/>
	<path fill="#273992" d="M14.13,12L12,14.13L9.87,12L12,9.87L14.13,12z M14.13,12L12,14.13L9.87,12L12,9.87L14.13,12z M12,5.611
		l2.258,2.257l2.662-2.662L12,0.287L7.081,5.207l2.662,2.662L12,5.611z M5.611,12l2.257-2.257L5.207,7.081L0.287,12l4.919,4.92
		l2.662-2.662L5.611,12z M18.389,12l-2.257,2.258l2.661,2.662l4.92-4.92l-4.92-4.919l-2.661,2.662L18.389,12z M12,18.389
		l-2.257-2.257l-2.662,2.661L12,23.713l4.92-4.92l-2.662-2.661L12,18.389z"/>
</g>
<g>
	<rect x="-0.778" y="-0.778" fill="none" width="25.555" height="25.555"/>
	<path fill="#89DBD4" d="M15.327,12L12,15.327L8.672,12L12,8.672L15.327,12z M15.327,12L12,15.327L8.672,12L12,8.672L15.327,12z"/>
</g>
</svg>
