<?xml version="1.0" encoding="utf-8"?>
<!-- Generator: Adobe Illustrator 16.0.0, SVG Export Plug-In . SVG Version: 6.00 Build 0)  -->
<!DOCTYPE svg PUBLIC "-//W3C//DTD SVG 1.1//EN" "http://www.w3.org/Graphics/SVG/1.1/DTD/svg11.dtd">
<svg version="1.1" id="Layer_1" xmlns="http://www.w3.org/2000/svg" xmlns:xlink="http://www.w3.org/1999/xlink" x="0px" y="0px"
	 width="24px" height="24px" viewBox="0 0 24 24" enable-background="new 0 0 24 24" xml:space="preserve">
<path fill="none" d="M363.055-17.116h24v24h-24V-17.116z"/>
<path fill="#89DBD4" stroke="#89DBD4" stroke-width="0.75" stroke-miterlimit="10" d="M3.563,11.25c0.567,0,1.081-0.228,1.46-0.593
	l2.082,1.041c-0.01,0.085-0.026,0.168-0.026,0.256c0,1.163,0.946,2.109,2.109,2.109s2.109-0.946,2.109-2.109
	c0-0.325-0.08-0.628-0.211-0.904l2.824-2.823c0.274,0.131,0.579,0.211,0.903,0.211c1.163,0,2.109-0.946,2.109-2.109
	c0-0.219-0.043-0.426-0.105-0.625l2.453-1.839c0.335,0.224,0.736,0.355,1.168,0.355c1.163,0,2.109-0.946,2.109-2.109
	S21.601,0,20.438,0s-2.109,0.946-2.109,2.109c0,0.219,0.043,0.426,0.105,0.625L15.98,4.574c-0.335-0.224-0.736-0.355-1.168-0.355
	c-1.163,0-2.109,0.946-2.109,2.109c0,0.325,0.08,0.628,0.212,0.904l-2.824,2.823C9.816,9.924,9.512,9.844,9.188,9.844
	c-0.567,0-1.081,0.228-1.46,0.593L5.646,9.396c0.01-0.085,0.026-0.168,0.026-0.256c0-1.163-0.946-2.109-2.109-2.109
	S1.453,7.978,1.453,9.141S2.399,11.25,3.563,11.25z"/>
<path fill="#273992" stroke="#273992" stroke-miterlimit="10" d="M23.297,22.594h-0.75V7.734c0-0.389-0.314-0.703-0.703-0.703
	h-2.813c-0.389,0-0.703,0.314-0.703,0.703v14.859h-1.406V11.953c0-0.389-0.314-0.703-0.703-0.703h-2.813
	c-0.389,0-0.703,0.314-0.703,0.703v10.641h-1.406v-5.016c0-0.389-0.314-0.703-0.703-0.703H7.781c-0.389,0-0.703,0.314-0.703,0.703
	v5.016H5.672v-7.828c0-0.389-0.314-0.703-0.703-0.703H2.156c-0.389,0-0.703,0.314-0.703,0.703v7.828h-0.75
	C0.314,22.594,0,22.908,0,23.297S0.314,24,0.703,24h22.594C23.686,24,24,23.686,24,23.297S23.686,22.594,23.297,22.594z"/>
</svg>
