<?xml version="1.0" encoding="utf-8"?>
<!-- Generator: Adobe Illustrator 16.0.0, SVG Export Plug-In . SVG Version: 6.00 Build 0)  -->
<!DOCTYPE svg PUBLIC "-//W3C//DTD SVG 1.1//EN" "http://www.w3.org/Graphics/SVG/1.1/DTD/svg11.dtd">
<svg version="1.1" id="Layer_1" xmlns="http://www.w3.org/2000/svg" xmlns:xlink="http://www.w3.org/1999/xlink" x="0px" y="0px"
	 width="24px" height="24px" viewBox="0 0 24 24" enable-background="new 0 0 24 24" xml:space="preserve">
<g>
	<path fill-rule="evenodd" clip-rule="evenodd" fill="#273992" stroke="#273992" stroke-miterlimit="10" d="M11.491,1.501
		c2.952,0,5.906,0,8.859,0c0.546,0.547,1.094,1.094,1.64,1.641c0,2.953,0,5.906,0,8.86c-3.027,3.022-6.049,6.052-9.092,9.059
		c-0.532,0.527-1.154,0.962-1.736,1.439c-0.382,0-0.765,0-1.148,0c-0.539-0.401-1.132-0.749-1.609-1.216
		c-2.086-2.044-4.152-4.109-6.194-6.197c-0.468-0.477-0.816-1.069-1.219-1.608c0-0.384,0-0.767,0-1.148
		c0.477-0.582,0.915-1.203,1.441-1.736C5.44,7.551,8.469,4.53,11.491,1.501z M16.003,2.742c-1.121,0-2.244-0.035-3.36,0.02
		c-0.366,0.018-0.812,0.178-1.065,0.429c-2.959,2.916-5.891,5.859-8.824,8.8c-0.696,0.698-0.706,1.201-0.021,1.888
		c2.294,2.307,4.594,4.606,6.9,6.9c0.648,0.645,1.181,0.646,1.833-0.006c2.981-2.969,5.957-5.946,8.919-8.936
		c0.19-0.192,0.354-0.509,0.358-0.769c0.026-2.378,0.027-4.756,0.008-7.133c-0.009-0.862-0.35-1.173-1.223-1.188
		C18.353,2.729,17.178,2.744,16.003,2.742z"/>
	<path fill-rule="evenodd" clip-rule="evenodd" fill="#273992" stroke="#273992" stroke-miterlimit="10" d="M16.566,4.989
		c1.043-0.001,1.935,0.892,1.935,1.935c0,1.042-0.891,1.935-1.934,1.935c-1.039,0-1.935-0.896-1.935-1.935
		C14.633,5.883,15.526,4.989,16.566,4.989z M17.55,6.906c-0.462-0.313-0.76-0.664-0.963-0.615c-0.27,0.065-0.465,0.441-0.692,0.684
		c0.235,0.207,0.46,0.562,0.708,0.579C16.839,7.569,17.1,7.234,17.55,6.906z"/>
</g>
</svg>
