<?xml version="1.0" encoding="utf-8"?>
<!-- Generator: Adobe Illustrator 16.0.0, SVG Export Plug-In . SVG Version: 6.00 Build 0)  -->
<!DOCTYPE svg PUBLIC "-//W3C//DTD SVG 1.1//EN" "http://www.w3.org/Graphics/SVG/1.1/DTD/svg11.dtd">
<svg version="1.1" id="Layer_1" xmlns="http://www.w3.org/2000/svg" xmlns:xlink="http://www.w3.org/1999/xlink" x="0px" y="0px"
	 width="24px" height="24px" viewBox="0 0 24 24" enable-background="new 0 0 24 24" xml:space="preserve">
<path fill="none" d="M0.75,0.75h22.5v22.5H0.75V0.75z"/>
<path fill="#89DBD4" d="M14,13.806v5.569c3.889-0.366,6.626-3.306,7-7h-5.554C15.182,13.043,14.777,13.573,14,13.806z"/>
<path fill="#89DBD4" d="M4.43,14.06v4.886c3.412-0.321,5.813-2.899,6.141-6.141H5.698C5.466,13.391,5.112,13.855,4.43,14.06z"/>
<path fill="#273992" d="M21.554,10.828l-1.577-5.26c-0.36-1.199-1.443-2.005-2.695-2.005h-1.063V2.156
	c0-0.777-0.63-1.406-1.406-1.406H9.187c-0.776,0-1.406,0.629-1.406,1.406v1.406H6.718c-1.251,0-2.334,0.806-2.694,2.005l-1.578,5.26
	c-0.996,0.433-1.695,1.425-1.695,2.579v5.625c0,0.776,0.629,1.406,1.406,1.406h0l0,1.406c0,0.776,0.63,1.406,1.406,1.406h1.407
	c0.776,0,1.406-0.63,1.406-1.406l-0.001-1.406h11.251v1.406c0,0.776,0.629,1.406,1.406,1.406h1.406c0.776,0,1.406-0.63,1.406-1.406
	v-1.406h-0.001h0.001c0.776,0,1.406-0.63,1.406-1.406v-5.625C23.25,12.252,22.551,11.261,21.554,10.828L21.554,10.828z M6.718,6.375
	h10.563l1.266,4.219H5.453L6.718,6.375L6.718,6.375z M6.375,16.922c-0.776,0-1.406-0.63-1.406-1.406s0.63-1.406,1.406-1.406
	c0.777,0,1.406,0.63,1.406,1.406S7.151,16.922,6.375,16.922z M17.625,16.922c-0.777,0-1.406-0.63-1.406-1.406
	s0.629-1.406,1.406-1.406c0.776,0,1.406,0.63,1.406,1.406S18.401,16.922,17.625,16.922z"/>
</svg>
