<?xml version="1.0" encoding="utf-8"?>
<!-- Generator: Adobe Illustrator 16.0.0, SVG Export Plug-In . SVG Version: 6.00 Build 0)  -->
<!DOCTYPE svg PUBLIC "-//W3C//DTD SVG 1.1//EN" "http://www.w3.org/Graphics/SVG/1.1/DTD/svg11.dtd">
<svg version="1.1" id="Capa_1" xmlns="http://www.w3.org/2000/svg" xmlns:xlink="http://www.w3.org/1999/xlink" x="0px" y="0px"
	 width="250px" height="250px" viewBox="0 0 250 250" enable-background="new 0 0 250 250" xml:space="preserve">
<g>
	<g>
		<g>
			<path fill="#273992" stroke="#273992" stroke-width="6" stroke-miterlimit="10" d="M179.693,39.654
				c-1.992-1.993-5.231-1.993-7.225,0L39.644,172.48c-1.993,1.99-1.993,5.23,0,7.223c1.001,0.992,2.309,1.492,3.617,1.492
				c1.308,0,2.616-0.5,3.607-1.492L179.693,46.878C181.688,44.886,181.688,41.646,179.693,39.654z"/>
		</g>
	</g>
	<g>
		<g>
			<circle fill="#273992" stroke="#273992" stroke-width="6" stroke-miterlimit="10" cx="109.674" cy="109.674" r="10.217"/>
		</g>
	</g>
	<g>
		<g>
			<path fill="#273992" stroke="#273992" stroke-width="6" stroke-miterlimit="10" d="M216.957,79.021L208.313,79
				c-38.603-0.123-74.937-0.276-102.256,27.056C78.735,133.389,78.858,169.782,79,208.313l0.021,8.645
				c0,2.818,2.289,5.107,5.109,5.107c2.82,0,5.109-2.289,5.109-5.107l-0.021-8.686c-0.143-37.928-0.255-70.674,24.063-94.992
				c24.318-24.317,57.064-24.185,94.99-24.063l8.687,0.021c2.819,0,5.108-2.289,5.108-5.109
				C222.064,81.31,219.775,79.021,216.957,79.021z"/>
		</g>
	</g>
</g>
</svg>
