<?xml version="1.0" encoding="utf-8"?>
<!-- Generator: Adobe Illustrator 16.0.0, SVG Export Plug-In . SVG Version: 6.00 Build 0)  -->
<!DOCTYPE svg PUBLIC "-//W3C//DTD SVG 1.1//EN" "http://www.w3.org/Graphics/SVG/1.1/DTD/svg11.dtd">
<svg version="1.1" id="Layer_1" xmlns="http://www.w3.org/2000/svg" xmlns:xlink="http://www.w3.org/1999/xlink" x="0px" y="0px"
	 width="24px" height="24px" viewBox="0 0 24 24" enable-background="new 0 0 24 24" xml:space="preserve">
<path fill="none" d="M3.5,3.25h24v24h-24V3.25z"/>
<g>
	<path fill="#89DBD4" d="M22.643,17.629l-6.039-6.036l-4.433,4.901l5.74,5.742c0.497,0.496,1.245,0.496,1.741,0l2.863-2.863
		C23.139,18.875,23.139,18.002,22.643,17.629z"/>
	<path fill="#273992" d="M17.044,11.955c1.121-2.864,0.499-6.225-1.867-8.59c-2.489-2.49-6.223-2.988-9.211-1.618L11.318,7.1
		l-3.734,3.734L2.107,5.481c-1.494,2.988-0.872,6.722,1.618,9.212c2.365,2.365,5.727,2.988,8.59,1.867L17.044,11.955z"/>
</g>
</svg>
